<svg width="156" height="156" viewBox="0 0 156 156" fill="none" xmlns="http://www.w3.org/2000/svg">
<rect width="156" height="156" rx="78" fill="url(#paint0_linear_bug)"/>
<path fill-rule="evenodd" clip-rule="evenodd" d="M90.4557 38.1575C91.6933 36.3892 94.1305 35.9595 95.8988 37.1976C97.6671 38.4358 98.0968 40.873 96.8592 42.6413L90.524 51.6895C94.6384 53.0031 97.4418 54.4212 97.4418 54.4212C97.4418 54.4212 90.5895 66.2084 78.9667 66.2084C67.3439 66.2084 59.0858 55.2234 59.0858 55.2234C59.0858 55.2234 62.0136 53.3542 66.3547 51.7512L59.4565 43.5304C58.0689 41.8767 58.2847 39.4113 59.9383 38.0238C61.5919 36.6362 64.0574 36.8519 65.4449 38.5056L74.2694 49.0214C74.4444 49.2298 74.5944 49.4515 74.7179 49.6827C75.7558 49.5614 76.8136 49.4951 77.8808 49.4951C79.3787 49.4951 80.8746 49.6083 82.3357 49.8038C82.4086 49.6667 82.4908 49.5326 82.5819 49.4021L90.4557 38.1575ZM61.4806 66.7672C58.3787 64.5521 53.6855 58.771 53.6855 58.771C53.6855 58.771 41.6975 68.2707 41.6975 88.4139C41.6975 108.557 62.4229 120.681 62.4229 120.681C62.4229 120.681 72.3257 110.681 74.7564 98.0035C77.1871 85.3262 71.1613 71.2508 71.1613 71.2508C71.1613 71.2508 64.5825 68.9823 61.4806 66.7672ZM94.8838 66.7672C97.9857 64.5521 102.679 58.771 102.679 58.771C102.679 58.771 114.667 68.2707 114.667 88.4139C114.667 108.557 93.9417 120.681 93.9417 120.681C93.9417 120.681 84.0389 110.681 81.6082 98.0035C79.1775 85.3262 85.2033 71.2508 85.2033 71.2508C85.2033 71.2508 91.7819 68.9823 94.8838 66.7672Z" fill="white"/>
<defs>
<linearGradient id="paint0_linear_bug" x1="0" y1="0" x2="0" y2="156" gradientUnits="userSpaceOnUse">
<stop stop-color="#92BC2C"/>
<stop offset="1" stop-color="#AFC836"/>
</linearGradient>
</defs>
</svg>
