<svg width="156" height="156" viewBox="0 0 156 156" fill="none" xmlns="http://www.w3.org/2000/svg">
<rect width="156" height="156" rx="78" fill="url(#paint0_linear_dragon)"/>
<path fill-rule="evenodd" clip-rule="evenodd" d="M82.2801 78C82.8452 77.6553 83.3251 76.9331 83.7109 76.1305C88.8013 78.2114 92.3773 83.126 92.3773 88.8568C92.3773 96.4716 86.0647 102.645 78.2801 102.645C75.0844 102.645 72.1364 101.605 69.7722 99.852C68.9961 99.4842 68.3582 99.1317 67.8364 98.8429C67.0258 98.3953 66.4943 98.1006 66.1622 98.1473C65.1885 98.2814 65.4723 99.1759 65.7281 99.9883C65.9031 100.541 66.0646 101.055 65.8143 101.267C65.5508 101.489 64.6993 100.677 63.7037 99.7283C62.35 98.437 60.7286 96.8917 59.9651 97.3559C59.3608 97.7234 59.9479 98.7177 60.6659 99.9368L60.7193 100.027C61.0225 100.542 61.3742 101.066 61.6943 101.545C62.3459 102.518 62.8724 103.301 62.6092 103.434C62.291 103.594 60.0778 102.101 58.2126 100.027C57.4937 99.2265 56.7964 98.3589 56.1492 97.5526C54.7299 95.7887 53.5491 94.3176 52.8862 94.4925C52.0879 94.7019 52.6909 96.348 53.5776 97.9318C53.9926 98.6719 54.4806 99.4256 54.9035 100.079C55.5601 101.095 56.0588 101.865 55.8782 101.96C55.6343 102.088 53.4874 99.9938 52.0286 97.3559C51.1634 95.7887 50.4348 94.0571 49.8473 92.6553C49.2081 91.1348 48.7321 90.0018 48.4192 89.8876C47.3313 89.4923 47.3313 91.7108 47.7678 94.913C47.8243 95.3316 47.9088 95.7686 48.0138 96.2151C52.2454 109.909 65.2473 119.879 80.6294 119.879C99.4443 119.879 114.697 104.962 114.697 86.5599C114.697 69.0448 100.88 54.6865 83.3251 53.3421C83.3468 52.5172 83.778 50.8811 83.778 50.8811C83.778 50.8811 86.8771 43.3829 87.0413 41.7807C87.0525 41.6743 87.0652 41.5587 87.0778 41.4357C87.2725 39.7044 87.6311 36.4849 84.861 36.4849C83.3823 36.4849 82.6951 37.5852 81.9079 38.8434C81.6061 39.3265 81.2903 39.8328 80.9079 40.3093C78.1614 43.7402 73.5409 47.9849 70.9209 50.2678C65.3843 55.0925 59.9522 59.0575 56.7843 61.3704L56.7843 61.3705L56.7843 61.3705C55.3432 62.4217 54.3699 63.1318 54.0694 63.4251C51.8008 65.6373 43.6678 80.3068 43.6678 80.3068C43.6678 80.3068 41.0377 85.0128 41.9726 85.9675C42.9074 86.9222 45.1618 86.7034 45.1618 86.7034C45.1618 86.7034 75.4477 79.7544 78.159 79.2069C78.8888 79.0596 79.4041 78.9749 79.8 78.9088C80.874 78.7319 81.0675 78.6997 82.2801 78ZM60.8672 69.0723C59.2409 70.6174 56.5449 74.3046 56.5449 74.3046C56.5449 74.3046 61.5558 74.6144 64.3149 72.0914C67.0741 69.5684 66.4434 65.0974 66.4434 65.0974C66.4434 65.0974 62.4934 67.5271 60.8672 69.0723Z" fill="white"/>
<defs>
<linearGradient id="paint0_linear_dragon" x1="1.00793" y1="0" x2="1.00793" y2="154" gradientUnits="userSpaceOnUse">
<stop stop-color="#0C69C8"/>
<stop offset="1" stop-color="#0180C7"/>
</linearGradient>
</defs>
</svg>
