<svg width="156" height="156" viewBox="0 0 156 156" fill="none" xmlns="http://www.w3.org/2000/svg">
<rect width="156" height="156" rx="78" fill="url(#paint0_linear_fairy)"/>
<path fill-rule="evenodd" clip-rule="evenodd" d="M56.1352 101.377L66.9488 98.2416L77.0729 116.751C77.5516 117.628 78.8119 117.628 79.2906 116.751L89.4147 98.2416L100.228 101.377C101.189 101.656 102.077 100.763 101.793 99.8044L98.6684 89.2436L116.615 79.4282C117.492 78.9486 117.492 77.6894 116.615 77.2097L98.5046 67.3048L101.793 56.1897C102.077 55.2315 101.189 54.3383 100.228 54.6167L89.111 57.8411L79.2906 39.8864C78.8119 39.0092 77.5516 39.0092 77.0729 39.8864L67.2526 57.8411L56.1352 54.6167C55.1747 54.3383 54.2867 55.2315 54.5711 56.1897L57.8589 67.3048L39.7493 77.2097C38.8721 77.6894 38.8721 78.9486 39.7493 79.4282L57.6954 89.2436L54.5711 99.8044C54.2867 100.763 55.1747 101.656 56.1352 101.377ZM66.0111 79.5347L73.2296 83.483L77.1786 90.7016C77.6583 91.5788 78.9185 91.5788 79.3972 90.7016L83.3462 83.483L90.5647 79.5347C91.4419 79.055 91.4419 77.7948 90.5647 77.3151L83.3462 73.3676L79.3972 66.149C78.9185 65.2718 77.6583 65.2718 77.1786 66.149L73.2296 73.3676L66.0111 77.3151C65.1339 77.7948 65.1339 79.055 66.0111 79.5347Z" fill="white"/>
<defs>
<linearGradient id="paint0_linear_fairy" x1="1.28333" y1="0" x2="1.28333" y2="153.798" gradientUnits="userSpaceOnUse">
<stop stop-color="#EC8CE5"/>
<stop offset="1" stop-color="#F3A7E7"/>
</linearGradient>
</defs>
</svg>
