<svg width="156" height="156" viewBox="0 0 156 156" fill="none" xmlns="http://www.w3.org/2000/svg">
<rect width="156" height="156" rx="78" fill="url(#paint0_linear_fight)"/>
<path fill-rule="evenodd" clip-rule="evenodd" d="M52.5726 48.1963C53.5185 44.4595 56.9025 41.6961 60.9326 41.6961C63.9677 41.6961 66.6378 43.2643 68.1734 45.6345C68.4104 45.615 68.6508 45.605 68.8929 45.605C69.4523 45.605 69.9997 45.6582 70.5281 45.76C72.1037 44.0618 74.3541 42.999 76.8532 42.999C80.4044 42.999 83.4533 45.1451 84.7753 48.2113L84.8134 48.2113C85.4259 48.2113 86.0243 48.2752 86.6012 48.3972C87.9816 47.4574 89.6496 46.908 91.446 46.908C95.1741 46.908 98.3489 49.2726 99.5526 52.5849C100.205 52.809 100.823 53.1091 101.395 53.4762C102.736 52.617 104.329 52.1202 106.039 52.1202C110.801 52.1202 114.662 55.9818 114.662 60.7432V86.628L114.662 86.6494L114.662 86.6708V87.0702C114.662 87.2282 114.658 87.386 114.649 87.5423C114.13 105.48 98.0003 119.876 78.1783 119.876C58.0287 119.876 41.6946 105 41.6946 86.6494C41.6946 77.7919 45.5005 69.7431 51.7045 63.7872C51.6886 72.4229 51.8345 81.3499 52.5077 81.1973C54.308 80.7866 52.9012 54.0398 52.5726 48.1963Z" fill="white"/>
<defs>
<linearGradient id="paint0_linear_fight" x1="1.00793" y1="0" x2="1.00793" y2="154.344" gradientUnits="userSpaceOnUse">
<stop stop-color="#CE4265"/>
<stop offset="1" stop-color="#E74347"/>
</linearGradient>
</defs>
</svg>
