<svg width="156" height="156" viewBox="0 0 156 156" fill="none" xmlns="http://www.w3.org/2000/svg">
<rect width="156" height="156" rx="78" fill="url(#paint0_linear_fire)"/>
<path fill-rule="evenodd" clip-rule="evenodd" d="M91.1965 101.323C92.1504 97.8358 90.2983 90.6645 90.2983 90.6645C90.2983 90.6645 88.9561 96.5069 86.8574 98.6658C85.0665 100.508 82.8736 101.785 79.7277 102.121C82.3002 100.871 84.0686 98.2663 84.0686 95.2552C84.0686 91.0284 80.5835 87.6022 76.2843 87.6022C71.9851 87.6022 68.4999 91.0284 68.4999 95.2552C68.4999 96.4093 68.7595 97.5039 69.2254 98.4854C66.5355 96.3431 66.1125 92.9084 66.1125 92.9084C66.1125 92.9084 63.1104 105.375 71.3844 111.241C79.6585 117.105 95.8663 112.064 95.8663 112.064C95.8663 112.064 72.6705 128.385 55.4842 110.621C40.678 95.32 51.6191 75.1751 51.6191 75.1751C51.6191 75.1751 51.1466 77.0438 51.1466 79.2137C51.1466 81.3835 52.3226 83.0339 52.3226 83.0339C52.3226 83.0339 55.8306 75.6388 58.5617 72.6304C61.1462 69.7848 64.3853 67.4769 67.183 65.4824C69.3369 63.9468 71.2293 62.5983 72.3601 61.3341C78.5841 54.3742 74.7684 41.6969 74.7684 41.6969C74.7684 41.6969 81.7843 47.883 83.7429 55.8734C84.4899 58.9175 84.0099 62.3828 83.5801 65.482C82.8831 70.5118 82.3194 74.5756 87.3574 74.3123C95.4983 73.8861 88.4241 61.3341 88.4241 61.3341C88.4241 61.3341 106.89 71.0405 105.51 88.0153C104.131 104.99 85.3264 108.849 85.3264 108.849C85.3264 108.849 90.2426 104.811 91.1965 101.323Z" fill="white"/>
<defs>
<linearGradient id="paint0_linear_fire" x1="0" y1="0" x2="0" y2="156.364" gradientUnits="userSpaceOnUse">
<stop stop-color="#FB9B51"/>
<stop offset="1" stop-color="#FBAE46"/>
</linearGradient>
</defs>
</svg>
