<svg width="156" height="156" viewBox="0 0 156 156" fill="none" xmlns="http://www.w3.org/2000/svg">
<rect width="156" height="156" rx="78" fill="url(#paint0_linear_flying)"/>
<path d="M68.4249 61.1029C58.0387 62.0726 39.1504 69.8345 41.9836 91.1809C44.8168 112.527 60.8716 115.587 75.0374 114.468C89.2032 113.348 100.537 95.0623 96.7587 97.9724C93.0009 100.883 84.5026 99.9136 84.5026 99.9136C96.2052 93.7978 100.311 91.3715 104.335 85.36C94.2337 88.3858 90.4263 88.5918 84.5026 88.2706C106.222 81.4783 109.632 73.5527 114.724 65.9537C96.2832 74.6614 89.9466 76.392 83.5583 75.6566C112.218 63.107 119.491 55.5656 125.111 41.6969C100.686 53.7733 78.8111 60.1332 68.4249 61.1029Z" fill="white"/>
<defs>
<linearGradient id="paint0_linear_flying" x1="0" y1="0" x2="0" y2="156.364" gradientUnits="userSpaceOnUse">
<stop stop-color="#90A7DA"/>
<stop offset="1" stop-color="#A6C2F2"/>
</linearGradient>
</defs>
</svg>
