<svg width="156" height="156" viewBox="0 0 156 156" fill="none" xmlns="http://www.w3.org/2000/svg">
<rect width="156" height="156" rx="78" fill="url(#paint0_linear_ghost)"/>
<path fill-rule="evenodd" clip-rule="evenodd" d="M79.2579 114.214C78.9008 114.223 78.5424 114.228 78.1818 114.228C56.5929 114.228 39.0912 96.8254 39.0912 75.3566C39.0912 53.8879 56.5929 36.4848 78.1818 36.4848C99.7707 36.4848 117.272 53.8879 117.272 75.3566C117.272 86.2033 112.805 96.0132 105.599 103.065C108.751 104.158 111.96 105.068 114.462 105.722C116.108 106.154 116.365 108.267 114.8 108.933C108.265 111.712 94.97 116.09 79.2579 114.214ZM72.685 69.807C72.685 73.093 69.9497 75.7575 66.5766 75.7575C63.2034 75.7575 60.4682 73.093 60.4682 69.807C60.4682 67.6028 61.6983 65.6785 63.5265 64.6507C63.6314 67.5157 66.0008 69.807 68.9091 69.807H72.685ZM88.566 75.7575C85.1919 75.7575 82.4576 73.093 82.4576 69.807H86.2335C89.1418 69.807 91.5112 67.5157 91.6161 64.6507C93.4443 65.6785 94.6744 67.6028 94.6744 69.807C94.6744 73.093 91.9392 75.7575 88.566 75.7575Z" fill="white"/>
<defs>
<linearGradient id="paint0_linear_ghost" x1="1.00793" y1="0" x2="1.00793" y2="154.348" gradientUnits="userSpaceOnUse">
<stop stop-color="#516AAC"/>
<stop offset="1" stop-color="#7773D4"/>
</linearGradient>
</defs>
</svg>
