<svg width="156" height="156" viewBox="0 0 156 156" fill="none" xmlns="http://www.w3.org/2000/svg">
<rect width="156" height="156" rx="78" fill="url(#paint0_linear_poison)"/>
<path fill-rule="evenodd" clip-rule="evenodd" d="M60.5925 117.273C64.2841 117.273 67.5216 114.664 69.3367 110.745C71.1518 114.664 74.3893 117.273 78.0809 117.273C81.4455 117.273 84.4337 115.105 86.3104 111.754C88.1873 115.105 91.1752 117.273 94.5401 117.273C100.221 117.273 104.828 111.094 104.828 103.471C104.828 101.97 104.649 100.524 104.317 99.1697C112.213 92.8563 117.172 83.7368 117.172 73.5939C117.172 54.5374 99.6703 39.0909 78.0809 39.0909C56.4915 39.0909 38.9899 54.5374 38.9899 73.5939C38.9899 83.3708 43.5974 92.1974 51.0006 98.4761C50.5519 100.025 50.3058 101.71 50.3058 103.471C50.3058 111.094 54.9124 117.273 60.5925 117.273ZM77.5663 91.793C90.3498 91.793 100.713 83.9515 100.713 74.2773C100.713 64.6032 90.3498 56.7614 77.5663 56.7614C64.7829 56.7614 54.4202 64.6032 54.4202 74.2773C54.4202 83.9515 64.7829 91.793 77.5663 91.793Z" fill="white"/>
<defs>
<linearGradient id="paint0_linear_poison" x1="0" y1="0" x2="0" y2="156.364" gradientUnits="userSpaceOnUse">
<stop stop-color="#A864C7"/>
<stop offset="1" stop-color="#C261D4"/>
</linearGradient>
</defs>
</svg>
