<svg width="156" height="156" viewBox="0 0 156 156" fill="none" xmlns="http://www.w3.org/2000/svg">
<rect width="156" height="156" rx="78" fill="url(#paint0_linear_psychic)"/>
<path fill-rule="evenodd" clip-rule="evenodd" d="M106.715 102.293C106.715 102.293 97.5149 109.674 79.205 106.62C65.3135 104.303 57.9047 88.9898 57.9047 80.7594C57.9047 61.2438 72.3487 56.8026 82.1137 56.8026C91.8787 56.8026 98.2487 66.3228 98.2487 73.694C98.2487 81.0652 93.0348 87.512 84.9218 87.512C76.8088 87.512 74.4057 81.8158 74.4057 76.5798C74.4057 71.3438 78.6427 69.4992 82.5065 69.4992C86.3705 69.4992 87.6938 72.7968 87.6938 75.6321C87.6938 78.4683 85.4938 79.4825 83.6588 79.4825C81.8238 79.4825 81.6428 78.557 80.9408 77.5845C80.2378 76.6121 81.8358 72.9304 79.205 72.9304C76.5753 72.9304 76.0843 77.163 76.0843 77.163C76.0843 77.163 77.0427 85.3344 84.9218 85.1935C92.8008 85.0525 96.5388 78.9599 95.4528 72.9304C94.3668 66.9009 88.5138 60.4904 78.2417 61.7848C67.9697 63.0803 63.7758 73.4594 65.6248 84.5513C67.4727 95.6422 80.7607 102.069 91.2078 99.7563C101.655 97.4436 112.061 89.8805 112.061 70.7043C112.061 51.5281 95.4528 39.9999 75.6487 41.9006C55.8457 43.8002 43.5518 61.1141 44.3388 81.9174C45.1258 102.72 64.8647 114.05 81.5567 114.634C98.2487 115.218 108.482 105.555 108.482 105.555C108.482 105.555 110.783 103.503 109.881 101.9C108.978 100.298 106.715 102.293 106.715 102.293Z" fill="white"/>
<defs>
<linearGradient id="paint0_linear_psychic" x1="0" y1="0" x2="0" y2="156.364" gradientUnits="userSpaceOnUse">
<stop stop-color="#F66F71"/>
<stop offset="1" stop-color="#FE9F92"/>
</linearGradient>
</defs>
</svg>
