<svg width="156" height="156" viewBox="0 0 156 156" fill="none" xmlns="http://www.w3.org/2000/svg">
<rect width="156" height="156" rx="78" fill="url(#paint0_linear_rock)"/>
<path fill-rule="evenodd" clip-rule="evenodd" d="M98.2674 79.5673C98.1142 79.3593 98.0528 79.0988 98.0964 78.8432L102.543 52.9128C102.622 52.4563 103.024 52.1206 103.488 52.1206C103.903 52.1206 104.276 52.3912 104.4 52.7866L114.468 84.663C114.588 85.0424 114.459 85.4557 114.146 85.7003L107.688 90.7429C107.266 91.0729 106.652 90.9883 106.335 90.5555L98.2674 79.5673ZM41.6969 96.536C41.6969 96.948 41.9617 97.3133 42.3531 97.4409L57.1863 102.29C57.468 102.383 57.778 102.338 58.0225 102.169L92.8686 78.111C93.0859 77.9621 93.231 77.7293 93.2701 77.4677L96.8659 53.3441C96.9508 52.7687 96.5055 52.2523 95.9242 52.2523H65.9404C65.6572 52.2523 65.388 52.3779 65.2065 52.5971L41.9159 80.694C41.7743 80.8654 41.6969 81.0791 41.6969 81.3014V96.536ZM64.25 103.758L81.1817 109.304C81.4699 109.399 81.7856 109.349 82.0328 109.173L101.611 95.13C102.03 94.8293 102.133 94.2517 101.846 93.8243L95.1122 83.8033C94.8171 83.3639 94.2211 83.2507 93.784 83.5498L64.25 103.758Z" fill="white"/>
<defs>
<linearGradient id="paint0_linear_rock" x1="0" y1="0" x2="0" y2="156.364" gradientUnits="userSpaceOnUse">
<stop stop-color="#C5B489"/>
<stop offset="1" stop-color="#D7CD90"/>
</linearGradient>
</defs>
</svg>
