<svg width="156" height="156" viewBox="0 0 156 156" fill="none" xmlns="http://www.w3.org/2000/svg">
<rect width="156" height="156" rx="78" fill="url(#paint0_linear_steel)"/>
<path fill-rule="evenodd" clip-rule="evenodd" d="M39.7121 78.1819C39.357 77.5758 39.3568 76.826 39.7116 76.2199L58.4152 44.2603C58.7637 43.6652 59.4019 43.2995 60.0908 43.2995H97.1824C97.8747 43.2995 98.5152 43.6687 98.8614 44.2683L117.359 76.2241C117.709 76.8264 117.709 77.5684 117.359 78.1707L98.8614 110.09C98.5152 110.689 97.8747 111.058 97.1824 111.058H60.0903C59.4014 111.058 58.7637 110.693 58.4152 110.098L39.7121 78.1819ZM78.1818 95.4239C88.2565 95.4239 96.4238 87.2566 96.4238 77.1819C96.4238 67.1072 88.2565 58.9399 78.1818 58.9399C68.1071 58.9399 59.9399 67.1072 59.9399 77.1819C59.9399 87.2566 68.1071 95.4239 78.1818 95.4239Z" fill="white"/>
<defs>
<linearGradient id="paint0_linear_steel" x1="0" y1="0" x2="0" y2="156.364" gradientUnits="userSpaceOnUse">
<stop stop-color="#52869D"/>
<stop offset="1" stop-color="#58A6AA"/>
</linearGradient>
</defs>
</svg>
