<svg width="156" height="156" viewBox="0 0 156 156" fill="none" xmlns="http://www.w3.org/2000/svg">
<rect width="156" height="156" rx="78" fill="url(#paint0_linear_stellar)"/>
<path d="M47.7691 62.0731L33 77.7921L47.7691 93.51L58.4464 83.5058V72.1569L47.7691 62.0731Z" fill="white"/>
<path d="M49.252 59.1069L63.4875 63.5559L73.2748 57.6242L75.9436 43.6852L55.4802 38.94L49.252 59.1069Z" fill="white"/>
<path d="M79.5028 43.6852L82.4688 58.2179L92.2561 63.5559L106.195 59.1069L99.9667 38.94L79.5028 43.6852Z" fill="white"/>
<path d="M107.678 62.3705L97.0006 72.1569V83.5058L107.678 93.51L122.447 77.7921L107.678 62.3705Z" fill="white"/>
<path d="M106.195 96.1799L92.2561 92.0269L82.4688 97.6617L78.9097 111.602L99.9667 116.94L106.195 96.1799Z" fill="white"/>
<path d="M72.9775 97.6617L63.1902 92.0269L49.252 96.1799L55.1837 116.94L76.5366 111.602L72.9775 97.6617Z" fill="white"/>
<path d="M64.6741 70.0815V85.503L77.7229 92.6214L90.4764 85.503V70.0815L77.7229 62.9631L64.6741 70.0815Z" fill="white"/>
<path d="M47.7691 62.0731L33 77.7921L47.7691 93.51L58.4464 83.5058V72.1569L47.7691 62.0731Z" stroke="white" stroke-width="0.593156"/>
<path d="M49.252 59.1069L63.4875 63.5559L73.2748 57.6242L75.9436 43.6852L55.4802 38.94L49.252 59.1069Z" stroke="white" stroke-width="0.593156"/>
<path d="M79.5028 43.6852L82.4688 58.2179L92.2561 63.5559L106.195 59.1069L99.9667 38.94L79.5028 43.6852Z" stroke="white" stroke-width="0.593156"/>
<path d="M107.678 62.3705L97.0006 72.1569V83.5058L107.678 93.51L122.447 77.7921L107.678 62.3705Z" stroke="white" stroke-width="0.593156"/>
<path d="M106.195 96.1799L92.2561 92.0269L82.4688 97.6617L78.9097 111.602L99.9667 116.94L106.195 96.1799Z" stroke="white" stroke-width="0.593156"/>
<path d="M72.9775 97.6617L63.1902 92.0269L49.252 96.1799L55.1837 116.94L76.5366 111.602L72.9775 97.6617Z" stroke="white" stroke-width="0.593156"/>
<path d="M64.6741 70.0815V85.503L77.7229 92.6214L90.4764 85.503V70.0815L77.7229 62.9631L64.6741 70.0815Z" stroke="white" stroke-width="0.593156"/>
<defs>
<linearGradient id="paint0_linear_stellar" x1="1.008" y1="0" x2="1.008" y2="154.344" gradientUnits="userSpaceOnUse">
<stop stop-color="#5AFFF2"/>
<stop offset="1" stop-color="#40B5A5"/>
</linearGradient>
</defs>
</svg>
