<svg width="156" height="156" viewBox="0 0 156 156" fill="none" xmlns="http://www.w3.org/2000/svg">
<rect width="156" height="156" rx="78" fill="url(#paint0_linear_unknown_new)"/>
<path d="M51.023 64H62.772C63.255 64 63.67 63.656 63.777 63.185C64.091 61.792 64.838 58.943 66.014 57.259C67.079 55.732 67.622 55.098 69.125 54C70.01 53.353 70.792 52.895 71.792 52.444C73.022 51.889 74.581 51.511 74.624 51.5C74.625 51.5 74.625 51.5 74.625 51.5L74.625 51.5C74.669 51.49 78.332 50.631 80.625 51C82.319 51.273 84.065 51.801 85.273 52.444C86.336 53.01 87.154 53.529 88.125 54.5C89.355 55.73 90.125 57.259 90.569 58.222C91.014 59.185 92.125 63 90.569 66.407C89.035 69.769 76.467 79.152 76.132 79.402C76.121 79.41 76.12 79.411 76.11 79.419C73.614 81.439 70.829 84.793 70.829 87V97.671C70.829 98.223 71.276 98.666 71.829 98.666H83.31C83.862 98.666 84.31 98.219 84.31 97.667V90.5C84.31 88.5 87.091 86.282 88.625 85C90.088 83.778 93 81.647 95.384 79.407C97.903 77.04 99.36 75.743 101.644 73.148C102.614 72.045 103.313 71.529 104.051 70.259C104.947 68.717 105.122 67.67 105.495 65.926C106.205 62.616 106.266 60.555 105.495 57.259C104.939 54.879 104.375 53.559 103.088 51.481C101.616 49.105 100.422 47.973 98.273 46.1849C96.067 44.3487 94.612 43.5523 92.014 42.333C89.322 41.0701 87.699 40.5486 84.792 39.9256C79.276 38.7437 75.84 38.6403 70.347 39.9256C67.625 40.5625 66.102 41.0736 63.606 42.333C61.186 43.5548 59.872 44.4021 57.829 46.1849C55.585 48.142 53.825 50.638 53.641 50.903C53.63 50.919 53.619 50.933 53.607 50.949C53.491 51.101 52.839 51.97 52.125 53.205C51.593 54.124 51.028 55.246 50.625 56.426C49.895 58.56 49.964 61.612 50.055 63.106C50.086 63.616 50.512 64 51.023 64Z" fill="white"/>
<path d="M83.31 104.444H71.829C71.276 104.444 70.829 104.892 70.829 105.444V116.926C70.829 117.478 71.276 117.926 71.829 117.926H83.31C83.862 117.926 84.31 117.478 84.31 116.926V105.444C84.31 104.892 83.862 104.444 83.31 104.444Z" fill="white"/>
<path d="M51.023 64H62.772C63.255 64 63.67 63.656 63.777 63.185C64.091 61.792 64.838 58.943 66.014 57.259C67.079 55.732 67.622 55.098 69.125 54C70.01 53.353 70.792 52.895 71.792 52.444C73.022 51.889 74.581 51.511 74.624 51.5C74.625 51.5 74.625 51.5 74.625 51.5L74.625 51.5C74.669 51.49 78.332 50.631 80.625 51C82.319 51.273 84.065 51.801 85.273 52.444C86.336 53.01 87.154 53.529 88.125 54.5C89.355 55.73 90.125 57.259 90.569 58.222C91.014 59.185 92.125 63 90.569 66.407C89.035 69.769 76.467 79.152 76.132 79.402C76.121 79.41 76.12 79.411 76.11 79.419C73.614 81.439 70.829 84.793 70.829 87V97.671C70.829 98.223 71.276 98.666 71.829 98.666H83.31C83.862 98.666 84.31 98.219 84.31 97.667V90.5C84.31 88.5 87.091 86.282 88.625 85C90.088 83.778 93 81.647 95.384 79.407C97.903 77.04 99.36 75.743 101.644 73.148C102.614 72.045 103.313 71.529 104.051 70.259C104.947 68.717 105.122 67.67 105.495 65.926C106.205 62.616 106.266 60.555 105.495 57.259C104.939 54.879 104.375 53.559 103.088 51.481C101.616 49.105 100.422 47.973 98.273 46.1849C96.067 44.3487 94.612 43.5523 92.014 42.333C89.322 41.0701 87.699 40.5486 84.792 39.9256C79.276 38.7437 75.84 38.6403 70.347 39.9256C67.625 40.5625 66.102 41.0736 63.606 42.333C61.186 43.5548 59.872 44.4021 57.829 46.1849C55.585 48.142 53.825 50.638 53.641 50.903C53.63 50.919 53.619 50.933 53.607 50.949C53.491 51.101 52.839 51.97 52.125 53.205C51.593 54.124 51.028 55.246 50.625 56.426C49.895 58.56 49.964 61.612 50.055 63.106C50.086 63.616 50.512 64 51.023 64Z" stroke="white" stroke-width="0.571187"/>
<path d="M83.31 104.444H71.829C71.276 104.444 70.829 104.892 70.829 105.444V116.926C70.829 117.478 71.276 117.926 71.829 117.926H83.31C83.862 117.926 84.31 117.478 84.31 116.926V105.444C84.31 104.892 83.862 104.444 83.31 104.444Z" stroke="white" stroke-width="0.571187"/>
<defs>
<linearGradient id="paint0_linear_unknown_new" x1="1.008" y1="0" x2="1.008" y2="154.344" gradientUnits="userSpaceOnUse">
<stop stop-color="#9AEBD3"/>
<stop offset="1" stop-color="#689F8F"/>
</linearGradient>
</defs>
</svg>
