<svg width="191" height="170" viewBox="0 0 191 170" fill="none" xmlns="http://www.w3.org/2000/svg">
<path d="M134.322 95.2236L185.449 155.373C188.456 158.38 179.434 167.402 173.419 164.395L122.292 104.246" fill="#F9D56E"/>
<path d="M134.322 95.2236L185.449 155.373C188.456 158.38 179.434 167.402 173.419 164.395L122.292 104.246" stroke="black" stroke-width="9.62383" stroke-linecap="round" stroke-linejoin="round"/>
<path d="M128.306 92.2178L158.381 131.315" stroke="white" stroke-opacity="0.439216" stroke-width="4.81192" stroke-linecap="round"/>
<path d="M77.1787 149.357C117.042 149.357 149.357 117.042 149.357 77.1787C149.357 37.3155 117.042 5 77.1787 5C37.3155 5 5 37.3155 5 77.1787C5 117.042 37.3155 149.357 77.1787 149.357Z" fill="#F9D56E" stroke="black" stroke-width="9.62383"/>
<path d="M77.1793 140.336C112.06 140.336 140.336 112.06 140.336 77.1793C140.336 42.299 112.06 14.0229 77.1793 14.0229C42.299 14.0229 14.0229 42.299 14.0229 77.1793C14.0229 112.06 42.299 140.336 77.1793 140.336Z" fill="#58C1F3" stroke="#3A8BBB" stroke-width="7.21787"/>
<path d="M77.1786 134.32C108.737 134.32 134.32 108.737 134.32 77.1789C134.32 45.6205 108.737 20.0374 77.1786 20.0374C45.6202 20.0374 20.0371 45.6205 20.0371 77.1789C20.0371 108.737 45.6202 134.32 77.1786 134.32Z" fill="#B3E6FF"/>
<path d="M59.2918 70.077C74.8998 64.3962 84.7894 52.1993 81.3809 42.8345C77.9724 33.4697 62.5565 30.4833 46.9485 36.1641C31.3405 41.845 21.4509 54.0419 24.8594 63.4067C28.2679 72.7714 43.6838 75.7579 59.2918 70.077Z" fill="white" fill-opacity="0.501961"/>
<path d="M89.2102 107.253C95.8541 107.253 101.24 104.56 101.24 101.239C101.24 97.9166 95.8541 95.2236 89.2102 95.2236C82.5663 95.2236 77.1804 97.9166 77.1804 101.239C77.1804 104.56 82.5663 107.253 89.2102 107.253Z" fill="white" fill-opacity="0.501961"/>
<path d="M77.1787 89.2087C83.8226 89.2087 89.2085 83.8228 89.2085 77.179C89.2085 70.5351 83.8226 65.1492 77.1787 65.1492C70.5348 65.1492 65.1489 70.5351 65.1489 77.179C65.1489 83.8228 70.5348 89.2087 77.1787 89.2087Z" fill="white" stroke="black" stroke-width="6.01489"/>
<path d="M65.1489 77.1807H89.2085Z" fill="black"/>
<path d="M65.1489 77.1807H89.2085" stroke="black" stroke-width="6.01489"/>
<path d="M77.1808 81.9927C79.8384 81.9927 81.9927 79.8384 81.9927 77.1808C81.9927 74.5233 79.8384 72.3689 77.1808 72.3689C74.5233 72.3689 72.3689 74.5233 72.3689 77.1808C72.3689 79.8384 74.5233 81.9927 77.1808 81.9927Z" fill="white" stroke="black" stroke-width="3.60894"/>
<path d="M146.351 107.255L161.388 128.307Z" fill="black"/>
<path d="M146.351 107.255L161.388 128.307" stroke="black" stroke-width="3.60894" stroke-linecap="round" stroke-linejoin="round"/>
<path d="M155.372 119.284L170.41 140.336Z" fill="black"/>
<path d="M155.372 119.284L170.41 140.336" stroke="black" stroke-width="3.60894" stroke-linecap="round" stroke-linejoin="round"/>
</svg>
