<svg width="770" height="200" viewBox="0 0 770 200" fill="none" xmlns="http://www.w3.org/2000/svg">
<path d="M96.1539 172C134.389 172 165.385 139.764 165.385 100C165.385 60.2355 134.389 28 96.1539 28C57.9188 28 26.9231 60.2355 26.9231 100C26.9231 139.764 57.9188 172 96.1539 172Z" stroke="black" stroke-width="5.76923"/>
<path d="M96.1539 28C114.515 28 132.124 35.5857 145.107 49.0883C158.091 62.5909 165.385 80.9044 165.385 100H26.9231C26.9231 80.9044 34.217 62.5909 47.2003 49.0883C60.1836 35.5857 77.7927 28 96.1539 28Z" fill="#FF3E3E"/>
<path d="M26.9231 100C26.9231 119.096 34.217 137.409 47.2003 150.912C60.1836 164.414 77.7927 172 96.1539 172C114.515 172 132.124 164.414 145.107 150.912C158.091 137.409 165.385 119.096 165.385 100H26.9231Z" fill="white"/>
<path opacity="0.3" d="M26.9231 100C26.9231 119.096 34.217 137.409 47.2003 150.912C60.1836 164.414 77.7927 172 96.1539 172C114.515 172 132.124 164.414 145.107 150.912C158.091 137.409 165.385 119.096 165.385 100H26.9231Z" fill="#DDDDDD"/>
<mask id="mask0_66_2506" style="mask-type:luminance" maskUnits="userSpaceOnUse" x="26" y="28" width="140" height="72">
<path d="M96.1539 28C114.515 28 132.124 35.5857 145.107 49.0883C158.091 62.5909 165.385 80.9044 165.385 100H26.9231C26.9231 80.9044 34.217 62.5909 47.2003 49.0883C60.1836 35.5857 77.7927 28 96.1539 28Z" fill="white"/>
</mask>
<g mask="url(#mask0_66_2506)">
<path opacity="0.8" d="M57.6924 84C70.4374 84 80.7693 73.2548 80.7693 60C80.7693 46.7452 70.4374 36 57.6924 36C44.9474 36 34.6155 46.7452 34.6155 60C34.6155 73.2548 44.9474 84 57.6924 84Z" fill="white"/>
</g>
<path d="M165.385 92.0002H26.9231V108H165.385V92.0002Z" fill="#333333"/>
<path d="M96.1538 124C108.899 124 119.231 113.255 119.231 100C119.231 86.7452 108.899 76 96.1538 76C83.4088 76 73.0769 86.7452 73.0769 100C73.0769 113.255 83.4088 124 96.1538 124Z" fill="#333333"/>
<path d="M96.1539 116C104.651 116 111.539 108.836 111.539 99.9998C111.539 91.1632 104.651 83.9998 96.1539 83.9998C87.6572 83.9998 80.7693 91.1632 80.7693 99.9998C80.7693 108.836 87.6572 116 96.1539 116Z" fill="white"/>
<path d="M96.1539 112C102.526 112 107.692 106.627 107.692 100C107.692 93.3726 102.526 88 96.1539 88C89.7814 88 84.6155 93.3726 84.6155 100C84.6155 106.627 89.7814 112 96.1539 112Z" stroke="black" stroke-width="1.92308"/>
<path d="M96.1537 108C100.402 108 103.846 104.419 103.846 100C103.846 95.582 100.402 92.0002 96.1537 92.0002C91.9054 92.0002 88.4614 95.582 88.4614 100C88.4614 104.419 91.9054 108 96.1537 108Z" fill="white"/>
<path d="M231.392 153.845H201.575C198.581 153.845 196.154 156.549 196.154 159.886C196.154 163.222 198.581 165.926 201.575 165.926H231.392C234.386 165.926 236.813 163.222 236.813 159.886C236.813 156.549 234.386 153.845 231.392 153.845Z" fill="#FF4757"/>
<path d="M326.264 153.845H255.787C252.793 153.845 250.366 156.549 250.366 159.886C250.366 163.222 252.793 165.926 255.787 165.926H326.264C329.258 165.926 331.685 163.222 331.685 159.886C331.685 156.549 329.258 153.845 326.264 153.845Z" fill="#5D9DE3"/>
<path d="M394.029 153.845H350.659C347.665 153.845 345.238 156.549 345.238 159.886C345.238 163.222 347.665 165.926 350.659 165.926H394.029C397.023 165.926 399.45 163.222 399.45 159.886C399.45 156.549 397.023 153.845 394.029 153.845Z" fill="#FFCE4B"/>
<path d="M475.348 153.845H418.425C415.431 153.845 413.004 156.549 413.004 159.886C413.004 163.222 415.431 165.926 418.425 165.926H475.348C478.342 165.926 480.769 163.222 480.769 159.886C480.769 156.549 478.342 153.845 475.348 153.845Z" fill="#7ED957"/>
<path d="M205.813 85V40.2448H223.47C226.865 40.2448 229.757 40.8931 232.146 42.1897C234.535 43.4717 236.356 45.2564 237.609 47.5437C238.877 49.8164 239.511 52.4388 239.511 55.4108C239.511 58.3829 238.869 61.0052 237.587 63.278C236.305 65.5507 234.448 67.3208 232.015 68.5883C229.596 69.8558 226.668 70.4895 223.23 70.4895H211.976V62.9065H221.7C223.521 62.9065 225.022 62.5932 226.202 61.9668C227.397 61.3258 228.285 60.4443 228.868 59.3226C229.465 58.1862 229.764 56.8823 229.764 55.4108C229.764 53.9248 229.465 52.6282 228.868 51.521C228.285 50.3992 227.397 49.5323 226.202 48.9205C225.007 48.294 223.492 47.9808 221.656 47.9808H215.275V85H205.813ZM260.107 85.6556C256.713 85.6556 253.777 84.9344 251.3 83.4921C248.838 82.0353 246.937 80.0102 245.597 77.417C244.256 74.8091 243.586 71.7861 243.586 68.3479C243.586 64.8805 244.256 61.8502 245.597 59.257C246.937 56.6492 248.838 54.6241 251.3 53.1818C253.777 51.7249 256.713 50.9965 260.107 50.9965C263.502 50.9965 266.43 51.7249 268.892 53.1818C271.369 54.6241 273.277 56.6492 274.618 59.257C275.958 61.8502 276.628 64.8805 276.628 68.3479C276.628 71.7861 275.958 74.8091 274.618 77.417C273.277 80.0102 271.369 82.0353 268.892 83.4921C266.43 84.9344 263.502 85.6556 260.107 85.6556ZM260.151 78.4441C261.695 78.4441 262.984 78.007 264.019 77.1329C265.053 76.2442 265.833 75.035 266.357 73.5052C266.896 71.9755 267.166 70.2346 267.166 68.2823C267.166 66.3301 266.896 64.5892 266.357 63.0594C265.833 61.5297 265.053 60.3205 264.019 59.4318C262.984 58.5431 261.695 58.0988 260.151 58.0988C258.592 58.0988 257.281 58.5431 256.217 59.4318C255.168 60.3205 254.374 61.5297 253.835 63.0594C253.311 64.5892 253.049 66.3301 253.049 68.2823C253.049 70.2346 253.311 71.9755 253.835 73.5052C254.374 75.035 255.168 76.2442 256.217 77.1329C257.281 78.007 258.592 78.4441 260.151 78.4441ZM291.117 75.3409L291.139 64.174H292.493L303.245 51.4336H313.931L299.486 68.3042H297.279L291.117 75.3409ZM282.681 85V40.2448H291.991V85H282.681ZM303.66 85L293.783 70.3802L299.989 63.8024L314.565 85H303.66ZM332.414 85.6556C328.961 85.6556 325.989 84.9563 323.498 83.5577C321.021 82.1445 319.112 80.1486 317.772 77.5699C316.432 74.9767 315.762 71.91 315.762 68.3698C315.762 64.917 316.432 61.8867 317.772 59.2788C319.112 56.671 320.999 54.6387 323.432 53.1818C325.88 51.7249 328.75 50.9965 332.042 50.9965C334.257 50.9965 336.318 51.3534 338.227 52.0673C340.15 52.7666 341.825 53.8228 343.253 55.236C344.695 56.6492 345.817 58.4266 346.618 60.5682C347.42 62.6952 347.82 65.1865 347.82 68.042V70.5988H319.477V64.8295H339.057C339.057 63.4892 338.766 62.3019 338.183 61.2675C337.6 60.2331 336.792 59.4245 335.757 58.8418C334.737 58.2445 333.55 57.9458 332.195 57.9458C330.782 57.9458 329.529 58.2736 328.436 58.9292C327.358 59.5702 326.513 60.4371 325.901 61.5297C325.29 62.6078 324.976 63.8097 324.962 65.1355V70.6206C324.962 72.2815 325.268 73.7165 325.88 74.9257C326.506 76.1349 327.387 77.0673 328.524 77.7229C329.66 78.3785 331.008 78.7063 332.567 78.7063C333.601 78.7063 334.548 78.5606 335.408 78.2692C336.267 77.9779 337.003 77.5408 337.615 76.958C338.227 76.3753 338.693 75.6614 339.013 74.8164L347.623 75.3846C347.186 77.4534 346.29 79.2599 344.936 80.8042C343.595 82.3339 341.862 83.5286 339.735 84.3881C337.622 85.2331 335.182 85.6556 332.414 85.6556ZM328.48 47.1066L333.113 37.1635H341.723L335.058 47.1066H328.48ZM354.07 40.2448H365.74L378.065 70.3147H378.589L390.915 40.2448H402.584V85H393.406V55.8698H393.034L381.452 84.7815H375.202L363.62 55.7605H363.248V85H354.07V40.2448ZM419.777 85.6337C417.636 85.6337 415.727 85.2622 414.052 84.5192C412.376 83.7617 411.05 82.6471 410.074 81.1757C409.113 79.6897 408.632 77.8395 408.632 75.625C408.632 73.7602 408.974 72.1941 409.659 70.9266C410.344 69.6591 411.276 68.6393 412.456 67.8671C413.636 67.095 414.977 66.5122 416.477 66.1189C417.992 65.7255 419.58 65.4487 421.241 65.2885C423.193 65.0845 424.767 64.8951 425.962 64.7203C427.156 64.5309 428.023 64.2541 428.562 63.8899C429.101 63.5256 429.371 62.9866 429.371 62.2727V62.1416C429.371 60.7576 428.934 59.6868 428.059 58.9292C427.2 58.1716 425.976 57.7928 424.388 57.7928C422.713 57.7928 421.38 58.1643 420.389 58.9073C419.398 59.6358 418.743 60.5536 418.422 61.6608L409.812 60.9615C410.249 58.9219 411.109 57.1591 412.391 55.6731C413.673 54.1725 415.326 53.0216 417.351 52.2203C419.391 51.4044 421.751 50.9965 424.432 50.9965C426.297 50.9965 428.081 51.215 429.786 51.6521C431.505 52.0892 433.027 52.7666 434.353 53.6844C435.693 54.6023 436.75 55.7823 437.522 57.2247C438.294 58.6524 438.68 60.3642 438.68 62.3601V85H429.851V80.3453H429.589C429.05 81.3942 428.329 82.3193 427.426 83.1206C426.522 83.9073 425.437 84.5265 424.17 84.9781C422.902 85.4152 421.438 85.6337 419.777 85.6337ZM422.443 79.2089C423.813 79.2089 425.022 78.9394 426.071 78.4003C427.12 77.8467 427.943 77.1037 428.54 76.1713C429.138 75.2389 429.436 74.1827 429.436 73.0026V69.4406C429.145 69.63 428.744 69.8048 428.234 69.965C427.739 70.1107 427.178 70.2491 426.552 70.3802C425.925 70.4968 425.299 70.6061 424.672 70.708C424.046 70.7955 423.478 70.8756 422.968 70.9484C421.875 71.1087 420.921 71.3636 420.105 71.7133C419.289 72.0629 418.655 72.5364 418.204 73.1337C417.752 73.7165 417.526 74.4449 417.526 75.3191C417.526 76.5865 417.985 77.5554 418.903 78.2255C419.835 78.8811 421.015 79.2089 422.443 79.2089ZM473.831 61.0052L465.308 61.5297C465.162 60.8013 464.849 60.1457 464.368 59.5629C463.888 58.9656 463.254 58.4921 462.467 58.1425C461.695 57.7783 460.77 57.5962 459.692 57.5962C458.25 57.5962 457.033 57.9021 456.042 58.514C455.052 59.1113 454.556 59.9126 454.556 60.9178C454.556 61.7191 454.877 62.3966 455.518 62.9502C456.159 63.5038 457.259 63.9481 458.818 64.2832L464.893 65.507C468.156 66.1772 470.589 67.2552 472.192 68.7413C473.794 70.2273 474.596 72.1795 474.596 74.5979C474.596 76.7978 473.947 78.7281 472.651 80.389C471.369 82.0498 469.606 83.3464 467.362 84.2788C465.133 85.1967 462.562 85.6556 459.648 85.6556C455.205 85.6556 451.664 84.7305 449.028 82.8802C446.405 81.0154 444.868 78.4805 444.417 75.2753L453.573 74.7946C453.85 76.1495 454.52 77.1839 455.583 77.8977C456.647 78.597 458.009 78.9467 459.67 78.9467C461.302 78.9467 462.613 78.6335 463.604 78.007C464.609 77.366 465.119 76.5428 465.133 75.5376C465.119 74.6926 464.762 74.0006 464.063 73.4615C463.363 72.9079 462.285 72.4854 460.828 72.1941L455.015 71.0358C451.737 70.3802 449.297 69.2439 447.695 67.6267C446.107 66.0096 445.313 63.9481 445.313 61.4423C445.313 59.2861 445.895 57.4286 447.061 55.8698C448.241 54.3109 449.894 53.109 452.021 52.264C454.163 51.419 456.669 50.9965 459.539 50.9965C463.778 50.9965 467.115 51.8925 469.548 53.6844C471.995 55.4764 473.423 57.9167 473.831 61.0052ZM498.312 51.4336V58.4266H478.098V51.4336H498.312ZM482.687 43.3916H491.996V74.6853C491.996 75.5449 492.127 76.215 492.39 76.6958C492.652 77.162 493.016 77.4898 493.482 77.6792C493.963 77.8686 494.517 77.9633 495.143 77.9633C495.58 77.9633 496.017 77.9269 496.454 77.854C496.891 77.7666 497.226 77.701 497.46 77.6573L498.924 84.5848C498.458 84.7305 497.802 84.898 496.957 85.0874C496.112 85.2914 495.085 85.4152 493.876 85.4589C491.632 85.5463 489.665 85.2477 487.975 84.5629C486.3 83.8782 484.996 82.8147 484.064 81.3724C483.131 79.9301 482.672 78.109 482.687 75.9091V43.3916ZM519.313 85.6556C515.86 85.6556 512.888 84.9563 510.397 83.5577C507.92 82.1445 506.011 80.1486 504.671 77.5699C503.331 74.9767 502.661 71.91 502.661 68.3698C502.661 64.917 503.331 61.8867 504.671 59.2788C506.011 56.671 507.898 54.6387 510.331 53.1818C512.779 51.7249 515.649 50.9965 518.941 50.9965C521.156 50.9965 523.217 51.3534 525.126 52.0673C527.049 52.7666 528.724 53.8228 530.152 55.236C531.594 56.6492 532.716 58.4266 533.517 60.5682C534.319 62.6952 534.719 65.1865 534.719 68.042V70.5988H506.376V64.8295H525.956C525.956 63.4892 525.665 62.3019 525.082 61.2675C524.499 60.2331 523.691 59.4245 522.656 58.8418C521.636 58.2445 520.449 57.9458 519.094 57.9458C517.681 57.9458 516.428 58.2736 515.335 58.9292C514.257 59.5702 513.412 60.4371 512.8 61.5297C512.189 62.6078 511.875 63.8097 511.861 65.1355V70.6206C511.861 72.2815 512.167 73.7165 512.779 74.9257C513.405 76.1349 514.286 77.0673 515.423 77.7229C516.559 78.3785 517.907 78.7063 519.466 78.7063C520.5 78.7063 521.447 78.5606 522.307 78.2692C523.166 77.9779 523.902 77.5408 524.514 76.958C525.126 76.3753 525.592 75.6614 525.912 74.8164L534.523 75.3846C534.085 77.4534 533.189 79.2599 531.835 80.8042C530.494 82.3339 528.761 83.5286 526.634 84.3881C524.521 85.2331 522.081 85.6556 519.313 85.6556ZM540.794 85V51.4336H549.82V57.2902H550.169C550.781 55.2069 551.808 53.6334 553.251 52.5699C554.693 51.4918 556.354 50.9528 558.233 50.9528C558.699 50.9528 559.202 50.9819 559.741 51.0402C560.28 51.0985 560.754 51.1786 561.162 51.2806V59.5411C560.724 59.41 560.12 59.2934 559.348 59.1914C558.576 59.0895 557.869 59.0385 557.228 59.0385C555.858 59.0385 554.635 59.3371 553.557 59.9344C552.493 60.5172 551.648 61.333 551.022 62.382C550.41 63.4309 550.104 64.6402 550.104 66.0096V85H540.794Z" fill="white"/>
<path d="M204.294 118.42H207.124L213.778 134.673H214.008L220.662 118.42H223.492V138H221.274V123.123H221.083L214.964 138H212.822L206.703 123.123H206.512V138H204.294V118.42ZM233.906 138.306C232.58 138.306 231.417 137.99 230.417 137.359C229.422 136.728 228.645 135.846 228.084 134.711C227.529 133.577 227.252 132.251 227.252 130.734C227.252 129.204 227.529 127.869 228.084 126.728C228.645 125.587 229.422 124.701 230.417 124.07C231.417 123.439 232.58 123.123 233.906 123.123C235.232 123.123 236.392 123.439 237.386 124.07C238.387 124.701 239.165 125.587 239.719 126.728C240.28 127.869 240.56 129.204 240.56 130.734C240.56 132.251 240.28 133.577 239.719 134.711C239.165 135.846 238.387 136.728 237.386 137.359C236.392 137.99 235.232 138.306 233.906 138.306ZM233.906 136.279C234.913 136.279 235.742 136.021 236.392 135.505C237.042 134.988 237.523 134.31 237.836 133.468C238.148 132.627 238.304 131.715 238.304 130.734C238.304 129.752 238.148 128.838 237.836 127.99C237.523 127.142 237.042 126.457 236.392 125.934C235.742 125.412 234.913 125.15 233.906 125.15C232.899 125.15 232.071 125.412 231.42 125.934C230.77 126.457 230.289 127.142 229.977 127.99C229.664 128.838 229.508 129.752 229.508 130.734C229.508 131.715 229.664 132.627 229.977 133.468C230.289 134.31 230.77 134.988 231.42 135.505C232.071 136.021 232.899 136.279 233.906 136.279ZM249.55 138.306C248.326 138.306 247.246 137.997 246.309 137.379C245.372 136.754 244.639 135.874 244.11 134.74C243.581 133.599 243.316 132.251 243.316 130.696C243.316 129.153 243.581 127.815 244.11 126.68C244.639 125.546 245.375 124.669 246.318 124.051C247.262 123.433 248.352 123.123 249.588 123.123C250.544 123.123 251.3 123.283 251.854 123.602C252.415 123.914 252.842 124.271 253.135 124.672C253.435 125.067 253.667 125.393 253.833 125.648H254.024V118.42H256.281V138H254.101V135.744H253.833C253.667 136.011 253.432 136.349 253.126 136.757C252.82 137.159 252.383 137.519 251.816 137.837C251.249 138.15 250.493 138.306 249.55 138.306ZM249.856 136.279C250.761 136.279 251.526 136.043 252.151 135.572C252.775 135.094 253.25 134.434 253.575 133.592C253.9 132.745 254.063 131.766 254.063 130.657C254.063 129.561 253.903 128.602 253.585 127.78C253.266 126.951 252.794 126.307 252.17 125.848C251.545 125.383 250.774 125.15 249.856 125.15C248.9 125.15 248.103 125.396 247.466 125.887C246.835 126.371 246.36 127.031 246.041 127.866C245.729 128.694 245.573 129.625 245.573 130.657C245.573 131.703 245.732 132.652 246.051 133.506C246.376 134.354 246.854 135.03 247.485 135.533C248.122 136.03 248.913 136.279 249.856 136.279ZM266.884 138.306C265.469 138.306 264.248 137.994 263.222 137.369C262.202 136.738 261.415 135.858 260.86 134.73C260.312 133.596 260.038 132.276 260.038 130.772C260.038 129.268 260.312 127.942 260.86 126.795C261.415 125.641 262.186 124.742 263.174 124.099C264.168 123.449 265.328 123.123 266.654 123.123C267.419 123.123 268.174 123.251 268.92 123.506C269.666 123.761 270.345 124.175 270.957 124.749C271.568 125.316 272.056 126.068 272.419 127.005C272.783 127.942 272.964 129.096 272.964 130.466V131.422H261.644V129.472H270.67C270.67 128.643 270.504 127.904 270.173 127.254C269.847 126.604 269.382 126.09 268.777 125.714C268.178 125.338 267.47 125.15 266.654 125.15C265.755 125.15 264.978 125.373 264.321 125.82C263.671 126.259 263.171 126.833 262.82 127.541C262.47 128.248 262.294 129.007 262.294 129.816V131.116C262.294 132.225 262.486 133.165 262.868 133.937C263.257 134.702 263.796 135.285 264.484 135.686C265.172 136.081 265.972 136.279 266.884 136.279C267.476 136.279 268.012 136.196 268.49 136.03C268.974 135.858 269.392 135.603 269.742 135.266C270.093 134.921 270.364 134.494 270.555 133.984L272.735 134.596C272.505 135.336 272.12 135.986 271.578 136.547C271.036 137.101 270.367 137.535 269.57 137.847C268.773 138.153 267.878 138.306 266.884 138.306ZM276.397 138V123.315H278.576V125.533H278.729C278.997 124.806 279.482 124.217 280.183 123.764C280.884 123.311 281.674 123.085 282.554 123.085C282.719 123.085 282.927 123.088 283.175 123.095C283.424 123.101 283.612 123.111 283.739 123.123V125.418C283.663 125.399 283.487 125.37 283.213 125.332C282.946 125.287 282.662 125.265 282.362 125.265C281.649 125.265 281.011 125.415 280.45 125.714C279.896 126.008 279.456 126.416 279.131 126.938C278.812 127.454 278.653 128.044 278.653 128.707V138H276.397ZM288.67 129.166V138H286.414V123.315H288.594V125.609H288.785C289.129 124.864 289.652 124.264 290.353 123.812C291.054 123.353 291.959 123.123 293.068 123.123C294.062 123.123 294.932 123.327 295.678 123.735C296.424 124.137 297.004 124.749 297.418 125.571C297.833 126.387 298.04 127.419 298.04 128.669V138H295.783V128.822C295.783 127.668 295.484 126.769 294.885 126.126C294.286 125.475 293.463 125.15 292.418 125.15C291.698 125.15 291.054 125.307 290.487 125.619C289.926 125.931 289.483 126.387 289.158 126.986C288.833 127.585 288.67 128.312 288.67 129.166ZM310.041 138V118.42H316.657C318.193 118.42 319.449 118.697 320.424 119.251C321.405 119.8 322.132 120.542 322.604 121.479C323.075 122.416 323.311 123.461 323.311 124.615C323.311 125.769 323.075 126.817 322.604 127.76C322.138 128.704 321.418 129.456 320.443 130.017C319.468 130.571 318.218 130.849 316.695 130.849H311.953V128.745H316.619C317.67 128.745 318.515 128.564 319.152 128.2C319.79 127.837 320.252 127.346 320.539 126.728C320.832 126.103 320.978 125.399 320.978 124.615C320.978 123.831 320.832 123.13 320.539 122.512C320.252 121.893 319.786 121.409 319.143 121.058C318.499 120.701 317.645 120.523 316.58 120.523H312.412V138H310.041ZM332.633 138.306C331.307 138.306 330.144 137.99 329.143 137.359C328.149 136.728 327.371 135.846 326.81 134.711C326.256 133.577 325.979 132.251 325.979 130.734C325.979 129.204 326.256 127.869 326.81 126.728C327.371 125.587 328.149 124.701 329.143 124.07C330.144 123.439 331.307 123.123 332.633 123.123C333.959 123.123 335.119 123.439 336.113 124.07C337.114 124.701 337.891 125.587 338.446 126.728C339.007 127.869 339.287 129.204 339.287 130.734C339.287 132.251 339.007 133.577 338.446 134.711C337.891 135.846 337.114 136.728 336.113 137.359C335.119 137.99 333.959 138.306 332.633 138.306ZM332.633 136.279C333.64 136.279 334.469 136.021 335.119 135.505C335.769 134.988 336.25 134.31 336.562 133.468C336.875 132.627 337.031 131.715 337.031 130.734C337.031 129.752 336.875 128.838 336.562 127.99C336.25 127.142 335.769 126.457 335.119 125.934C334.469 125.412 333.64 125.15 332.633 125.15C331.626 125.15 330.797 125.412 330.147 125.934C329.497 126.457 329.016 127.142 328.703 127.99C328.391 128.838 328.235 129.752 328.235 130.734C328.235 131.715 328.391 132.627 328.703 133.468C329.016 134.31 329.497 134.988 330.147 135.505C330.797 136.021 331.626 136.279 332.633 136.279ZM344.835 132.646L344.797 129.854H345.255L351.68 123.315H354.472L347.627 130.237H347.435L344.835 132.646ZM342.731 138V118.42H344.988V138H342.731ZM352.063 138L346.326 130.734L347.933 129.166L354.931 138H352.063ZM362.929 138.306C361.514 138.306 360.293 137.994 359.267 137.369C358.247 136.738 357.46 135.858 356.905 134.73C356.357 133.596 356.083 132.276 356.083 130.772C356.083 129.268 356.357 127.942 356.905 126.795C357.46 125.641 358.231 124.742 359.219 124.099C360.213 123.449 361.373 123.123 362.699 123.123C363.464 123.123 364.219 123.251 364.965 123.506C365.711 123.761 366.39 124.175 367.001 124.749C367.613 125.316 368.101 126.068 368.464 127.005C368.828 127.942 369.009 129.096 369.009 130.466V131.422H357.689V129.472H366.715C366.715 128.643 366.549 127.904 366.217 127.254C365.892 126.604 365.427 126.09 364.822 125.714C364.222 125.338 363.515 125.15 362.699 125.15C361.8 125.15 361.023 125.373 360.366 125.82C359.716 126.259 359.216 126.833 358.865 127.541C358.515 128.248 358.339 129.007 358.339 129.816V131.116C358.339 132.225 358.531 133.165 358.913 133.937C359.302 134.702 359.84 135.285 360.529 135.686C361.217 136.081 362.017 136.279 362.929 136.279C363.521 136.279 364.057 136.196 364.535 136.03C365.019 135.858 365.437 135.603 365.787 135.266C366.138 134.921 366.409 134.494 366.6 133.984L368.78 134.596C368.55 135.336 368.165 135.986 367.623 136.547C367.081 137.101 366.412 137.535 365.615 137.847C364.818 138.153 363.923 138.306 362.929 138.306ZM361.552 121.326L363.885 116.89H366.523L363.54 121.326H361.552ZM372.441 138V123.315H374.621V125.609H374.813C375.119 124.825 375.612 124.217 376.294 123.783C376.976 123.343 377.796 123.123 378.752 123.123C379.72 123.123 380.527 123.343 381.17 123.783C381.821 124.217 382.327 124.825 382.691 125.609H382.844C383.22 124.851 383.784 124.248 384.536 123.802C385.288 123.35 386.19 123.123 387.242 123.123C388.555 123.123 389.629 123.535 390.464 124.357C391.298 125.173 391.716 126.444 391.716 128.172V138H389.46V128.172C389.46 127.088 389.163 126.314 388.57 125.848C387.978 125.383 387.28 125.15 386.477 125.15C385.444 125.15 384.644 125.463 384.077 126.087C383.51 126.706 383.226 127.49 383.226 128.439V138H380.931V127.942C380.931 127.107 380.661 126.435 380.119 125.925C379.577 125.408 378.879 125.15 378.025 125.15C377.439 125.15 376.89 125.307 376.381 125.619C375.877 125.931 375.469 126.365 375.157 126.919C374.851 127.467 374.698 128.101 374.698 128.822V138H372.441ZM401.807 138.306C400.482 138.306 399.318 137.99 398.318 137.359C397.323 136.728 396.546 135.846 395.985 134.711C395.43 133.577 395.153 132.251 395.153 130.734C395.153 129.204 395.43 127.869 395.985 126.728C396.546 125.587 397.323 124.701 398.318 124.07C399.318 123.439 400.482 123.123 401.807 123.123C403.133 123.123 404.293 123.439 405.287 124.07C406.288 124.701 407.066 125.587 407.62 126.728C408.181 127.869 408.462 129.204 408.462 130.734C408.462 132.251 408.181 133.577 407.62 134.711C407.066 135.846 406.288 136.728 405.287 137.359C404.293 137.99 403.133 138.306 401.807 138.306ZM401.807 136.279C402.814 136.279 403.643 136.021 404.293 135.505C404.943 134.988 405.424 134.31 405.737 133.468C406.049 132.627 406.205 131.715 406.205 130.734C406.205 129.752 406.049 128.838 405.737 127.99C405.424 127.142 404.943 126.457 404.293 125.934C403.643 125.412 402.814 125.15 401.807 125.15C400.8 125.15 399.972 125.412 399.322 125.934C398.671 126.457 398.19 127.142 397.878 127.99C397.566 128.838 397.409 129.752 397.409 130.734C397.409 131.715 397.566 132.627 397.878 133.468C398.19 134.31 398.671 134.988 399.322 135.505C399.972 136.021 400.8 136.279 401.807 136.279ZM414.162 129.166V138H411.906V123.315H414.086V125.609H414.277C414.621 124.864 415.144 124.264 415.845 123.812C416.546 123.353 417.451 123.123 418.56 123.123C419.554 123.123 420.425 123.327 421.17 123.735C421.916 124.137 422.496 124.749 422.91 125.571C423.325 126.387 423.532 127.419 423.532 128.669V138H421.275V128.822C421.275 127.668 420.976 126.769 420.377 126.126C419.778 125.475 418.955 125.15 417.91 125.15C417.19 125.15 416.546 125.307 415.979 125.619C415.418 125.931 414.975 126.387 414.65 126.986C414.325 127.585 414.162 128.312 414.162 129.166ZM435.533 138V118.42H447.35V120.523H437.904V127.139H446.738V129.242H437.904V135.897H447.503V138H435.533ZM453 123.315L456.519 129.319L460.037 123.315H462.638L457.895 130.657L462.638 138H460.037L456.519 132.302L453 138H450.4L455.066 130.657L450.4 123.315H453ZM465.857 143.507V123.315H468.037V125.648H468.305C468.47 125.393 468.7 125.067 468.993 124.672C469.293 124.271 469.72 123.914 470.274 123.602C470.835 123.283 471.594 123.123 472.55 123.123C473.786 123.123 474.876 123.433 475.82 124.051C476.763 124.669 477.499 125.546 478.028 126.68C478.557 127.815 478.822 129.153 478.822 130.696C478.822 132.251 478.557 133.599 478.028 134.74C477.499 135.874 476.766 136.754 475.829 137.379C474.892 137.997 473.812 138.306 472.588 138.306C471.645 138.306 470.889 138.15 470.322 137.837C469.755 137.519 469.318 137.159 469.012 136.757C468.706 136.349 468.47 136.011 468.305 135.744H468.114V143.507H465.857ZM468.075 130.657C468.075 131.766 468.238 132.745 468.563 133.592C468.888 134.434 469.363 135.094 469.987 135.572C470.612 136.043 471.377 136.279 472.282 136.279C473.225 136.279 474.013 136.03 474.644 135.533C475.281 135.03 475.759 134.354 476.078 133.506C476.403 132.652 476.565 131.703 476.565 130.657C476.565 129.625 476.406 128.694 476.087 127.866C475.775 127.031 475.3 126.371 474.663 125.887C474.032 125.396 473.238 125.15 472.282 125.15C471.364 125.15 470.593 125.383 469.968 125.848C469.344 126.307 468.872 126.951 468.553 127.78C468.235 128.602 468.075 129.561 468.075 130.657ZM484.52 118.42V138H482.263V118.42H484.52ZM494.618 138.306C493.293 138.306 492.129 137.99 491.129 137.359C490.134 136.728 489.357 135.846 488.796 134.711C488.241 133.577 487.964 132.251 487.964 130.734C487.964 129.204 488.241 127.869 488.796 126.728C489.357 125.587 490.134 124.701 491.129 124.07C492.129 123.439 493.293 123.123 494.618 123.123C495.944 123.123 497.104 123.439 498.098 124.07C499.099 124.701 499.877 125.587 500.431 126.728C500.992 127.869 501.273 129.204 501.273 130.734C501.273 132.251 500.992 133.577 500.431 134.711C499.877 135.846 499.099 136.728 498.098 137.359C497.104 137.99 495.944 138.306 494.618 138.306ZM494.618 136.279C495.625 136.279 496.454 136.021 497.104 135.505C497.754 134.988 498.235 134.31 498.548 133.468C498.86 132.627 499.016 131.715 499.016 130.734C499.016 129.752 498.86 128.838 498.548 127.99C498.235 127.142 497.754 126.457 497.104 125.934C496.454 125.412 495.625 125.15 494.618 125.15C493.611 125.15 492.783 125.412 492.133 125.934C491.482 126.457 491.001 127.142 490.689 127.99C490.377 128.838 490.22 129.752 490.22 130.734C490.22 131.715 490.377 132.627 490.689 133.468C491.001 134.31 491.482 134.988 492.133 135.505C492.783 136.021 493.611 136.279 494.618 136.279ZM504.717 138V123.315H506.897V125.533H507.05C507.317 124.806 507.802 124.217 508.503 123.764C509.204 123.311 509.994 123.085 510.874 123.085C511.04 123.085 511.247 123.088 511.495 123.095C511.744 123.101 511.932 123.111 512.06 123.123V125.418C511.983 125.399 511.808 125.37 511.534 125.332C511.266 125.287 510.982 125.265 510.683 125.265C509.969 125.265 509.332 125.415 508.771 125.714C508.216 126.008 507.776 126.416 507.451 126.938C507.133 127.454 506.973 128.044 506.973 128.707V138H504.717ZM520.444 138.306C519.029 138.306 517.809 137.994 516.783 137.369C515.763 136.738 514.976 135.858 514.421 134.73C513.873 133.596 513.599 132.276 513.599 130.772C513.599 129.268 513.873 127.942 514.421 126.795C514.976 125.641 515.747 124.742 516.735 124.099C517.729 123.449 518.889 123.123 520.215 123.123C520.98 123.123 521.735 123.251 522.481 123.506C523.227 123.761 523.905 124.175 524.517 124.749C525.129 125.316 525.617 126.068 525.98 127.005C526.343 127.942 526.525 129.096 526.525 130.466V131.422H515.205V129.472H524.23C524.23 128.643 524.065 127.904 523.733 127.254C523.408 126.604 522.943 126.09 522.337 125.714C521.738 125.338 521.031 125.15 520.215 125.15C519.316 125.15 518.539 125.373 517.882 125.82C517.232 126.259 516.732 126.833 516.381 127.541C516.03 128.248 515.855 129.007 515.855 129.816V131.116C515.855 132.225 516.046 133.165 516.429 133.937C516.818 134.702 517.356 135.285 518.045 135.686C518.733 136.081 519.533 136.279 520.444 136.279C521.037 136.279 521.572 136.196 522.051 136.03C522.535 135.858 522.952 135.603 523.303 135.266C523.654 134.921 523.924 134.494 524.116 133.984L526.296 134.596C526.066 135.336 525.68 135.986 525.139 136.547C524.597 137.101 523.928 137.535 523.131 137.847C522.334 138.153 521.439 138.306 520.444 138.306ZM529.957 138V123.315H532.137V125.533H532.29C532.558 124.806 533.042 124.217 533.743 123.764C534.444 123.311 535.235 123.085 536.114 123.085C536.28 123.085 536.487 123.088 536.736 123.095C536.984 123.101 537.172 123.111 537.3 123.123V125.418C537.223 125.399 537.048 125.37 536.774 125.332C536.506 125.287 536.223 125.265 535.923 125.265C535.209 125.265 534.572 125.415 534.011 125.714C533.457 126.008 533.017 126.416 532.692 126.938C532.373 127.454 532.214 128.044 532.214 128.707V138H529.957Z" fill="#666666"/>
</svg>
