<svg width="285" height="13" viewBox="0 0 285 13" fill="none" xmlns="http://www.w3.org/2000/svg">
<path d="M35.2381 0H5.42125C2.42717 0 0 2.70457 0 6.04082C0 9.37707 2.42717 12.0816 5.42125 12.0816H35.2381C38.2322 12.0816 40.6593 9.37707 40.6593 6.04082C40.6593 2.70457 38.2322 0 35.2381 0Z" fill="#FF4757"/>
<path d="M130.11 0H59.6336C56.6396 0 54.2124 2.70457 54.2124 6.04082C54.2124 9.37707 56.6396 12.0816 59.6336 12.0816H130.11C133.104 12.0816 135.531 9.37707 135.531 6.04082C135.531 2.70457 133.104 0 130.11 0Z" fill="#5D9DE3"/>
<path d="M197.876 0H154.506C151.512 0 149.084 2.70457 149.084 6.04082C149.084 9.37707 151.512 12.0816 154.506 12.0816H197.876C200.87 12.0816 203.297 9.37707 203.297 6.04082C203.297 2.70457 200.87 0 197.876 0Z" fill="#FFCE4B"/>
<path d="M279.194 0H222.271C219.277 0 216.85 2.70457 216.85 6.04082C216.85 9.37707 219.277 12.0816 222.271 12.0816H279.194C282.188 12.0816 284.615 9.37707 284.615 6.04082C284.615 2.70457 282.188 0 279.194 0Z" fill="#7ED957"/>
</svg>
