<svg width="161" height="160" viewBox="0 0 161 160" fill="none" xmlns="http://www.w3.org/2000/svg">
<path fill-rule="evenodd" clip-rule="evenodd" d="M75.9108 1.72202C74.4483 2.35192 73.4649 3.51934 72.6891 5.54596C72.2936 6.57969 69.5759 14.1476 66.6496 22.3637C63.7234 30.5797 61.2447 37.3987 61.1414 37.5172C61.0379 37.6358 53.772 34.7308 44.9948 31.0619C36.2176 27.3931 28.4909 24.2466 27.8244 24.0699C24.3497 23.1484 20.8682 26.0863 21.212 29.6498C21.3012 30.5747 23.1175 34.5244 29.2442 47.1171C33.5986 56.0665 37.1581 63.4572 37.1544 63.5406C37.1509 63.6243 29.5594 66.7668 20.2845 70.524C1.86986 77.9837 2.13661 77.8475 1.29711 80.2184C0.811118 81.5912 0.811118 82.3929 1.29711 83.7657C2.06561 85.9365 2.98235 86.5388 8.10957 88.2407C12.0368 89.5441 12.8858 89.7473 13.8565 89.6146C16.5978 89.2406 18.5017 87.1199 18.577 84.3573L18.6177 82.8635L32.9741 77.0127C40.8701 73.7947 47.6245 70.9667 47.984 70.7279C48.3435 70.4894 48.952 69.7612 49.336 69.1096C49.8978 68.1568 50.0315 67.6335 50.0205 66.4314C50.0075 64.9996 49.7555 64.4215 43.9541 52.5147C40.6248 45.6822 37.9441 40.049 37.9971 39.9965C38.0499 39.944 43.6383 42.2168 50.416 45.0474C57.1937 47.8779 63.2009 50.2456 63.7652 50.3091C66.2454 50.5874 68.4916 49.1472 69.4229 46.6811C70.1576 44.7359 78.4108 21.6852 78.4108 21.5784C78.4108 21.5311 78.4951 21.4928 78.5983 21.4933C78.7016 21.4938 79.1171 22.279 79.5221 23.238C80.4368 25.4053 81.3468 26.525 82.7395 27.1962C85.569 28.5603 89.1845 27.0523 90.163 24.1C90.8002 22.1767 90.469 21.1141 86.4388 12.1559C84.2815 7.36071 82.339 3.38041 81.9583 2.97484C80.5246 1.44816 77.8388 0.891707 75.9108 1.72202ZM76.1748 4.50004C75.5393 5.08487 74.5301 7.71076 69.2606 22.4882C65.8669 32.005 62.9199 39.9878 62.7119 40.2273C62.5037 40.4668 62.1424 40.663 61.9089 40.663C61.6757 40.663 54.3525 37.6828 45.6353 34.0406C25.8607 25.7778 26.9339 26.1879 25.8577 26.4839C24.4959 26.8583 23.783 27.7902 23.804 29.1683C23.8192 30.1696 24.9544 32.6526 31.9914 47.0745C36.4846 56.2834 40.1593 64.0139 40.1573 64.2534C40.1551 64.4927 40.0673 64.8236 39.9621 64.9886C39.8568 65.1535 31.8991 68.4852 22.2785 72.3923C9.42231 77.6134 4.63784 79.6652 4.2256 80.1335C3.1361 81.3719 3.18685 82.8052 4.36159 83.9692C4.84059 84.4437 6.18733 85.0186 9.00406 85.951C13.4503 87.4229 14.1073 87.4503 15.2988 86.2116C16.0613 85.4192 16.1785 84.5214 15.7873 82.4761C15.6703 81.8639 15.721 81.5116 15.952 81.3333C16.1358 81.1914 22.98 78.3621 31.1612 75.0456C42.3943 70.4919 46.2195 68.8352 46.786 68.279C48.2033 66.8868 48.2155 66.9212 40.6741 51.4932C34.8819 39.6442 33.8914 37.4575 34.0771 36.9284C34.2221 36.5146 34.5149 36.2806 34.9501 36.2298C35.3689 36.1813 40.6713 38.2679 49.6595 42.0184C57.3897 45.244 63.9892 47.8831 64.3249 47.8831C65.1692 47.8831 66.3347 47.2418 66.7052 46.5735C66.8752 46.2668 69.3399 39.5177 72.1824 31.5756C76.6528 19.084 77.4366 17.086 77.9886 16.77C78.5623 16.4417 78.6761 16.4494 79.1158 16.8457C79.3848 17.0882 80.3146 18.8641 81.1818 20.7922C82.9955 24.8242 83.4913 25.3349 85.4028 25.1404C86.2545 25.0538 86.6845 24.8429 87.2153 24.2516C88.4085 22.9214 88.2672 22.3833 84.5408 14.0707C80.5043 5.06719 80.3223 4.7032 79.6086 4.20525C78.6836 3.56017 77.0431 3.70084 76.1748 4.50004ZM104.536 21.7495C102.019 22.2765 99.1647 23.2276 97.2857 24.166C91.464 27.0729 86.354 32.2652 83.6415 38.0294C82.5165 40.4205 81.4508 43.9477 81.236 45.9905C81.1048 47.241 81.1503 47.5087 81.544 47.7955C81.9083 48.0607 83.605 48.1321 89.5447 48.1321C98.0714 48.1321 97.4514 48.2822 98.2824 46.0159C100.415 40.1994 106.826 36.6765 112.961 37.9505C116.624 38.7113 120.241 41.5381 121.81 44.8656C122.301 45.909 122.839 47.0429 123.004 47.3852L123.304 48.0076L131.099 48.0733L138.894 48.1391L139.286 47.544C139.642 47.0033 139.641 46.773 139.28 45.0314C138.058 39.1423 135.7 34.5779 131.733 30.4231C127.29 25.7701 121.582 22.6819 115.44 21.6093C112.491 21.0942 107.35 21.1601 104.536 21.7495ZM105.373 24.1224C97.0564 25.6212 89.585 31.4225 85.9115 39.2332C85.039 41.0882 83.9108 44.5243 83.9108 45.3262C83.9108 45.5727 85.1975 45.6424 89.758 45.6424H95.6052L96.4704 43.8374C98.4667 39.6728 102.139 36.7569 106.926 35.5357C109.107 34.9792 112.923 35.1575 115.161 35.9204C118.992 37.2267 122.38 40.1583 124.065 43.6275L125.035 45.6255L130.848 45.6339C137.561 45.6436 137.058 45.9061 136.15 42.8674C133.269 33.2352 124.909 25.8371 114.94 24.0985C112.367 23.6496 107.935 23.6608 105.373 24.1224ZM107.893 41.7356C105.292 42.4675 103.129 44.3323 101.95 46.8574C101.401 48.0345 101.296 48.6124 101.291 50.4973C101.286 52.4149 101.382 52.9435 101.956 54.1617C102.841 56.0421 104.559 57.8332 106.341 58.7318C107.652 59.3925 108.018 59.4603 110.286 59.4603C112.522 59.4603 112.937 59.3861 114.22 58.7587C116.049 57.8646 117.683 56.2366 118.581 54.4159C119.214 53.1322 119.285 52.7343 119.276 50.4973C119.265 47.491 118.809 46.2955 116.908 44.2937C114.653 41.9193 110.962 40.8719 107.893 41.7356ZM108.428 44.1897C107.172 44.5489 105.596 45.7129 104.855 46.828C103.152 49.3902 103.326 52.507 105.3 54.8033C109.27 59.4224 116.89 56.5944 116.903 50.4973C116.912 46.1326 112.671 42.9762 108.428 44.1897ZM81.5983 53.1314C80.4586 53.7927 81.826 59.5678 84.1973 64.107C86.2785 68.0908 90.0197 72.3096 93.6475 74.763C100.548 79.4299 109.569 81.0335 117.525 79.0072C128.616 76.1821 137.16 67.1813 139.271 56.0957C139.673 53.9871 139.564 53.3192 138.772 53.0164C138.551 52.9318 135.081 52.8625 131.063 52.8625C125.603 52.8625 123.652 52.9412 123.346 53.1738C123.121 53.345 122.698 54.1276 122.407 54.9131C120.113 61.1002 113.426 64.593 107.044 62.9376C103.131 61.9226 99.1497 58.2473 98.1634 54.7395C97.6269 52.8312 97.7687 52.8615 89.4175 52.87C84.8705 52.8747 81.8678 52.9751 81.5983 53.1314ZM83.9108 55.7521C83.9108 57.5146 85.8225 62.2198 87.7108 65.1047C95.1232 76.4296 109.648 80.5476 121.837 74.7802C124.688 73.4312 126.691 72.0313 129.096 69.7074C131.49 67.3937 133.265 64.9428 134.656 62.0284C135.65 59.9465 136.956 55.8868 136.745 55.539C136.682 55.4361 134.022 55.356 130.833 55.3607L125.035 55.3692L124.087 57.3216C122.367 60.8642 119.197 63.6519 115.362 64.9949C112.957 65.8371 109.29 66.0356 106.817 65.457C102.485 64.4434 98.5789 61.3816 96.6354 57.4755L95.5789 55.3522H89.745C84.555 55.3522 83.9108 55.3963 83.9108 55.7521ZM139.035 68.0238C135.566 69.6235 134.81 74.4612 137.656 76.8464C138.106 77.2231 138.413 77.5913 138.339 77.6647C138.265 77.7382 132.429 80.1392 125.37 83.0002C113.76 87.706 112.448 88.295 111.615 89.1771C110.543 90.3132 110.049 91.8463 110.241 93.4447C110.335 94.2297 112.211 98.274 116.504 106.951C119.875 113.764 122.521 119.338 122.384 119.338C122.247 119.338 116.488 116.958 109.586 114.05C97.2432 108.85 97.0064 108.762 95.2675 108.759C93.748 108.757 93.351 108.854 92.4452 109.451C91.8655 109.833 91.1695 110.505 90.8982 110.945C90.627 111.385 88.4745 117.537 86.1145 124.616C83.7548 131.696 81.7548 137.446 81.6705 137.394C81.5863 137.342 81.0151 136.049 80.4016 134.52C79.0686 131.198 77.9591 129.778 76.2406 129.195C74.1054 128.471 72.4124 128.826 70.7566 130.346C69.4766 131.521 68.7489 133.463 69.0299 134.954C69.1216 135.441 71.0904 140.428 73.4049 146.036C76.2901 153.027 77.8368 156.47 78.3246 156.987C80.4803 159.274 84.2618 159.207 86.3438 156.846C87.0338 156.063 87.9477 153.516 92.8112 138.819C95.9264 129.405 98.5577 121.612 98.6584 121.501C98.7592 121.39 106.366 124.46 115.564 128.323C133.571 135.887 133.865 135.986 136.026 135.164C137.329 134.668 138.727 133.219 139.159 131.915C139.873 129.759 139.785 129.541 131.197 112.17C126.777 103.23 123.161 95.8341 123.161 95.7357C123.161 95.6374 130.765 92.4782 140.06 88.7155C149.354 84.9526 157.279 81.6485 157.669 81.3729C158.636 80.69 159.589 79.1653 159.79 77.9797C160.141 75.9135 158.905 73.305 157.146 72.3995C156.751 72.1958 153.26 71.0217 149.39 69.7905C141.848 67.3912 140.797 67.2117 139.035 68.0238ZM139.438 70.6789C138.177 71.7355 138.087 73.7258 139.248 74.8817C139.56 75.1925 140.563 75.6944 141.476 75.9971C143.184 76.5633 143.601 77.0181 143.294 77.9814C143.115 78.5418 143.986 78.1632 127.859 84.6976C120.749 87.5782 114.592 90.1105 114.176 90.3249C113.32 90.7656 112.661 91.8565 112.661 92.8313C112.661 93.1923 115.814 99.8759 119.669 107.684C124.537 117.544 126.63 122.029 126.522 122.367C126.093 123.715 126.091 123.715 110.662 117.241C102.64 113.875 95.7519 111.122 95.356 111.122C94.4562 111.122 93.2867 111.708 93.0165 112.295C92.9037 112.54 90.5557 119.406 87.7985 127.554L82.7858 142.367L81.9848 142.445C80.9733 142.542 81.0378 142.649 78.6896 137.004C77.0443 133.05 76.6703 132.351 75.9363 131.858C74.8901 131.156 74.0374 131.137 72.9584 131.793C72.0299 132.356 71.3011 133.806 71.5164 134.661C71.5946 134.971 73.4691 139.632 75.6823 145.02C80.1596 155.92 80.3168 156.185 82.2858 156.185C84.4903 156.185 84.2185 156.793 90.5265 137.761C97.4329 116.924 96.8149 118.624 97.5517 118.44C97.9922 118.33 102.815 120.245 115.735 125.661C128.328 130.94 133.586 133.031 134.264 133.031C135.007 133.031 135.393 132.849 136.06 132.185C137.603 130.648 137.825 131.23 128.535 112.485C123.641 102.611 120.161 95.3006 120.161 94.898C120.161 94.4555 120.346 94.1102 120.68 93.9325C120.965 93.7803 128.912 90.5303 138.339 86.7101C147.765 82.8899 155.742 79.5923 156.064 79.3821C156.946 78.8063 157.483 77.5995 157.296 76.6098C156.973 74.8914 156.568 74.6806 148.989 72.2765C145.113 71.0473 141.55 70.0415 141.07 70.0415C140.5 70.0415 139.936 70.2618 139.438 70.6789ZM43.0748 77.1613C31.8364 79.1834 22.586 87.7816 19.7747 98.8185C19.1005 101.465 19.0017 102.896 19.4612 103.354C19.8002 103.691 34.8061 103.791 35.3299 103.459C35.4916 103.356 35.8609 102.641 36.1506 101.87C38.6733 95.1554 45.8938 91.6536 52.5158 93.9335C55.6495 95.0122 58.6585 97.7293 59.9647 100.66C60.3624 101.553 60.8269 102.563 60.9964 102.906L61.3049 103.528L69.0659 103.594C78.4666 103.673 77.9196 103.872 77.3053 100.606C75.0571 88.6575 65.4409 79.2552 53.3147 77.1491C50.5945 76.6766 45.736 76.6825 43.0748 77.1613ZM43.7376 79.6069C41.5336 80.025 39.0816 80.8013 37.0101 81.7366C31.5609 84.1975 26.4047 89.3678 23.799 94.9844C23.0077 96.6898 21.9112 100.095 21.9112 100.847C21.9112 101.093 23.196 101.163 27.7482 101.163H33.5851L34.5371 99.2333C35.8259 96.6216 38.7758 93.6544 41.3476 92.3829C46.8608 89.6574 53.2435 90.344 58.1265 94.1879C59.6887 95.4176 61.6919 98.0415 62.4539 99.8557L63.0029 101.163H68.9346H74.8666L74.5026 99.6097C73.6351 95.9058 71.3744 91.6252 68.5761 88.3871C65.3349 84.6366 60.0239 81.3861 55.036 80.0999C51.9365 79.3007 46.5825 79.0672 43.7376 79.6069ZM45.5806 97.4041C38.9423 99.5906 37.0291 107.878 42.0668 112.622C44.0948 114.533 45.2678 114.977 48.286 114.979C50.475 114.98 50.9633 114.898 52.21 114.316C54.0267 113.468 55.767 111.735 56.6185 109.926C57.2025 108.685 57.286 108.196 57.286 106.018C57.286 103.803 57.2097 103.374 56.595 102.127C54.6337 98.1513 49.7153 96.0422 45.5806 97.4041ZM46.5023 99.6911C45.0648 100.106 43.3646 101.471 42.6111 102.816C41.1946 105.344 41.4973 108.275 43.3968 110.424C44.7913 112.002 46.4943 112.697 48.6423 112.567C50.5545 112.451 51.761 111.935 52.9942 110.707C54.2347 109.471 54.7457 108.275 54.8647 106.327C54.953 104.883 54.8727 104.451 54.299 103.284C52.8555 100.345 49.5358 98.8155 46.5023 99.6911ZM19.849 108.554C19.2077 108.722 19.0495 109.74 19.384 111.548C21.2745 121.765 28.9222 130.519 38.9151 133.904C42.1493 134.999 44.5436 135.366 48.411 135.359C50.9045 135.354 52.6602 135.216 54.036 134.918C66.0609 132.307 74.8058 123.553 77.2863 111.643C77.7253 109.535 77.6211 108.948 76.7481 108.618C75.9533 108.317 62.3882 108.309 61.5957 108.609C61.1614 108.774 60.8584 109.242 60.4887 110.321C57.5405 118.919 46.3175 121.726 39.7146 115.515C37.9719 113.876 36.9434 112.382 36.2644 110.502C35.9096 109.519 35.5201 108.9 35.1301 108.698C34.6956 108.473 32.6216 108.397 27.4112 108.416C23.4925 108.429 20.0895 108.492 19.849 108.554ZM21.9112 111.309C21.9112 111.549 22.1205 112.475 22.3762 113.365C25.4062 123.916 34.5556 131.564 45.6378 132.809C56.3977 134.018 67.5451 127.94 72.3746 118.232C73.4484 116.073 74.5678 112.954 74.7026 111.744L74.7858 110.997H68.9309H63.0759L62.0684 112.989C60.1029 116.875 56.2677 119.894 51.9158 120.983C49.4768 121.592 45.3391 121.364 43.0708 120.495C39.2326 119.023 36.1639 116.235 34.4666 112.678L33.6056 110.873H27.7584C22.3522 110.873 21.9112 110.906 21.9112 111.309Z" fill="#47859F"/>
<path fill-rule="evenodd" clip-rule="evenodd" d="M105.373 24.1228C97.0564 25.6216 89.5849 31.4229 85.9114 39.2336C85.0389 41.0886 83.9107 44.5247 83.9107 45.3266C83.9107 45.5731 85.1974 45.6428 89.7579 45.6428H95.6051L96.4704 43.8378C98.4666 39.6732 102.139 36.7573 106.926 35.5361C109.107 34.9797 112.923 35.1579 115.16 35.9208C118.992 37.2271 122.379 40.1587 124.065 43.6279L125.035 45.6259L130.848 45.6343C137.561 45.6441 137.058 45.9065 136.15 42.8678C133.269 33.2356 124.909 25.8375 114.94 24.0989C112.367 23.65 107.935 23.6612 105.373 24.1228ZM43.7375 79.6074C41.5335 80.0254 39.0815 80.8017 37.01 81.737C31.5608 84.1979 26.4046 89.3682 23.7989 94.9848C23.0076 96.6902 21.9111 100.095 21.9111 100.847C21.9111 101.093 23.1959 101.163 27.7481 101.163H33.5851L34.537 99.2337C35.8258 96.622 38.7758 93.6548 41.3475 92.3833C46.8607 89.6578 53.2434 90.3444 58.1264 94.1883C59.6886 95.418 61.6919 98.0419 62.4538 99.8561L63.0028 101.163H68.9346H74.8665L74.5025 99.6101C73.635 95.9062 71.3743 91.6257 68.5761 88.3875C65.3348 84.6371 60.0239 81.3865 55.0359 80.1003C51.9364 79.3011 46.5825 79.0676 43.7375 79.6074Z" fill="#DA0534"/>
<path fill-rule="evenodd" clip-rule="evenodd" d="M76.1734 4.50032C75.5379 5.08515 74.5287 7.71104 69.2592 22.4884C65.8655 32.0053 62.9185 39.9881 62.7105 40.2276C62.5023 40.4671 62.141 40.6633 61.9075 40.6633C61.6743 40.6633 54.3511 37.6831 45.6339 34.0409C25.8593 25.7781 26.9325 26.1881 25.8563 26.4842C24.4945 26.8586 23.7815 27.7905 23.8025 29.1686C23.8178 30.1699 24.953 32.6529 31.99 47.0748C36.4832 56.2837 40.1579 64.0142 40.1559 64.2537C40.1537 64.493 40.0659 64.8239 39.9607 64.9889C39.8554 65.1538 31.8977 68.4855 22.2771 72.3926C9.4209 77.6137 4.63643 79.6655 4.22418 80.1338C3.13469 81.3722 3.18544 82.8055 4.36018 83.9694C4.83918 84.444 6.18592 85.0189 9.00265 85.9512C13.4489 87.4232 14.1059 87.4505 15.2974 86.2119C16.0598 85.4194 16.1771 84.5217 15.7859 82.4764C15.6689 81.8641 15.7196 81.5119 15.9506 81.3336C16.1343 81.1917 22.9786 78.3624 31.1597 75.0458C42.3929 70.4922 46.2181 68.8355 46.7846 68.2793C48.2019 66.8871 48.2141 66.9214 40.6727 51.4935C34.8805 39.6445 33.89 37.4578 34.0757 36.9287C34.2207 36.5149 34.5135 36.2809 34.9487 36.2301C35.3675 36.1816 40.6699 38.2682 49.6581 42.0187C57.3883 45.2443 63.9878 47.8834 64.3235 47.8834C65.1678 47.8834 66.3332 47.2421 66.7037 46.5738C66.8737 46.2671 69.3385 39.518 72.181 31.5759C76.6514 19.0843 77.4352 17.0863 77.9872 16.7703C78.5609 16.4419 78.6747 16.4497 79.1144 16.846C79.3834 17.0885 80.3131 18.8644 81.1804 20.7924C82.9941 24.8245 83.4899 25.3352 85.4014 25.1407C86.2531 25.0541 86.6831 24.8432 87.2138 24.2519C88.4071 22.9216 88.2658 22.3836 84.5394 14.071C80.5029 5.06748 80.3209 4.70348 79.6071 4.20554C78.6822 3.56046 77.0417 3.70113 76.1734 4.50032ZM109.097 21.1781C109.819 21.2284 111 21.2284 111.722 21.1781C112.444 21.1278 111.853 21.0867 110.409 21.0867C108.965 21.0867 108.375 21.1278 109.097 21.1781ZM131.034 29.7086C131.989 30.6671 132.827 31.4514 132.896 31.4514C132.964 31.4514 132.239 30.6671 131.284 29.7086C130.329 28.75 129.491 27.9658 129.423 27.9658C129.354 27.9658 130.079 28.75 131.034 29.7086ZM89.2748 29.7708L88.0343 31.0779L89.3468 29.8425C90.0686 29.1628 90.6593 28.5748 90.6593 28.5354C90.6593 28.3494 90.4278 28.5563 89.2748 29.7708ZM109.353 37.8581C109.941 37.9109 110.841 37.9102 111.353 37.8566C111.865 37.8031 111.384 37.76 110.284 37.761C109.184 37.7618 108.765 37.8056 109.353 37.8581ZM108.427 44.1899C107.171 44.5492 105.594 45.7131 104.853 46.8283C103.151 49.3904 103.325 52.5073 105.298 54.8036C109.268 59.4227 116.889 56.5946 116.901 50.4976C116.91 46.1329 112.669 42.9765 108.427 44.1899ZM119.484 50.6221C119.484 51.3752 119.531 51.6832 119.588 51.3068C119.645 50.9303 119.645 50.3139 119.588 49.9374C119.531 49.561 119.484 49.869 119.484 50.6221ZM83.9094 55.7524C83.9094 57.5148 85.8211 62.2201 87.7093 65.105C95.1218 76.4299 109.646 80.5478 121.836 74.7804C124.687 73.4315 126.69 72.0316 129.095 69.7077C131.489 67.394 133.264 64.9431 134.655 62.0287C135.649 59.9468 136.955 55.8871 136.743 55.5393C136.681 55.4364 134.021 55.3563 130.832 55.361L125.034 55.3695L124.086 57.3219C122.366 60.8645 119.196 63.6522 115.361 64.9952C112.956 65.8374 109.288 66.0359 106.815 65.4572C102.483 64.4437 98.5775 61.3819 96.634 57.4758L95.5775 55.3525H89.7436C84.5536 55.3525 83.9094 55.3966 83.9094 55.7524ZM109.725 59.7638C110.105 59.8208 110.668 59.8193 110.975 59.7603C111.283 59.7013 110.972 59.6545 110.284 59.6562C109.597 59.6582 109.345 59.7065 109.725 59.7638ZM89.2843 71.2866C90.1008 72.1082 90.8248 72.7805 90.8936 72.7805C90.9623 72.7805 90.3508 72.1082 89.5343 71.2866C88.7178 70.465 87.9938 69.7928 87.9251 69.7928C87.8563 69.7928 88.4678 70.465 89.2843 71.2866ZM139.437 70.6792C138.176 71.7358 138.086 73.7261 139.246 74.882C139.558 75.1927 140.561 75.6947 141.475 75.9974C143.183 76.5636 143.599 77.0184 143.293 77.9817C143.114 78.5421 143.984 78.1635 127.857 84.6979C120.748 87.5785 114.59 90.1108 114.174 90.3252C113.319 90.7658 112.659 91.8568 112.659 92.8315C112.659 93.1926 115.813 99.8762 119.668 107.684C124.535 117.545 126.629 122.029 126.521 122.367C126.091 123.715 126.09 123.715 110.661 117.242C102.638 113.876 95.7505 111.122 95.3545 111.122C94.4548 111.122 93.2853 111.708 93.0151 112.295C92.9023 112.54 90.5543 119.406 87.7971 127.554L82.7844 142.368L81.9834 142.445C80.9719 142.542 81.0364 142.649 78.6882 137.005C77.0429 133.05 76.6689 132.351 75.9349 131.858C74.8887 131.157 74.0359 131.138 72.9569 131.793C72.0285 132.357 71.2997 133.806 71.515 134.661C71.5932 134.971 73.4677 139.633 75.6809 145.02C80.1581 155.92 80.3154 156.186 82.2844 156.186C84.4889 156.186 84.2171 156.793 90.5251 137.762C97.4315 116.925 96.8135 118.624 97.5503 118.44C97.9908 118.33 102.814 120.246 115.733 125.661C128.327 130.94 133.585 133.031 134.263 133.031C135.006 133.031 135.392 132.849 136.059 132.185C137.602 130.648 137.824 131.23 128.534 112.486C123.64 102.611 120.159 95.3008 120.159 94.8982C120.159 94.4558 120.345 94.1105 120.678 93.9327C120.964 93.7806 128.91 90.5306 138.337 86.7104C147.764 82.8902 155.74 79.5925 156.063 79.3824C156.945 78.8065 157.481 77.5998 157.295 76.6101C156.971 74.8917 156.567 74.6809 148.987 72.2768C145.111 71.0476 141.548 70.0418 141.069 70.0418C140.498 70.0418 139.934 70.2621 139.437 70.6792ZM47.2296 76.6983C47.8869 76.7498 48.8994 76.749 49.4796 76.697C50.0599 76.6447 49.5221 76.6027 48.2846 76.6034C47.0471 76.6042 46.5724 76.647 47.2296 76.6983ZM69.1595 85.3535C70.0452 86.2435 70.8262 86.9718 70.895 86.9718C70.9637 86.9718 70.2952 86.2435 69.4095 85.3535C68.5237 84.4634 67.7427 83.7352 67.674 83.7352C67.6052 83.7352 68.2737 84.4634 69.1595 85.3535ZM47.3416 93.3758C47.7854 93.4308 48.5729 93.4316 49.0916 93.3778C49.6101 93.3238 49.2471 93.2789 48.2846 93.2777C47.3221 93.2767 46.8976 93.3208 47.3416 93.3758ZM39.1597 97.0551C38.5524 97.6713 38.1119 98.1754 38.1807 98.1754C38.2494 98.1754 38.8024 97.6713 39.4097 97.0551C40.0169 96.4389 40.4574 95.9347 40.3887 95.9347C40.3199 95.9347 39.7669 96.4389 39.1597 97.0551ZM46.5009 99.6914C45.0634 100.106 43.3632 101.472 42.6097 102.816C41.1932 105.344 41.4959 108.275 43.3954 110.424C44.7899 112.002 46.4929 112.698 48.6409 112.567C50.5531 112.451 51.7596 111.935 52.9928 110.707C54.2333 109.471 54.7443 108.275 54.8633 106.327C54.9516 104.883 54.8713 104.451 54.2976 103.284C52.8541 100.345 49.5344 98.8158 46.5009 99.6914ZM23.8628 103.839C25.968 103.881 29.343 103.881 31.3627 103.839C33.3822 103.797 31.6597 103.763 27.5348 103.763C23.4098 103.763 21.7573 103.797 23.8628 103.839ZM65.6125 103.839C67.7177 103.881 71.0927 103.881 73.1124 103.839C75.1319 103.797 73.4094 103.763 69.2845 103.763C65.1595 103.763 63.507 103.797 65.6125 103.839ZM57.4871 106.018C57.4883 106.84 57.5351 107.146 57.5908 106.698C57.6463 106.251 57.6453 105.579 57.5883 105.204C57.5311 104.83 57.4856 105.196 57.4871 106.018ZM21.9098 111.309C21.9098 111.549 22.1191 112.475 22.3748 113.366C25.4048 123.917 34.5542 131.564 45.6364 132.809C56.3963 134.018 67.5437 127.94 72.3732 118.232C73.4469 116.074 74.5664 112.954 74.7012 111.744L74.7844 110.997H68.9295H63.0745L62.067 112.989C60.1015 116.875 56.2663 119.895 51.9144 120.983C49.4754 121.593 45.3376 121.364 43.0694 120.495C39.2312 119.023 36.1625 116.236 34.4652 112.678L33.6042 110.873H27.757C22.3508 110.873 21.9098 110.906 21.9098 111.309ZM47.6016 115.286C48.0509 115.341 48.7259 115.34 49.1016 115.283C49.4774 115.226 49.1096 115.181 48.2846 115.183C47.4596 115.184 47.1524 115.23 47.6016 115.286ZM27.2848 126.807C28.2398 127.766 29.0775 128.55 29.1463 128.55C29.215 128.55 28.4898 127.766 27.5348 126.807C26.5798 125.849 25.742 125.064 25.6733 125.064C25.6045 125.064 26.3298 125.849 27.2848 126.807Z" fill="white"/>
<path d="M49.0654 137.175C65.3153 137.175 78.4885 123.475 78.4885 106.575C78.4885 89.6752 65.3153 75.9751 49.0654 75.9751C32.8155 75.9751 19.6423 89.6752 19.6423 106.575C19.6423 123.475 32.8155 137.175 49.0654 137.175Z" stroke="black" stroke-width="2.45192"/>
<path d="M49.0654 75.9751C56.8689 75.9751 64.3528 79.199 69.8707 84.9376C75.3886 90.6762 78.4885 98.4595 78.4885 106.575H19.6423C19.6423 98.4595 22.7423 90.6762 28.2602 84.9376C33.778 79.199 41.2619 75.9751 49.0654 75.9751Z" fill="#FF3E3E"/>
<path d="M19.6423 106.575C19.6423 114.691 22.7423 122.474 28.2602 128.212C33.778 133.951 41.2619 137.175 49.0654 137.175C56.8689 137.175 64.3528 133.951 69.8707 128.212C75.3886 122.474 78.4885 114.691 78.4885 106.575H19.6423Z" fill="white"/>
<path opacity="0.3" d="M19.6423 106.575C19.6423 114.691 22.7423 122.474 28.2602 128.212C33.778 133.951 41.2619 137.175 49.0654 137.175C56.8689 137.175 64.3528 133.951 69.8707 128.212C75.3886 122.474 78.4885 114.691 78.4885 106.575H19.6423Z" fill="#DDDDDD"/>
<path d="M78.4885 103.175H19.6423V109.975H78.4885V103.175Z" fill="#333333"/>
<path d="M49.0653 116.775C54.4819 116.775 58.873 112.208 58.873 106.575C58.873 100.942 54.4819 96.375 49.0653 96.375C43.6486 96.375 39.2576 100.942 39.2576 106.575C39.2576 112.208 43.6486 116.775 49.0653 116.775Z" fill="#333333"/>
<path d="M49.0653 113.375C52.6764 113.375 55.6038 110.33 55.6038 106.575C55.6038 102.819 52.6764 99.7749 49.0653 99.7749C45.4542 99.7749 42.5269 102.819 42.5269 106.575C42.5269 110.33 45.4542 113.375 49.0653 113.375Z" fill="white"/>
<path d="M49.0655 111.675C51.7738 111.675 53.9693 109.392 53.9693 106.575C53.9693 103.758 51.7738 101.475 49.0655 101.475C46.3571 101.475 44.1616 103.758 44.1616 106.575C44.1616 109.392 46.3571 111.675 49.0655 111.675Z" stroke="black" stroke-width="0.817308"/>
<path d="M49.0654 109.975C50.8709 109.975 52.3346 108.453 52.3346 106.575C52.3346 104.697 50.8709 103.175 49.0654 103.175C47.2598 103.175 45.7961 104.697 45.7961 106.575C45.7961 108.453 47.2598 109.975 49.0654 109.975Z" fill="white"/>
<path d="M110.065 82.1751C126.315 82.1751 139.488 68.475 139.488 51.5751C139.488 34.6752 126.315 20.9751 110.065 20.9751C93.8155 20.9751 80.6423 34.6752 80.6423 51.5751C80.6423 68.475 93.8155 82.1751 110.065 82.1751Z" stroke="black" stroke-width="2.45192"/>
<path d="M110.065 20.9751C117.869 20.9751 125.353 24.199 130.871 29.9376C136.389 35.6762 139.488 43.4595 139.488 51.5751H80.6423C80.6423 43.4595 83.7423 35.6762 89.2602 29.9376C94.778 24.199 102.262 20.9751 110.065 20.9751Z" fill="#FF3E3E"/>
<path d="M80.6423 51.575C80.6423 59.6906 83.7423 67.4738 89.2602 73.2124C94.778 78.951 102.262 82.1749 110.065 82.1749C117.869 82.1749 125.353 78.951 130.871 73.2124C136.389 67.4738 139.488 59.6906 139.488 51.575H80.6423Z" fill="white"/>
<path opacity="0.3" d="M80.6423 51.575C80.6423 59.6906 83.7423 67.4738 89.2602 73.2124C94.778 78.951 102.262 82.1749 110.065 82.1749C117.869 82.1749 125.353 78.951 130.871 73.2124C136.389 67.4738 139.488 59.6906 139.488 51.575H80.6423Z" fill="#DDDDDD"/>
<path d="M139.488 48.175H80.6423V54.975H139.488V48.175Z" fill="#333333"/>
<path d="M110.065 61.775C115.482 61.775 119.873 57.2083 119.873 51.575C119.873 45.9417 115.482 41.375 110.065 41.375C104.649 41.375 100.258 45.9417 100.258 51.575C100.258 57.2083 104.649 61.775 110.065 61.775Z" fill="#333333"/>
<path d="M110.065 58.3749C113.676 58.3749 116.604 55.3304 116.604 51.5749C116.604 47.8194 113.676 44.7749 110.065 44.7749C106.454 44.7749 103.527 47.8194 103.527 51.5749C103.527 55.3304 106.454 58.3749 110.065 58.3749Z" fill="white"/>
<path d="M110.065 56.6751C112.774 56.6751 114.969 54.3917 114.969 51.5751C114.969 48.7584 112.774 46.4751 110.065 46.4751C107.357 46.4751 105.162 48.7584 105.162 51.5751C105.162 54.3917 107.357 56.6751 110.065 56.6751Z" stroke="black" stroke-width="0.817308"/>
<path d="M110.065 54.975C111.871 54.975 113.335 53.4528 113.335 51.575C113.335 49.6973 111.871 48.175 110.065 48.175C108.26 48.175 106.796 49.6973 106.796 51.575C106.796 53.4528 108.26 54.975 110.065 54.975Z" fill="white"/>
</svg>
