<svg width="161" height="160" viewBox="0 0 161 160" fill="none" xmlns="http://www.w3.org/2000/svg">
<path fill-rule="evenodd" clip-rule="evenodd" d="M138.96 70.6374C137.699 71.694 137.609 73.6844 138.769 74.8403C139.081 75.151 140.084 75.6529 140.998 75.9556C142.706 76.5218 143.122 76.9766 142.816 77.9399C142.637 78.5003 143.507 78.1217 127.38 84.6561C120.271 87.5367 114.113 90.069 113.697 90.2834C112.842 90.724 112.182 91.815 112.182 92.7897C112.182 93.1508 115.336 99.8343 119.191 107.642C124.058 117.503 126.152 121.987 126.044 122.325C125.614 123.673 125.613 123.673 110.184 117.2C102.161 113.834 95.2735 111.08 94.8775 111.08C93.9778 111.08 92.8083 111.666 92.5381 112.253C92.4253 112.498 90.0773 119.364 87.3201 127.512L82.3074 142.326L81.5064 142.403C80.4949 142.5 80.5594 142.607 78.2112 136.963C76.5659 133.008 76.1919 132.309 75.4579 131.816C74.4117 131.115 73.5589 131.096 72.4799 131.751C71.5515 132.315 70.8227 133.764 71.038 134.619C71.1162 134.929 72.9907 139.591 75.2039 144.978C79.6811 155.878 79.8384 156.144 81.8074 156.144C84.0119 156.144 83.7401 156.751 90.0481 137.72C96.9549 116.883 96.3365 118.582 97.0729 118.398C97.5139 118.288 102.337 120.204 115.256 125.619C127.85 130.898 133.108 132.989 133.786 132.989C134.529 132.989 134.915 132.807 135.582 132.143C137.125 130.606 137.347 131.188 128.057 112.444C123.163 102.569 119.682 95.259 119.682 94.8564C119.682 94.414 119.868 94.0687 120.201 93.8909C120.487 93.7388 128.433 90.4889 137.86 86.6687C147.287 82.8485 155.263 79.5507 155.586 79.3406C156.468 78.7647 157.004 77.558 156.818 76.5683C156.494 74.8499 156.09 74.6391 148.51 72.235C144.634 71.0058 141.071 70 140.592 70C140.021 70 139.457 70.2203 138.96 70.6374Z" fill="white"/>
<path fill-rule="evenodd" clip-rule="evenodd" d="M77.2162 4.69014C76.577 5.26599 75.5603 7.85092 70.2552 22.3969C66.8396 31.7652 63.873 39.6234 63.6637 39.8597C63.4533 40.0949 63.0899 40.2879 62.8553 40.2879C62.6198 40.2879 55.2481 37.3544 46.4731 33.7694C26.5666 25.6355 27.6477 26.0391 26.5635 26.3305C25.1935 26.6996 24.4758 27.6171 24.4969 28.9735C24.512 29.9589 25.6545 32.4031 32.7383 46.5996C37.2612 55.6647 40.9607 63.2739 40.9586 63.5101C40.9566 63.7454 40.868 64.0712 40.7623 64.2336C40.6556 64.396 32.6457 67.676 22.9607 71.5219C10.0192 76.6613 5.20238 78.6812 4.78764 79.1419C3.69139 80.3605 3.74173 81.7721 4.92454 82.9169C5.40673 83.3845 6.76273 83.9505 9.59846 84.868C14.074 86.317 14.7354 86.3445 15.9343 85.1249C16.7024 84.3443 16.8202 83.4613 16.4266 81.4473C16.3088 80.8448 16.3601 80.4983 16.5927 80.3231C16.7769 80.1834 23.6674 77.3976 31.9028 74.1334C43.2105 69.6506 47.061 68.0205 47.6317 67.4722C49.0582 66.1019 49.0702 66.1354 41.4791 50.9496C35.6486 39.2858 34.651 37.133 34.8382 36.6122C34.9842 36.2047 35.2791 35.9743 35.717 35.9241C36.1388 35.8769 41.4761 37.9303 50.5238 41.6227C58.3053 44.7973 64.9491 47.395 65.2874 47.395C66.137 47.395 67.3097 46.764 67.6832 46.1065C67.8543 45.8043 70.3357 39.1608 73.1966 31.3429C77.6964 19.0462 78.4856 17.0794 79.0412 16.7683C79.6191 16.4454 79.7338 16.4533 80.1757 16.8431C80.4465 17.0823 81.3827 18.8296 82.2555 20.7275C84.0816 24.6974 84.5808 25.1994 86.5046 25.0085C87.3622 24.9228 87.7951 24.7151 88.3296 24.1334C89.5305 22.8242 89.3886 22.2946 85.6368 14.1115C81.574 5.24828 81.3908 4.88997 80.672 4.40073C79.7409 3.76483 78.09 3.90363 77.2162 4.69014Z" fill="white"/>
<g filter="url(#filter0_d_91_2972)">
<path d="M49.0654 137.175C65.3153 137.175 78.4885 123.475 78.4885 106.575C78.4885 89.6752 65.3153 75.9751 49.0654 75.9751C32.8155 75.9751 19.6423 89.6752 19.6423 106.575C19.6423 123.475 32.8155 137.175 49.0654 137.175Z" stroke="black" stroke-width="2.45192"/>
<path d="M49.0654 75.9751C56.8689 75.9751 64.3528 79.199 69.8707 84.9376C75.3886 90.6762 78.4885 98.4595 78.4885 106.575H19.6423C19.6423 98.4595 22.7423 90.6762 28.2602 84.9376C33.778 79.199 41.2619 75.9751 49.0654 75.9751Z" fill="#FF3E3E"/>
<path d="M19.6423 106.575C19.6423 114.691 22.7423 122.474 28.2602 128.212C33.778 133.951 41.2619 137.175 49.0654 137.175C56.8689 137.175 64.3528 133.951 69.8707 128.212C75.3886 122.474 78.4885 114.691 78.4885 106.575H19.6423Z" fill="white"/>
<path opacity="0.3" d="M19.6423 106.575C19.6423 114.691 22.7423 122.474 28.2602 128.212C33.778 133.951 41.2619 137.175 49.0654 137.175C56.8689 137.175 64.3528 133.951 69.8707 128.212C75.3886 122.474 78.4885 114.691 78.4885 106.575H19.6423Z" fill="#DDDDDD"/>
<path d="M78.4885 103.175H19.6423V109.975H78.4885V103.175Z" fill="#333333"/>
<path d="M49.0654 116.775C54.482 116.775 58.8731 112.208 58.8731 106.575C58.8731 100.942 54.482 96.375 49.0654 96.375C43.6487 96.375 39.2577 100.942 39.2577 106.575C39.2577 112.208 43.6487 116.775 49.0654 116.775Z" fill="#333333"/>
<path d="M49.0654 113.375C52.6765 113.375 55.6039 110.33 55.6039 106.575C55.6039 102.819 52.6765 99.7749 49.0654 99.7749C45.4543 99.7749 42.527 102.819 42.527 106.575C42.527 110.33 45.4543 113.375 49.0654 113.375Z" fill="white"/>
<path d="M49.0655 111.675C51.7738 111.675 53.9693 109.392 53.9693 106.575C53.9693 103.758 51.7738 101.475 49.0655 101.475C46.3571 101.475 44.1616 103.758 44.1616 106.575C44.1616 109.392 46.3571 111.675 49.0655 111.675Z" stroke="black" stroke-width="0.817308"/>
<path d="M49.0654 109.975C50.8709 109.975 52.3346 108.453 52.3346 106.575C52.3346 104.697 50.8709 103.175 49.0654 103.175C47.2598 103.175 45.7961 104.697 45.7961 106.575C45.7961 108.453 47.2598 109.975 49.0654 109.975Z" fill="white"/>
</g>
<g filter="url(#filter1_d_91_2972)">
<path d="M110.065 82.1751C126.315 82.1751 139.488 68.475 139.488 51.5751C139.488 34.6752 126.315 20.9751 110.065 20.9751C93.8155 20.9751 80.6423 34.6752 80.6423 51.5751C80.6423 68.475 93.8155 82.1751 110.065 82.1751Z" stroke="black" stroke-width="2.45192"/>
<path d="M110.065 20.9751C117.869 20.9751 125.353 24.199 130.871 29.9376C136.389 35.6762 139.488 43.4595 139.488 51.5751H80.6423C80.6423 43.4595 83.7423 35.6762 89.2602 29.9376C94.778 24.199 102.262 20.9751 110.065 20.9751Z" fill="#FF3E3E"/>
<path d="M80.6423 51.575C80.6423 59.6906 83.7423 67.4738 89.2602 73.2124C94.778 78.951 102.262 82.1747 110.065 82.1747C117.869 82.1747 125.353 78.951 130.871 73.2124C136.389 67.4738 139.488 59.6906 139.488 51.575H80.6423Z" fill="white"/>
<path opacity="0.3" d="M80.6423 51.575C80.6423 59.6906 83.7423 67.4738 89.2602 73.2124C94.778 78.951 102.262 82.1747 110.065 82.1747C117.869 82.1747 125.353 78.951 130.871 73.2124C136.389 67.4738 139.488 59.6906 139.488 51.575H80.6423Z" fill="#DDDDDD"/>
<path d="M139.488 48.175H80.6423V54.975H139.488V48.175Z" fill="#333333"/>
<path d="M110.065 61.775C115.482 61.775 119.873 57.2083 119.873 51.575C119.873 45.9417 115.482 41.375 110.065 41.375C104.649 41.375 100.258 45.9417 100.258 51.575C100.258 57.2083 104.649 61.775 110.065 61.775Z" fill="#333333"/>
<path d="M110.065 58.3749C113.676 58.3749 116.604 55.3304 116.604 51.5749C116.604 47.8194 113.676 44.7749 110.065 44.7749C106.454 44.7749 103.527 47.8194 103.527 51.5749C103.527 55.3304 106.454 58.3749 110.065 58.3749Z" fill="white"/>
<path d="M110.065 56.6751C112.774 56.6751 114.969 54.3917 114.969 51.5751C114.969 48.7584 112.774 46.4751 110.065 46.4751C107.357 46.4751 105.162 48.7584 105.162 51.5751C105.162 54.3917 107.357 56.6751 110.065 56.6751Z" stroke="black" stroke-width="0.817308"/>
<path d="M110.065 54.975C111.871 54.975 113.335 53.4529 113.335 51.5751C113.335 49.6974 111.871 48.175 110.065 48.175C108.26 48.175 106.796 49.6974 106.796 51.5751C106.796 53.4529 108.26 54.975 110.065 54.975Z" fill="white"/>
</g>
<path opacity="0.6" d="M41.5 80.5C44.5 78.5 51.8 77.6 56 79" stroke="white" stroke-width="0.5"/>
<path opacity="0.6" d="M103 25.5C106 23.5 113.3 22.6 117.5 24" stroke="white" stroke-width="0.5"/>
<defs>
<filter id="filter0_d_91_2972" x="14.4164" y="70.749" width="69.2981" height="71.6519" filterUnits="userSpaceOnUse" color-interpolation-filters="sRGB">
<feFlood flood-opacity="0" result="BackgroundImageFix"/>
<feColorMatrix in="SourceAlpha" type="matrix" values="0 0 0 0 0 0 0 0 0 0 0 0 0 0 0 0 0 0 127 0" result="hardAlpha"/>
<feOffset/>
<feGaussianBlur stdDeviation="2"/>
<feComposite in2="hardAlpha" operator="out"/>
<feColorMatrix type="matrix" values="0 0 0 0 0.278 0 0 0 0 0.522 0 0 0 0 0.624 0 0 0 0.25 0"/>
<feBlend mode="normal" in2="BackgroundImageFix" result="effect1_dropShadow_91_2972"/>
<feBlend mode="normal" in="SourceGraphic" in2="effect1_dropShadow_91_2972" result="shape"/>
</filter>
<filter id="filter1_d_91_2972" x="75.4164" y="15.749" width="69.2976" height="71.6521" filterUnits="userSpaceOnUse" color-interpolation-filters="sRGB">
<feFlood flood-opacity="0" result="BackgroundImageFix"/>
<feColorMatrix in="SourceAlpha" type="matrix" values="0 0 0 0 0 0 0 0 0 0 0 0 0 0 0 0 0 0 127 0" result="hardAlpha"/>
<feOffset/>
<feGaussianBlur stdDeviation="2"/>
<feComposite in2="hardAlpha" operator="out"/>
<feColorMatrix type="matrix" values="0 0 0 0 0.278 0 0 0 0 0.522 0 0 0 0 0.624 0 0 0 0.25 0"/>
<feBlend mode="normal" in2="BackgroundImageFix" result="effect1_dropShadow_91_2972"/>
<feBlend mode="normal" in="SourceGraphic" in2="effect1_dropShadow_91_2972" result="shape"/>
</filter>
</defs>
</svg>
