<svg width="161" height="160" viewBox="0 0 161 160" fill="none" xmlns="http://www.w3.org/2000/svg">
<path fill-rule="evenodd" clip-rule="evenodd" d="M76.1741 4.49993C75.5391 5.08493 74.5291 7.71093 69.2591 22.4879C65.8661 32.0049 62.9191 39.9879 62.7111 40.2279C62.5021 40.4669 62.1411 40.6629 61.9081 40.6629C61.6741 40.6629 54.3511 37.6829 45.6341 34.0409C25.8591 25.7779 26.9331 26.1879 25.8561 26.4839C24.4951 26.8589 23.7821 27.7909 23.8031 29.1689C23.8181 30.1699 24.9531 32.6529 31.9901 47.0749C36.4831 56.2839 40.1581 64.0139 40.1561 64.2539C40.1541 64.4929 40.0661 64.8239 39.9611 64.9889C39.8551 65.1539 31.8981 68.4859 22.2771 72.3929C9.42108 77.6139 4.63608 79.6659 4.22408 80.1339C3.13508 81.3719 3.18508 82.8059 4.36008 83.9689C4.83908 84.4439 6.18608 85.0189 9.00308 85.9509C13.4491 87.4229 14.1061 87.4509 15.2971 86.2119C16.0601 85.4189 16.1771 84.5219 15.7861 82.4759C15.6691 81.8639 15.7201 81.5119 15.9511 81.3339C16.1341 81.1919 22.9791 78.3619 31.1601 75.0459C42.3931 70.4919 46.2181 68.8359 46.7851 68.2789C48.2021 66.8869 48.2141 66.9209 40.6731 51.4939C34.8811 39.6449 33.8901 37.4579 34.0761 36.9289C34.2211 36.5149 34.5141 36.2809 34.9491 36.2299C35.3681 36.1819 40.6701 38.2679 49.6581 42.0189C57.3881 45.2439 63.9881 47.8829 64.3241 47.8829C65.1681 47.8829 66.3331 47.2419 66.7041 46.5739C66.8741 46.2669 69.3391 39.5179 72.1811 31.5759C76.6511 19.0839 77.4351 17.0859 77.9871 16.7699C78.5611 16.4419 78.6751 16.4499 79.1141 16.8459C79.3831 17.0889 80.3131 18.8639 81.1801 20.7919C82.9941 24.8249 83.4901 25.3349 85.4011 25.1409C86.2531 25.0539 86.6831 24.8429 87.2141 24.2519C88.4071 22.9219 88.2661 22.3839 84.5391 14.0709C80.5031 5.06693 80.3211 4.70293 79.6071 4.20593C78.6821 3.55993 77.0421 3.70093 76.1741 4.49993Z" fill="#47859F"/>
<path fill-rule="evenodd" clip-rule="evenodd" d="M139.035 68.0239C135.566 69.6239 134.81 74.4609 137.656 76.8459C138.106 77.2229 138.413 77.5909 138.339 77.6649C138.265 77.7379 132.429 80.1389 125.37 82.9999C113.76 87.7059 112.448 88.2949 111.615 89.1769C110.543 90.3129 110.049 91.8459 110.241 93.4449C110.335 94.2299 112.211 98.2739 116.504 106.951C119.875 113.764 122.521 119.338 122.384 119.338C122.247 119.338 116.488 116.958 109.586 114.05C97.2432 108.85 97.0062 108.762 95.2682 108.759C93.7482 108.757 93.3512 108.854 92.4452 109.451C91.8662 109.833 91.1702 110.505 90.8982 110.945C90.6272 111.385 88.4752 117.537 86.1152 124.616C83.7552 131.696 81.7552 137.446 81.6712 137.394C81.5862 137.342 81.0152 136.049 80.4022 134.52C79.0692 131.198 77.9592 129.778 76.2412 129.195C74.1052 128.471 72.4122 128.826 70.7572 130.346C69.4772 131.521 68.7492 133.463 69.0302 134.954C69.1222 135.441 71.0902 140.428 73.4052 146.036C76.2902 153.027 77.8372 156.47 78.3252 156.987C80.4802 159.274 84.2622 159.207 86.3442 156.846C87.0342 156.063 87.9482 153.516 92.8112 138.819C95.9262 129.405 98.5582 121.612 98.6582 121.501C98.7592 121.39 106.366 124.46 115.564 128.323C133.571 135.887 133.865 135.986 136.026 135.164C137.329 134.668 138.727 133.219 139.159 131.915C139.873 129.759 139.785 129.541 131.197 112.17C126.777 103.23 123.161 95.8339 123.161 95.7359C123.161 95.6369 130.765 92.4779 140.06 88.7159C149.354 84.9529 157.279 81.6489 157.669 81.3729C158.636 80.6899 159.589 79.1649 159.79 77.9799C160.141 75.9139 158.905 73.3049 157.146 72.3999C156.751 72.1959 153.26 71.0219 149.39 69.7909C141.848 67.3909 140.797 67.2119 139.035 68.0239Z" fill="#47859F"/>
<g opacity="0.4">
<path d="M76.1739 4.5C75.5389 5.085 74.5289 7.711 69.2589 22.488C65.8659 32.005 62.9189 39.988 62.7109 40.228C62.5019 40.467 62.1409 40.663 61.9079 40.663C61.6739 40.663 54.3509 37.683 45.6339 34.041C25.8589 25.778 26.9329 26.188 25.8559 26.484C24.4949 26.859 23.7819 27.791 23.8029 29.169C23.8179 30.17 24.9529 32.653 31.9899 47.075C36.4829 56.284 40.1579 64.014 40.1559 64.254" stroke="#2A5D75" stroke-width="0.8" stroke-linecap="round"/>
<path d="M139.035 68.0239C135.566 69.6239 134.81 74.4609 137.656 76.8459C138.106 77.2229 138.413 77.5909 138.339 77.6649C138.265 77.7379 132.429 80.1389 125.37 82.9999C113.76 87.7059 112.448 88.2949 111.615 89.1769" stroke="#2A5D75" stroke-width="0.8" stroke-linecap="round"/>
</g>
<g filter="url(#filter0_d_91_2703)">
<path d="M49.0654 137.175C65.3153 137.175 78.4885 123.475 78.4885 106.575C78.4885 89.6752 65.3153 75.9751 49.0654 75.9751C32.8155 75.9751 19.6423 89.6752 19.6423 106.575C19.6423 123.475 32.8155 137.175 49.0654 137.175Z" stroke="black" stroke-width="2.45192"/>
<path d="M49.0654 75.9751C56.8689 75.9751 64.3528 79.199 69.8707 84.9376C75.3886 90.6762 78.4885 98.4595 78.4885 106.575H19.6423C19.6423 98.4595 22.7423 90.6762 28.2602 84.9376C33.778 79.199 41.2619 75.9751 49.0654 75.9751Z" fill="#FF3E3E"/>
<path d="M19.6423 106.575C19.6423 114.691 22.7423 122.474 28.2602 128.212C33.778 133.951 41.2619 137.175 49.0654 137.175C56.8689 137.175 64.3528 133.951 69.8707 128.212C75.3886 122.474 78.4885 114.691 78.4885 106.575H19.6423Z" fill="white"/>
<path opacity="0.3" d="M19.6423 106.575C19.6423 114.691 22.7423 122.474 28.2602 128.212C33.778 133.951 41.2619 137.175 49.0654 137.175C56.8689 137.175 64.3528 133.951 69.8707 128.212C75.3886 122.474 78.4885 114.691 78.4885 106.575H19.6423Z" fill="#DDDDDD"/>
<path d="M78.4885 103.175H19.6423V109.975H78.4885V103.175Z" fill="#333333"/>
<path d="M49.0653 116.775C54.4819 116.775 58.873 112.208 58.873 106.575C58.873 100.942 54.4819 96.375 49.0653 96.375C43.6486 96.375 39.2576 100.942 39.2576 106.575C39.2576 112.208 43.6486 116.775 49.0653 116.775Z" fill="#333333"/>
<path d="M49.0653 113.375C52.6764 113.375 55.6038 110.33 55.6038 106.575C55.6038 102.819 52.6764 99.7749 49.0653 99.7749C45.4542 99.7749 42.5269 102.819 42.5269 106.575C42.5269 110.33 45.4542 113.375 49.0653 113.375Z" fill="white"/>
<path d="M49.0655 111.675C51.7738 111.675 53.9693 109.392 53.9693 106.575C53.9693 103.758 51.7738 101.475 49.0655 101.475C46.3571 101.475 44.1616 103.758 44.1616 106.575C44.1616 109.392 46.3571 111.675 49.0655 111.675Z" stroke="black" stroke-width="0.817308"/>
<path d="M49.0654 109.975C50.8709 109.975 52.3346 108.453 52.3346 106.575C52.3346 104.697 50.8709 103.175 49.0654 103.175C47.2598 103.175 45.7961 104.697 45.7961 106.575C45.7961 108.453 47.2598 109.975 49.0654 109.975Z" fill="white"/>
</g>
<g filter="url(#filter1_d_91_2703)">
<path d="M110.065 82.1751C126.315 82.1751 139.488 68.475 139.488 51.5751C139.488 34.6752 126.315 20.9751 110.065 20.9751C93.8155 20.9751 80.6423 34.6752 80.6423 51.5751C80.6423 68.475 93.8155 82.1751 110.065 82.1751Z" stroke="black" stroke-width="2.45192"/>
<path d="M110.065 20.9751C117.869 20.9751 125.353 24.199 130.871 29.9376C136.389 35.6762 139.488 43.4595 139.488 51.5751H80.6423C80.6423 43.4595 83.7423 35.6762 89.2602 29.9376C94.778 24.199 102.262 20.9751 110.065 20.9751Z" fill="#FF3E3E"/>
<path d="M80.6423 51.575C80.6423 59.6906 83.7423 67.4738 89.2602 73.2124C94.778 78.951 102.262 82.1748 110.065 82.1748C117.869 82.1748 125.353 78.951 130.871 73.2124C136.389 67.4738 139.488 59.6906 139.488 51.575H80.6423Z" fill="white"/>
<path opacity="0.3" d="M80.6423 51.575C80.6423 59.6906 83.7423 67.4738 89.2602 73.2124C94.778 78.951 102.262 82.1748 110.065 82.1748C117.869 82.1748 125.353 78.951 130.871 73.2124C136.389 67.4738 139.488 59.6906 139.488 51.575H80.6423Z" fill="#DDDDDD"/>
<path d="M139.488 48.175H80.6423V54.975H139.488V48.175Z" fill="#333333"/>
<path d="M110.065 61.775C115.482 61.775 119.873 57.2083 119.873 51.575C119.873 45.9417 115.482 41.375 110.065 41.375C104.649 41.375 100.258 45.9417 100.258 51.575C100.258 57.2083 104.649 61.775 110.065 61.775Z" fill="#333333"/>
<path d="M110.065 58.3749C113.676 58.3749 116.604 55.3304 116.604 51.5749C116.604 47.8194 113.676 44.7749 110.065 44.7749C106.454 44.7749 103.527 47.8194 103.527 51.5749C103.527 55.3304 106.454 58.3749 110.065 58.3749Z" fill="white"/>
<path d="M110.065 56.6751C112.774 56.6751 114.969 54.3917 114.969 51.5751C114.969 48.7584 112.774 46.4751 110.065 46.4751C107.357 46.4751 105.162 48.7584 105.162 51.5751C105.162 54.3917 107.357 56.6751 110.065 56.6751Z" stroke="black" stroke-width="0.817308"/>
<path d="M110.065 54.975C111.871 54.975 113.335 53.4529 113.335 51.5751C113.335 49.6974 111.871 48.175 110.065 48.175C108.26 48.175 106.796 49.6974 106.796 51.5751C106.796 53.4529 108.26 54.975 110.065 54.975Z" fill="white"/>
</g>
<path opacity="0.6" d="M41.5 80.5C44.5 78.5 51.8 77.6 56 79" stroke="white" stroke-width="0.5"/>
<path opacity="0.6" d="M103 25.5C106 23.5 113.3 22.6 117.5 24" stroke="white" stroke-width="0.5"/>
<defs>
<filter id="filter0_d_91_2703" x="14.4163" y="70.749" width="69.2983" height="71.6519" filterUnits="userSpaceOnUse" color-interpolation-filters="sRGB">
<feFlood flood-opacity="0" result="BackgroundImageFix"/>
<feColorMatrix in="SourceAlpha" type="matrix" values="0 0 0 0 0 0 0 0 0 0 0 0 0 0 0 0 0 0 127 0" result="hardAlpha"/>
<feOffset/>
<feGaussianBlur stdDeviation="2"/>
<feComposite in2="hardAlpha" operator="out"/>
<feColorMatrix type="matrix" values="0 0 0 0 0.278 0 0 0 0 0.522 0 0 0 0 0.624 0 0 0 0.25 0"/>
<feBlend mode="normal" in2="BackgroundImageFix" result="effect1_dropShadow_91_2703"/>
<feBlend mode="normal" in="SourceGraphic" in2="effect1_dropShadow_91_2703" result="shape"/>
</filter>
<filter id="filter1_d_91_2703" x="75.4163" y="15.749" width="69.2979" height="71.6521" filterUnits="userSpaceOnUse" color-interpolation-filters="sRGB">
<feFlood flood-opacity="0" result="BackgroundImageFix"/>
<feColorMatrix in="SourceAlpha" type="matrix" values="0 0 0 0 0 0 0 0 0 0 0 0 0 0 0 0 0 0 127 0" result="hardAlpha"/>
<feOffset/>
<feGaussianBlur stdDeviation="2"/>
<feComposite in2="hardAlpha" operator="out"/>
<feColorMatrix type="matrix" values="0 0 0 0 0.278 0 0 0 0 0.522 0 0 0 0 0.624 0 0 0 0.25 0"/>
<feBlend mode="normal" in2="BackgroundImageFix" result="effect1_dropShadow_91_2703"/>
<feBlend mode="normal" in="SourceGraphic" in2="effect1_dropShadow_91_2703" result="shape"/>
</filter>
</defs>
</svg>
