<svg width="200" height="200" viewBox="0 0 200 200" fill="none" xmlns="http://www.w3.org/2000/svg">
<path d="M99.9999 179.999C144.183 179.999 180 144.182 180 99.9993C180 55.8165 144.183 19.9993 99.9999 19.9993C55.8171 19.9993 19.9999 55.8165 19.9999 99.9993C19.9999 144.182 55.8171 179.999 99.9999 179.999Z" fill="#58C1F3" stroke="black" stroke-width="7"/>
<path d="M99.9999 179.999C121.217 179.999 141.566 171.571 156.568 156.568C171.571 141.565 180 121.217 180 99.9993C180 78.7819 171.571 58.4336 156.568 43.4307C141.566 28.4278 121.217 19.9993 99.9999 19.9993C78.7826 19.9993 58.4342 28.4278 43.4313 43.4307C28.4284 58.4336 19.9999 78.7819 19.9999 99.9993C19.9999 121.217 28.4284 141.565 43.4313 156.568C58.4342 171.571 78.7826 179.999 99.9999 179.999ZM99.9999 29.9993C106.57 29.9993 114.07 35.8993 120.22 49.0793C122.39 53.7393 124.28 59.0993 125.81 64.9993H74.1899C75.7199 59.0993 77.6099 53.7393 79.7899 49.0793C85.9199 35.8993 93.4199 29.9993 99.9999 29.9993ZM70.7199 44.8493C67.7668 51.3174 65.4784 58.0687 63.8899 64.9993H39.3599C47.8009 50.4068 61.2112 39.3392 77.1399 33.8193C74.7299 37.1193 72.5799 40.8593 70.7199 44.8493ZM61.9199 74.9993C60.6269 83.2695 59.9849 91.6285 59.9999 99.9993C59.9999 108.699 60.6699 117.119 61.9299 124.999H34.5999C31.5536 117.017 29.9946 108.544 29.9999 99.9993C29.9999 91.1993 31.6299 82.7593 34.5999 74.9993H61.9199ZM63.8899 134.999C65.6499 142.429 67.9599 149.219 70.7199 155.149C72.5799 159.139 74.7299 162.879 77.1399 166.179C61.2112 160.659 47.8009 149.592 39.3599 134.999H63.8899ZM74.1899 134.999H125.81C124.43 140.465 122.555 145.793 120.21 150.919C114.08 164.099 106.58 169.999 99.9999 169.999C93.4199 169.999 85.9299 164.099 79.7799 150.919C77.4414 145.793 75.5637 140.464 74.1899 134.999ZM127.95 124.999H72.0599C70.6764 116.738 69.9873 108.376 69.9999 99.9993C69.9999 91.1693 70.7299 82.7493 72.0599 74.9993H127.94C129.27 82.7493 130 91.1693 130 99.9993C130 108.829 129.27 117.249 127.94 124.999M136.11 134.999H160.64C152.199 149.592 138.789 160.659 122.86 166.179C125.27 162.879 127.42 159.139 129.28 155.149C132.04 149.219 134.35 142.429 136.11 134.999ZM165.41 124.999H138.07C139.33 117.119 140 108.699 140 99.9993C140 91.2993 139.33 82.8793 138.07 74.9993H165.4C168.37 82.7593 170 91.1993 170 99.9993C170 108.799 168.38 117.239 165.41 124.999ZM122.85 33.8193C138.782 39.3371 152.196 50.4049 160.64 64.9993H136.1C134.511 58.0687 132.223 51.3174 129.27 44.8493C127.491 40.9738 125.341 37.2799 122.85 33.8193Z" fill="#7BDE77"/>
<path d="M127.95 124.999H72.0599C70.6764 116.738 69.9873 108.376 69.9999 99.9993C69.9999 91.1693 70.7299 82.7493 72.0599 74.9993H127.94C129.27 82.7493 130 91.1693 130 99.9993C130 108.829 129.27 117.249 127.94 124.999M99.9999 179.999C121.217 179.999 141.566 171.571 156.568 156.568C171.571 141.565 180 121.217 180 99.9993C180 78.7819 171.571 58.4336 156.568 43.4307C141.566 28.4278 121.217 19.9993 99.9999 19.9993C78.7826 19.9993 58.4342 28.4278 43.4313 43.4307C28.4284 58.4336 19.9999 78.7819 19.9999 99.9993C19.9999 121.217 28.4284 141.565 43.4313 156.568C58.4342 171.571 78.7826 179.999 99.9999 179.999ZM99.9999 29.9993C106.57 29.9993 114.07 35.8993 120.22 49.0793C122.39 53.7393 124.28 59.0993 125.81 64.9993H74.1899C75.7199 59.0993 77.6099 53.7393 79.7899 49.0793C85.9199 35.8993 93.4199 29.9993 99.9999 29.9993ZM70.7199 44.8493C67.7668 51.3174 65.4784 58.0687 63.8899 64.9993H39.3599C47.8009 50.4068 61.2112 39.3392 77.1399 33.8193C74.7299 37.1193 72.5799 40.8593 70.7199 44.8493ZM61.9199 74.9993C60.6269 83.2695 59.9849 91.6285 59.9999 99.9993C59.9999 108.699 60.6699 117.119 61.9299 124.999H34.5999C31.5536 117.017 29.9946 108.544 29.9999 99.9993C29.9999 91.1993 31.6299 82.7593 34.5999 74.9993H61.9199ZM63.8899 134.999C65.6499 142.429 67.9599 149.219 70.7199 155.149C72.5799 159.139 74.7299 162.879 77.1399 166.179C61.2112 160.659 47.8009 149.592 39.3599 134.999H63.8899ZM74.1899 134.999H125.81C124.43 140.465 122.555 145.793 120.21 150.919C114.08 164.099 106.58 169.999 99.9999 169.999C93.4199 169.999 85.9299 164.099 79.7799 150.919C77.4414 145.793 75.5637 140.464 74.1899 134.999ZM136.11 134.999H160.64C152.199 149.592 138.789 160.659 122.86 166.179C125.27 162.879 127.42 159.139 129.28 155.149C132.04 149.219 134.35 142.429 136.11 134.999ZM165.41 124.999H138.07C139.33 117.119 140 108.699 140 99.9993C140 91.2993 139.33 82.8793 138.07 74.9993H165.4C168.37 82.7593 170 91.1993 170 99.9993C170 108.799 168.38 117.239 165.41 124.999ZM122.85 33.8193C138.782 39.3371 152.196 50.4049 160.64 64.9993H136.1C134.511 58.0687 132.223 51.3174 129.27 44.8493C127.491 40.9738 125.341 37.2799 122.85 33.8193Z" stroke="black" stroke-width="2"/>
<path d="M71.0002 75H129M71.0002 125H129" stroke="#F9D56E" stroke-width="2"/>
<path d="M73.8812 74.4902C87.2179 70.9167 96.2912 61.5328 94.1471 53.5308C92.003 45.5289 79.4533 41.9389 66.1167 45.5124C52.78 49.086 43.7067 58.4698 45.8508 66.4718C47.9949 74.4738 60.5446 78.0638 73.8812 74.4902Z" fill="white" fill-opacity="0.439216"/>
<path d="M100.002 108.002C104.421 108.002 108.002 104.42 108.002 100.002C108.002 95.5834 104.421 92.0017 100.002 92.0017C95.5842 92.0017 92.0024 95.5834 92.0024 100.002C92.0024 104.42 95.5842 108.002 100.002 108.002Z" fill="white" stroke="black" stroke-width="2"/>
<path d="M92.0024 100H108.002Z" fill="black"/>
<path d="M92.0024 100H108.002" stroke="black" stroke-width="2"/>
<path d="M100.002 103.002C101.659 103.002 103.002 101.659 103.002 100.002C103.002 98.3456 101.659 97.0024 100.002 97.0024C98.3456 97.0024 97.0024 98.3456 97.0024 100.002C97.0024 101.659 98.3456 103.002 100.002 103.002Z" fill="white" stroke="black"/>
</svg>
