<svg width="162" height="161" viewBox="0 0 162 161" fill="none" xmlns="http://www.w3.org/2000/svg">
<path fill-rule="evenodd" clip-rule="evenodd" d="M75.9613 1.58438C75.2263 1.96838 74.2823 2.73162 73.8638 3.28062C73.3066 4.01111 71.5391 8.66658 67.2711 20.6447C64.0639 29.6462 61.4067 37.0459 61.3664 37.0889C61.3262 37.1319 54.012 34.1164 45.1123 30.3882C30.1489 24.1195 28.8196 23.609 27.4429 23.6025C23.6684 23.5845 20.6809 26.808 21.0609 30.4889C21.1667 31.5137 22.7382 34.9619 28.8236 47.5233C33.0201 56.1857 36.4901 63.4237 36.5348 63.6077C36.5906 63.8377 31.5791 66.0014 20.4929 70.5341C11.6253 74.1599 3.93081 77.4376 3.39407 77.8183C2.85732 78.1991 2.06908 79.1293 1.64233 79.8856C0.0553434 82.6976 0.895837 86.2318 3.58682 88.0623C4.86881 88.934 12.6825 91.6355 13.923 91.6355C17.1357 91.6355 20.017 89.0385 20.4337 85.7668L20.6162 84.3341L33.7411 78.9873C40.9598 76.0466 47.413 73.3894 48.0813 73.0824C50.6857 71.8861 52.347 68.8389 51.8005 66.2607C51.5787 65.2139 47.3885 56.2947 41.7761 44.9231C41.0738 43.4998 40.6378 42.3931 40.8076 42.4636C40.9773 42.5341 46.1223 44.6991 52.241 47.2748C63.9564 52.2065 64.9479 52.5178 66.9004 51.8753C68.2966 51.416 69.6076 50.481 70.3314 49.4285C70.6783 48.9238 72.7753 43.4103 74.9911 37.1766C77.2068 30.9429 79.1355 25.543 79.277 25.1767L79.5343 24.511L80.117 25.6487C81.2415 27.8442 83.0855 29.1374 85.3677 29.3314C89.1027 29.6489 92.2407 26.7785 92.2407 23.045C92.2407 21.6057 92 20.971 88.3412 12.7661C86.1965 7.95634 84.1128 3.60587 83.7108 3.09837C81.9675 0.897384 78.5533 0.230389 75.9613 1.58438ZM77.4893 1.85588C75.4108 2.53412 74.3126 3.62286 73.4901 5.8196C73.0846 6.90309 66.5029 25.3142 62.1469 37.5501L61.8659 38.3396L45.241 31.3682C32.9456 26.2122 28.3556 24.3957 27.6161 24.3927C24.3699 24.3797 21.9547 26.713 21.9247 29.8902C21.9117 31.2542 22.2257 31.9582 29.9066 47.7853C34.8976 58.0697 37.8016 64.3222 37.6341 64.4247C37.4868 64.5147 29.9974 67.5897 20.9912 71.2576C11.4233 75.1544 4.25656 78.2121 3.75107 78.6133C1.09509 80.7211 1.06558 84.9678 3.69207 87.1328C4.88431 88.1155 12.3448 90.6355 14.062 90.6355C16.1077 90.6355 17.9775 89.5345 18.9447 87.7605C19.1697 87.348 19.4127 86.292 19.485 85.4138L19.6162 83.8171L33.8609 78.0038C49.1277 71.7731 49.63 71.5154 50.5507 69.4336C51.577 67.1139 51.4817 66.8412 44.9093 53.286C41.6493 46.5626 39.0251 41.0186 39.0776 40.9661C39.1301 40.9136 44.7273 43.1963 51.5157 46.0388C62.1654 50.4983 64.0351 51.2073 65.1469 51.2073C66.8229 51.2073 68.5736 50.3625 69.4744 49.1191C69.9061 48.5228 71.8633 43.3891 74.7276 35.3399C77.2383 28.2839 79.3295 22.4717 79.3745 22.4237C79.4198 22.3757 79.9425 23.332 80.5363 24.5487C81.4345 26.3895 81.812 26.8922 82.785 27.5422C84.7668 28.8669 87.068 28.8764 89.0095 27.5679C90.661 26.4552 91.6815 24.1795 91.3787 22.2855C91.131 20.7362 83.5718 4.05436 82.7835 3.31737C81.3975 2.02163 79.0048 1.36113 77.4893 1.85588ZM105.866 21.2537C94.1232 23.418 84.6095 32.2629 81.611 43.8031C81.27 45.1161 80.9908 46.7308 80.9908 47.3911C80.9908 48.4246 81.0978 48.6813 81.76 49.2386L82.529 49.8858L90.1975 49.882C95.8287 49.8793 98.0296 49.7955 98.4831 49.566C99.1491 49.2291 99.4246 48.7663 100.232 46.6273C101.725 42.6758 105.843 39.7601 110.372 39.4481C113.892 39.2059 117.097 40.4376 119.616 43.0008C121.008 44.4181 121.799 45.7628 122.755 48.3351C123.31 49.8295 123.645 49.8858 131.99 49.8858C140.219 49.8858 140.647 49.8195 141.211 48.4566C141.44 47.9028 141.419 47.3163 141.112 45.6941C139.065 34.9036 131.193 25.8745 120.795 22.391C119.595 21.989 117.615 21.4857 116.394 21.273C113.724 20.8075 108.341 20.7975 105.866 21.2537ZM107.293 21.9037C101.783 22.6192 96.2217 25.1272 91.8177 28.8822C86.6087 33.3234 82.708 40.3591 81.8443 46.8703C81.5673 48.9583 81.3235 48.9028 90.44 48.8268L98.3467 48.7608L98.6329 48.1358C100.969 43.0348 102.244 41.5276 105.658 39.8364C107.679 38.8346 107.879 38.7879 110.569 38.6849C113.068 38.5891 113.565 38.6444 115.145 39.1939C119.033 40.5461 121.976 43.4136 123.14 46.9846C123.369 47.6866 123.669 48.4031 123.807 48.5768C124.001 48.8221 125.846 48.8778 132.059 48.8268C139.251 48.7676 140.088 48.7181 140.327 48.3388C140.668 47.7986 140.185 44.8036 139.331 42.1611C134.987 28.7197 121.325 20.0813 107.293 21.9037ZM108.075 41.6359C102.883 43.3366 99.8764 49.0113 101.464 54.113C103.977 62.1867 114.196 63.9872 119.296 57.2547C123.075 52.2658 121.133 44.7981 115.353 42.0933C113.164 41.0689 110.347 40.8919 108.075 41.6359ZM109.241 42.2334C101.158 44.0306 99.2414 54.6445 106.193 59.1055C111.989 62.8242 119.685 58.9825 120.417 52.0053C120.681 49.4853 119.328 46.1423 117.335 44.3923C116.11 43.3166 114.333 42.4746 112.622 42.1581C110.906 41.8408 111.017 41.8384 109.241 42.2334ZM82.3658 52.872C81.2025 53.3483 80.9078 54.0158 81.0643 55.8207C81.4033 59.7355 83.681 65.3139 86.5072 69.1522C92.9282 77.8721 103.304 82.6198 113.782 81.6318C125.422 80.5341 135.252 73.1496 139.568 62.2607C140.658 59.5122 141.589 55.1773 141.27 54.342C141.148 54.0223 140.798 53.5358 140.493 53.2608C139.962 52.7828 139.586 52.7608 131.97 52.7608H124.002L123.41 53.3858C123.084 53.7295 122.618 54.5733 122.373 55.2608C121.067 58.9332 117.656 62.0192 113.962 62.8707C112.314 63.2507 109.501 63.186 107.974 62.7327C103.974 61.5462 101.239 58.939 99.7714 54.915C98.9221 52.5863 99.1174 52.6328 90.3157 52.6515C86.2182 52.6603 82.6408 52.7595 82.3658 52.872ZM82.1148 54.137C81.6995 54.5958 81.6875 54.791 81.9745 56.4495C82.6285 60.2305 84.3587 64.4554 86.709 68.0107C88.2072 70.2771 92.1287 74.2004 94.3994 75.7044C100.095 79.4766 105.817 81.0938 112.474 80.8131C116.415 80.6466 119.37 79.9796 122.871 78.4661C129.599 75.5576 135.477 69.6699 138.399 62.9122C139.351 60.7105 140.49 56.5335 140.49 55.2465C140.49 53.6263 140.541 53.6358 131.99 53.6358C125.311 53.6358 124.223 53.6885 123.883 54.0285C123.667 54.2448 123.49 54.5573 123.49 54.7233C123.49 55.676 121.605 58.8172 120.175 60.247C113.558 66.8642 102.453 64.4654 99.1951 55.7155C98.8974 54.9155 98.5469 54.1203 98.4166 53.9483C98.2357 53.71 96.3252 53.6358 90.374 53.6358C82.8795 53.6358 82.5503 53.6558 82.1148 54.137ZM139.211 68.0839C135.639 69.9496 134.709 74.0706 137.054 77.6356L137.465 78.2606L125.218 83.2373C114.902 87.4288 112.822 88.3573 112.033 89.123C110.613 90.5013 110.116 91.707 110.116 93.7692V95.5282L115.78 107.019C118.896 113.339 121.418 118.538 121.385 118.572C121.353 118.605 115.992 116.385 109.471 113.638C96.8087 108.304 96.5487 108.223 94.1924 108.929C93.0442 109.273 91.1435 110.865 90.5805 111.953C90.3642 112.372 88.4997 117.843 86.4375 124.112C84.3753 130.381 82.6298 135.606 82.5588 135.723C82.4878 135.84 82.051 135.065 81.5883 134C80.5005 131.499 79.8338 130.651 78.2975 129.815C76.6288 128.907 75.1608 128.727 73.4663 129.223C70.7779 130.009 68.9129 132.465 68.8869 135.252C68.8739 136.648 69.1961 137.546 73.2076 147.297C75.8721 153.774 77.8213 158.172 78.266 158.712C80.0545 160.882 83.453 161.528 86.0202 160.187C88.4337 158.926 88.3535 159.112 94.4702 140.615C97.5354 131.345 100.07 123.731 100.103 123.695C100.136 123.659 107.648 126.781 116.797 130.632C132.346 137.178 133.529 137.635 134.932 137.635C137.68 137.635 140.309 135.658 141.011 133.062C141.681 130.588 141.641 130.487 133.141 113.26C128.799 104.46 125.245 97.1892 125.243 97.1022C125.242 97.015 125.437 96.8915 125.678 96.8277C125.918 96.764 133.428 93.7415 142.365 90.111C157.9 83.8011 158.667 83.4596 159.788 82.3498C162.316 79.8476 162.288 75.9716 159.723 73.4071C158.592 72.2759 158.343 72.1751 150.452 69.6647C142.233 67.0502 141.411 66.9344 139.211 68.0839ZM140.38 68.4944C136.923 69.7762 135.578 73.4074 137.393 76.5616C137.726 77.1396 138.243 77.7838 138.542 77.9933C138.841 78.2028 139.028 78.4311 138.959 78.5008C138.889 78.5703 133.271 80.8886 126.474 83.6526C119.677 86.4165 113.742 88.907 113.286 89.1875C111.559 90.2488 110.465 92.9327 110.98 94.8442C111.133 95.414 113.955 101.355 117.251 108.048C120.547 114.74 123.215 120.24 123.18 120.269C123.144 120.299 117.547 117.973 110.741 115.101C103.934 112.229 97.8874 109.755 97.3032 109.603C95.1419 109.04 92.5474 110.246 91.4272 112.333C91.08 112.981 88.9617 119.108 86.7202 125.95C84.4788 132.791 82.5673 138.304 82.4728 138.2C82.3783 138.095 81.8135 136.797 81.2175 135.315C79.9793 132.235 79.1923 131.148 77.662 130.408C73.9921 128.631 69.7409 131.282 69.7409 135.347C69.7409 136.362 70.4554 138.315 73.8603 146.607C78.4393 157.758 78.4558 157.794 79.2795 158.543C81.759 160.799 85.6242 160.456 87.5927 157.806C87.8805 157.419 90.7032 149.305 93.8657 139.776L99.6156 122.45L116.491 129.585C132.182 136.22 133.471 136.721 134.865 136.73C138.074 136.75 140.348 134.478 140.338 131.26C140.334 129.799 140.124 129.333 132.267 113.385C127.83 104.379 124.181 96.9215 124.157 96.8125C124.112 96.5972 124.229 96.5482 144.356 88.364C154.075 84.412 158.349 82.5553 158.958 82.0208C161.496 79.7918 161.303 75.4764 158.577 73.5566C157.453 72.7644 144.37 68.4472 142.49 68.2482C141.827 68.1779 140.961 68.2789 140.38 68.4944ZM43.9715 77.0236C34.4908 78.7403 26.1649 84.9663 21.9234 93.5105C20.269 96.8432 19.0027 101.076 18.995 103.301C18.992 104.158 19.1267 104.455 19.7605 104.988L20.5294 105.635H28.3516C37.4221 105.635 37.0208 105.742 37.9896 103.085C39.0616 100.144 40.8286 98.0747 43.4678 96.668C50.3317 93.0095 58.2644 96.3477 60.7192 103.927C61.2699 105.628 61.3094 105.635 69.9986 105.635C74.8531 105.635 77.9543 105.539 78.2545 105.378C78.5193 105.236 78.9113 104.781 79.126 104.366C79.48 103.681 79.4798 103.415 79.1225 101.508C76.7338 88.7613 66.3966 78.8081 53.568 76.9026C51.1415 76.5424 46.292 76.6034 43.9715 77.0236ZM45.366 77.6498C41.0936 78.2263 36.6711 79.9071 32.9374 82.3733C26.2067 86.8188 21.7444 93.4162 20.107 101.343C19.6477 103.567 19.7682 104.313 20.6394 104.644C20.9934 104.779 24.4469 104.885 28.4519 104.885C36.4596 104.885 36.4628 104.885 37.0021 103.197C37.6023 101.318 38.8321 99.3774 40.3391 97.9302C42.8635 95.5062 45.6405 94.3835 49.099 94.3885C54.6615 94.3967 59.2732 97.5767 61.1047 102.667C61.4879 103.732 61.8749 104.363 62.2719 104.569C62.7029 104.793 64.8569 104.879 70.1226 104.882C78.3803 104.886 78.4908 104.863 78.4908 103.149C78.4908 101.879 77.4543 97.9562 76.5271 95.7162C72.7783 86.6608 64.4164 79.8461 54.763 77.9791C52.3402 77.5106 47.623 77.3453 45.366 77.6498ZM46.741 97.229C42.9363 98.2765 40.0326 101.336 39.2118 105.163C38.4206 108.852 40.2198 113.249 43.3753 115.34C45.5253 116.764 47.073 117.195 49.6415 117.087C51.5812 117.005 52.1562 116.873 53.5387 116.192C55.5222 115.216 57.5064 113.195 58.4419 111.199C59.0399 109.923 59.1159 109.464 59.1159 107.135C59.1159 104.708 59.0569 104.388 58.3344 102.885C57.3464 100.831 56.1617 99.4784 54.4567 98.4584C52.0622 97.0262 49.158 96.5635 46.741 97.229ZM45.954 98.3492C44.1495 99.0769 42.5505 100.358 41.5185 101.904C40.2546 103.797 39.9038 105.167 40.0366 107.694C40.1283 109.441 40.2756 110.005 40.9888 111.344C42.7005 114.555 45.5243 116.232 49.247 116.25C51.1555 116.259 51.55 116.175 53.0232 115.45C60.1512 111.941 60.2347 102.354 53.1692 98.7127C51.4155 97.809 47.7515 97.6242 45.954 98.3492ZM20.3234 108.75C19.178 109.248 18.9015 109.932 19.0922 111.795C19.658 117.317 23.0427 123.959 27.6101 128.51C38.5203 139.382 55.2322 140.592 67.4394 131.394C73.7923 126.607 78.2885 119.058 79.3753 111.353C79.523 110.306 79.4673 110.117 78.785 109.353L78.0318 108.51H70.0316C62.0419 108.51 62.0304 108.511 61.4229 109.082C61.0884 109.396 60.6749 110.127 60.5042 110.707C60.0164 112.362 58.8852 114.148 57.4424 115.542C54.8225 118.072 52.3235 118.997 48.5163 118.844C46.3738 118.758 45.905 118.649 44.238 117.847C41.0246 116.302 39.0098 114.06 37.7641 110.644C36.9338 108.366 37.0046 108.383 28.3116 108.395C22.7622 108.403 20.9349 108.484 20.3234 108.75ZM20.1219 109.879C19.6972 110.348 19.6957 110.483 20.0905 112.641C21.4317 119.973 25.9524 126.935 32.2381 131.349C42.536 138.581 56.6517 138.385 66.7319 130.869C69.1136 129.093 72.2726 125.791 73.8168 123.463C76.0993 120.022 78.0558 114.974 78.4065 111.621C78.6498 109.297 78.9798 109.385 70.0119 109.385C61.5914 109.385 61.8242 109.345 61.3629 110.885C61.2599 111.229 60.8404 112.179 60.4307 112.995C58.1119 117.618 52.6235 120.444 47.4335 119.687C42.704 118.998 38.8378 115.892 37.1986 111.465C36.9023 110.665 36.4878 109.87 36.2778 109.698C35.9903 109.463 33.9924 109.385 28.2321 109.385C20.9194 109.385 20.5482 109.408 20.1219 109.879Z" fill="white"/>
<path fill-rule="evenodd" clip-rule="evenodd" d="M76.7536 2.60654C75.2911 3.23644 74.3076 4.40386 73.5319 6.43048C73.1364 7.46421 70.4187 15.0322 67.4924 23.2482C64.5662 31.4642 62.0875 38.2833 61.9842 38.4018C61.8807 38.5203 54.6148 35.6153 45.8376 31.9465C37.0604 28.2776 29.3337 25.1312 28.6672 24.9544C25.1925 24.0329 21.711 26.9708 22.0547 30.5343C22.144 31.4592 23.9602 35.4089 30.0869 48.0016C34.4414 56.9511 38.0009 64.3418 37.9971 64.4252C37.9936 64.5088 30.4022 67.6513 21.1273 71.4085C2.71263 78.8682 2.97938 78.732 2.13989 81.1029C1.65389 82.4758 1.65389 83.2774 2.13989 84.6503C2.90838 86.821 3.82513 87.4233 8.95234 89.1253C12.8796 90.4286 13.7286 90.6318 14.6993 90.4991C17.4405 90.1251 19.3445 88.0044 19.4198 85.2418L19.4605 83.748L33.8169 77.8972C41.7129 74.6793 48.4673 71.8512 48.8268 71.6124C49.1863 71.3739 49.7948 70.6457 50.1788 69.9941C50.7405 69.0413 50.8743 68.518 50.8633 67.316C50.8503 65.8841 50.5983 65.306 44.7968 53.3993C41.4676 46.5668 38.7869 40.9336 38.8399 40.881C38.8926 40.8285 44.4811 43.1013 51.2588 45.9319C58.0365 48.7624 64.0437 51.1301 64.6079 51.1936C67.0882 51.472 69.3344 50.0317 70.2657 47.5656C71.0004 45.6204 79.2536 22.5697 79.2536 22.4629C79.2536 22.4156 79.3378 22.3773 79.4411 22.3778C79.5443 22.3783 79.9598 23.1635 80.3648 24.1226C81.2796 26.2899 82.1896 27.4095 83.5823 28.0807C86.4118 29.4448 90.0273 27.9368 91.0058 24.9845C91.643 23.0612 91.3118 21.9986 87.2815 13.0404C85.1243 8.24523 83.1818 4.26494 82.8011 3.85936C81.3673 2.33268 78.6816 1.77623 76.7536 2.60654ZM77.0176 5.38456C76.3821 5.96939 75.3729 8.59528 70.1034 23.3727C66.7097 32.8896 63.7627 40.8723 63.5547 41.1118C63.3465 41.3513 62.9852 41.5475 62.7517 41.5475C62.5185 41.5475 55.1953 38.5673 46.4781 34.9251C26.7035 26.6623 27.7767 27.0724 26.7005 27.3684C25.3387 27.7428 24.6257 28.6747 24.6467 30.0528C24.662 31.0542 25.7972 33.5371 32.8342 47.959C37.3274 57.1679 41.0021 64.8985 41.0001 65.138C40.9979 65.3772 40.9101 65.7081 40.8049 65.8732C40.6996 66.038 32.7419 69.3697 23.1212 73.2768C10.2651 78.498 5.48062 80.5497 5.06837 81.018C3.97888 82.2564 4.02962 83.6897 5.20437 84.8537C5.68336 85.3282 7.0301 85.9031 9.84683 86.8355C14.2931 88.3074 14.95 88.3348 16.1415 87.0962C16.904 86.3037 17.0213 85.4059 16.63 83.3606C16.513 82.7484 16.5638 82.3961 16.7948 82.2178C16.9785 82.0759 23.8227 79.2466 32.0039 75.9301C43.2371 71.3764 47.0623 69.7198 47.6288 69.1636C49.0461 67.7713 49.0583 67.8057 41.5169 52.3777C35.7246 40.5287 34.7342 38.342 34.9199 37.813C35.0649 37.3992 35.3577 37.1651 35.7929 37.1143C36.2116 37.0658 41.5141 39.1524 50.5023 42.9029C58.2325 46.1286 64.8319 48.7677 65.1677 48.7677C66.0119 48.7677 67.1774 48.1263 67.5479 47.4581C67.7179 47.1513 70.1827 40.4023 73.0251 32.4601C77.4956 19.9685 78.2794 17.9705 78.8313 17.6546C79.4051 17.3262 79.5188 17.3339 79.9586 17.7303C80.2276 17.9728 81.1573 19.7487 82.0246 21.6767C83.8383 25.7088 84.3341 26.2194 86.2455 26.025C87.0973 25.9383 87.5273 25.7274 88.058 25.1361C89.2513 23.8059 89.11 23.2679 85.3835 14.9552C81.3471 5.95171 81.1651 5.58772 80.4513 5.08978C79.5263 4.44469 77.8859 4.58536 77.0176 5.38456ZM105.378 22.634C102.861 23.161 100.007 24.1121 98.1285 25.0505C92.3068 27.9575 87.1968 33.1497 84.4843 38.9139C83.3593 41.305 82.2936 44.8322 82.0788 46.875C81.9476 48.1256 81.9931 48.3932 82.3868 48.68C82.7511 48.9452 84.4478 49.0166 90.3875 49.0166C98.9142 49.0166 98.2942 49.1668 99.1252 46.9004C101.258 41.0839 107.669 37.561 113.804 38.835C117.467 39.5958 121.084 42.4226 122.652 45.7501C123.144 46.7936 123.682 47.9274 123.847 48.2697L124.147 48.8921L131.942 48.9579L139.737 49.0236L140.129 48.4286C140.484 47.8878 140.484 47.6575 140.123 45.9159C138.901 40.0268 136.543 35.4624 132.576 31.3076C128.133 26.6546 122.424 23.5664 116.283 22.4938C113.334 21.9787 108.193 22.0447 105.378 22.634ZM106.216 25.0069C97.8992 26.5057 90.4278 32.307 86.7543 40.1177C85.8818 41.9728 84.7536 45.4088 84.7536 46.2107C84.7536 46.4572 86.0403 46.5269 90.6008 46.5269H96.448L97.3132 44.7219C99.3095 40.5574 102.982 37.6414 107.768 36.4202C109.949 35.8638 113.766 36.042 116.003 36.8049C119.835 38.1112 123.222 41.0429 124.908 44.512L125.878 46.51L131.691 46.5185C138.404 46.5282 137.901 46.7906 136.992 43.7519C134.112 34.1197 125.752 26.7216 115.783 24.983C113.21 24.5341 108.777 24.5453 106.216 25.0069ZM108.736 42.6201C106.135 43.3521 103.971 45.2168 102.793 47.7419C102.244 48.919 102.139 49.4969 102.134 51.3818C102.129 53.2994 102.225 53.828 102.798 55.0462C103.683 56.9267 105.402 58.7178 107.184 59.6163C108.494 60.2771 108.86 60.3448 111.128 60.3448C113.364 60.3448 113.78 60.2706 115.063 59.6432C116.891 58.7491 118.526 57.1211 119.424 55.3004C120.057 54.0167 120.127 53.6188 120.119 51.3818C120.108 48.3755 119.652 47.18 117.751 45.1783C115.496 42.8038 111.805 41.7564 108.736 42.6201ZM109.271 45.0742C108.015 45.4334 106.438 46.5974 105.697 47.7125C103.995 50.2747 104.169 53.3915 106.143 55.6878C110.113 60.3069 117.733 57.4789 117.745 51.3818C117.754 47.0171 113.514 43.8607 109.271 45.0742ZM82.4411 54.0159C81.3013 54.6772 82.6688 60.4523 85.0401 64.9916C87.1213 68.9753 90.8625 73.1941 94.4902 75.6475C101.391 80.3144 110.412 81.9181 118.368 79.8917C129.459 77.0666 138.002 68.0658 140.114 56.9802C140.516 54.8717 140.407 54.2037 139.615 53.9009C139.393 53.8163 135.924 53.7471 131.905 53.7471C126.446 53.7471 124.495 53.8257 124.189 54.0583C123.964 54.2296 123.541 55.0121 123.25 55.7976C120.955 61.9847 114.269 65.4776 107.887 63.8222C103.973 62.8071 99.9924 59.1318 99.0062 55.6241C98.4697 53.7157 98.6115 53.7461 90.2603 53.7545C85.7133 53.7593 82.7106 53.8596 82.4411 54.0159ZM84.7536 56.6366C84.7536 58.3991 86.6653 63.1044 88.5535 65.9892C95.966 77.3141 110.491 81.4321 122.68 75.6647C125.531 74.3158 127.534 72.9158 129.939 70.5919C132.333 68.2782 134.108 65.8274 135.499 62.9129C136.493 60.831 137.799 56.7713 137.587 56.4235C137.525 56.3207 134.865 56.2405 131.676 56.2452L125.878 56.2537L124.93 58.2061C123.21 61.7487 120.04 64.5364 116.205 65.8794C113.8 66.7217 110.133 66.9201 107.659 66.3415C103.327 65.3279 99.4217 62.2661 97.4782 58.36L96.4217 56.2368H90.5878C85.3978 56.2368 84.7536 56.2808 84.7536 56.6366ZM139.878 68.9084C136.409 70.508 135.653 75.3457 138.499 77.7309C138.948 78.1076 139.256 78.4758 139.182 78.5492C139.108 78.6227 133.272 81.0238 126.213 83.8847C114.603 88.5905 113.291 89.1795 112.458 90.0616C111.386 91.1977 110.892 92.7309 111.084 94.3292C111.178 95.1142 113.053 99.1585 117.347 107.836C120.717 114.648 123.363 120.222 123.227 120.222C123.09 120.222 117.331 117.843 110.428 114.935C98.086 109.734 97.8492 109.647 96.1102 109.644C94.5907 109.641 94.1937 109.739 93.288 110.336C92.7082 110.718 92.0123 111.39 91.741 111.829C91.4698 112.269 89.3173 118.421 86.9573 125.501C84.5976 132.58 82.5976 138.331 82.5133 138.279C82.4291 138.227 81.8578 136.933 81.2443 135.404C79.9113 132.082 78.8018 130.663 77.0834 130.08C74.9481 129.355 73.2551 129.71 71.5994 131.23C70.3194 132.405 69.5917 134.347 69.8727 135.839C69.9644 136.325 71.9331 141.312 74.2476 146.921C77.1329 153.912 78.6796 157.355 79.1673 157.872C81.3231 160.159 85.1046 160.092 87.1865 157.73C87.8765 156.948 88.7905 154.4 93.654 139.703C96.7692 130.29 99.4005 122.497 99.5012 122.385C99.602 122.274 107.209 125.344 116.406 129.208C134.414 136.772 134.708 136.87 136.869 136.049C138.172 135.553 139.569 134.104 140.002 132.8C140.716 130.644 140.628 130.425 132.04 113.054C127.62 104.114 124.003 96.7186 124.003 96.6203C124.003 96.5219 131.608 93.3627 140.903 89.6001C150.197 85.8371 158.121 82.533 158.512 82.2574C159.479 81.5745 160.432 80.0498 160.633 78.8642C160.984 76.798 159.748 74.1895 157.989 73.284C157.594 73.0804 154.103 71.9062 150.233 70.6751C142.691 68.2757 141.639 68.0962 139.878 68.9084ZM140.281 71.5634C139.02 72.62 138.93 74.6103 140.091 75.7663C140.403 76.077 141.405 76.5789 142.319 76.8816C144.027 77.4478 144.444 77.9027 144.137 78.8659C143.958 79.4264 144.829 79.0477 128.701 85.5822C121.592 88.4628 115.434 90.995 115.018 91.2094C114.163 91.6501 113.503 92.7411 113.503 93.7158C113.503 94.0768 116.657 100.76 120.512 108.569C125.38 118.429 127.473 122.914 127.365 123.251C126.936 124.599 126.934 124.599 111.505 118.126C103.483 114.76 96.5947 112.006 96.1987 112.006C95.299 112.006 94.1295 112.593 93.8592 113.18C93.7465 113.424 91.3985 120.291 88.6413 128.438L83.6286 143.252L82.8276 143.329C81.8161 143.426 81.8806 143.533 79.5323 137.889C77.8871 133.934 77.5131 133.235 76.7791 132.743C75.7329 132.041 74.8801 132.022 73.8011 132.677C72.8726 133.241 72.1439 134.691 72.3591 135.546C72.4374 135.855 74.3119 140.517 76.5251 145.904C81.0023 156.804 81.1596 157.07 83.1286 157.07C85.3331 157.07 85.0613 157.677 91.3693 138.646C98.2757 117.809 97.6577 119.509 98.3945 119.324C98.835 119.214 103.658 121.13 116.577 126.545C129.171 131.824 134.429 133.916 135.107 133.916C135.85 133.916 136.236 133.734 136.903 133.069C138.446 131.533 138.668 132.114 129.378 113.37C124.484 103.495 121.003 96.1851 121.003 95.7825C121.003 95.3401 121.189 94.9947 121.523 94.817C121.808 94.6649 129.754 91.4148 139.181 87.5946C148.608 83.7744 156.585 80.4768 156.907 80.2666C157.789 79.6908 158.326 78.484 158.139 77.4944C157.815 75.776 157.411 75.5651 149.831 73.161C145.956 71.9319 142.392 70.926 141.913 70.926C141.343 70.926 140.779 71.1464 140.281 71.5634ZM43.9176 78.0458C32.6792 80.068 23.4287 88.6662 20.6175 99.703C19.9433 102.35 19.8445 103.781 20.304 104.238C20.643 104.576 35.6489 104.675 36.1726 104.343C36.3344 104.241 36.7036 103.526 36.9934 102.755C39.5161 96.0399 46.7366 92.5382 53.3585 94.818C56.4923 95.8968 59.5012 98.6138 60.8075 101.544C61.2052 102.437 61.6697 103.448 61.8392 103.79L62.1477 104.413L69.9087 104.478C79.3093 104.558 78.7623 104.756 78.1481 101.491C75.8999 89.542 66.2837 80.1397 54.1575 78.0336C51.4373 77.5611 46.5788 77.5671 43.9176 78.0458ZM44.5803 80.4915C42.3764 80.9095 39.9244 81.6858 37.8529 82.6212C32.4037 85.082 27.2475 90.2524 24.6417 95.8689C23.8505 97.5743 22.754 100.979 22.754 101.731C22.754 101.978 24.0387 102.047 28.591 102.047H34.4279L35.3799 100.118C36.6686 97.5061 39.6186 94.5389 42.1904 93.2674C47.7036 90.5419 54.0863 91.2286 58.9692 95.0724C60.5315 96.3021 62.5347 98.926 63.2967 100.74L63.8457 102.047H69.7774H75.7094L75.3454 100.494C74.4779 96.7903 72.2171 92.5098 69.4189 89.2717C66.1777 85.5212 60.8667 82.2706 55.8788 80.9844C52.7793 80.1852 47.4253 79.9517 44.5803 80.4915ZM46.4233 98.2886C39.7851 100.475 37.8719 108.762 42.9096 113.507C44.9376 115.417 46.1106 115.861 49.1288 115.863C51.3178 115.865 51.806 115.783 53.0528 115.2C54.8695 114.352 56.6097 112.619 57.4612 110.81C58.0452 109.569 58.1287 109.08 58.1287 106.902C58.1287 104.687 58.0525 104.258 57.4377 103.012C55.4765 99.0358 50.558 96.9268 46.4233 98.2886ZM47.3451 100.576C45.9076 100.991 44.2073 102.356 43.4538 103.7C42.0374 106.228 42.3401 109.159 44.2396 111.309C45.6341 112.886 47.3371 113.582 49.485 113.451C51.3973 113.335 52.6038 112.82 53.837 111.591C55.0775 110.356 55.5885 109.16 55.7075 107.211C55.7958 105.767 55.7155 105.336 55.1418 104.168C53.6983 101.23 50.3785 99.7 47.3451 100.576ZM20.6918 109.439C20.0505 109.606 19.8923 110.625 20.2268 112.433C22.1172 122.65 29.7649 131.403 39.7579 134.788C42.9921 135.884 45.3863 136.251 49.2538 136.243C51.7473 136.239 53.503 136.101 54.8788 135.802C66.9037 133.191 75.6486 124.437 78.1291 112.528C78.5681 110.419 78.4638 109.833 77.5909 109.502C76.7961 109.201 63.231 109.194 62.4385 109.494C62.0042 109.658 61.7012 110.127 61.3315 111.205C58.3832 119.804 47.1603 122.61 40.5574 116.4C38.8146 114.761 37.7861 113.266 37.1071 111.386C36.7524 110.404 36.3629 109.784 35.9729 109.582C35.5384 109.357 33.4644 109.282 28.254 109.3C24.3352 109.314 20.9323 109.377 20.6918 109.439ZM22.754 112.194C22.754 112.434 22.9632 113.359 23.219 114.25C26.249 124.801 35.3984 132.449 46.4806 133.693C57.2405 134.902 68.3879 128.824 73.2174 119.116C74.2911 116.958 75.4106 113.838 75.5454 112.629L75.6286 111.882H69.7737H63.9187L62.9112 113.873C60.9457 117.759 57.1105 120.779 52.7585 121.867C50.3195 122.477 46.1818 122.249 43.9136 121.379C40.0754 119.908 37.0066 117.12 35.3094 113.562L34.4484 111.757H28.6012C23.195 111.757 22.754 111.79 22.754 112.194Z" fill="#47859F"/>
<path fill-rule="evenodd" clip-rule="evenodd" d="M106.216 25.0073C97.8991 26.5061 90.4277 32.3074 86.7542 40.1181C85.8817 41.9732 84.7535 45.4092 84.7535 46.2111C84.7535 46.4576 86.0402 46.5273 90.6007 46.5273H96.4479L97.3131 44.7223C99.3094 40.5578 102.982 37.6418 107.768 36.4206C109.949 35.8642 113.766 36.0424 116.003 36.8053C119.835 38.1116 123.222 41.0433 124.907 44.5124L125.878 46.5104L131.691 46.5189C138.404 46.5286 137.901 46.791 136.992 43.7523C134.112 34.1201 125.752 26.722 115.783 24.9834C113.21 24.5345 108.777 24.5457 106.216 25.0073ZM44.5803 80.4919C42.3763 80.9099 39.9243 81.6862 37.8528 82.6216C32.4036 85.0824 27.2474 90.2528 24.6416 95.8693C23.8504 97.5747 22.7539 100.98 22.7539 101.732C22.7539 101.978 24.0386 102.048 28.5909 102.048H34.4278L35.3798 100.118C36.6686 97.5065 39.6185 94.5393 42.1903 93.2678C47.7035 90.5423 54.0862 91.229 58.9692 95.0728C60.5314 96.3025 62.5346 98.9264 63.2966 100.741L63.8456 102.048H69.7773H75.7093L75.3453 100.495C74.4778 96.7907 72.2171 92.5102 69.4188 89.2721C66.1776 85.5216 60.8666 82.271 55.8787 80.9848C52.7792 80.1856 47.4252 79.9521 44.5803 80.4919Z" fill="#DA0534"/>
<path fill-rule="evenodd" clip-rule="evenodd" d="M77.0162 5.38484C76.3807 5.96968 75.3715 8.59557 70.102 23.373C66.7083 32.8899 63.7613 40.8726 63.5533 41.1121C63.345 41.3516 62.9838 41.5478 62.7503 41.5478C62.5171 41.5478 55.1939 38.5676 46.4767 34.9254C26.7021 26.6626 27.7753 27.0727 26.6991 27.3687C25.3373 27.7431 24.6243 28.675 24.6453 30.0531C24.6606 31.0544 25.7958 33.5374 32.8328 47.9593C37.326 57.1682 41.0007 64.8987 40.9987 65.1383C40.9965 65.3775 40.9087 65.7084 40.8035 65.8735C40.6982 66.0383 32.7405 69.37 23.1198 73.2771C10.2637 78.4982 5.4792 80.55 5.06696 81.0183C3.97746 82.2567 4.02821 83.69 5.20295 84.854C5.68195 85.3285 7.02869 85.9034 9.84542 86.8358C14.2916 88.3077 14.9486 88.3351 16.1401 87.0964C16.9026 86.304 17.0199 85.4062 16.6286 83.3609C16.5116 82.7487 16.5624 82.3964 16.7934 82.2181C16.9771 82.0762 23.8213 79.2469 32.0025 75.9304C43.2357 71.3767 47.0609 69.72 47.6274 69.1638C49.0446 67.7716 49.0569 67.806 41.5155 52.378C35.7232 40.529 34.7327 38.3423 34.9185 37.8132C35.0635 37.3995 35.3562 37.1654 35.7915 37.1146C36.2102 37.0661 41.5127 39.1527 50.5009 42.9032C58.2311 46.1289 64.8305 48.7679 65.1663 48.7679C66.0105 48.7679 67.176 48.1266 67.5465 47.4584C67.7165 47.1516 70.1812 40.4025 73.0237 32.4604C77.4942 19.9688 78.2779 17.9708 78.8299 17.6549C79.4037 17.3265 79.5174 17.3342 79.9572 17.7305C80.2262 17.973 81.1559 19.7489 82.0232 21.677C83.8369 25.709 84.3326 26.2197 86.2441 26.0252C87.0959 25.9386 87.5259 25.7277 88.0566 25.1364C89.2499 23.8062 89.1086 23.2681 85.3821 14.9555C81.3457 5.952 81.1637 5.588 80.4499 5.09006C79.5249 4.44498 77.8844 4.58565 77.0162 5.38484ZM109.939 22.0626C110.661 22.1129 111.842 22.1129 112.564 22.0626C113.286 22.0123 112.696 21.9713 111.252 21.9713C109.808 21.9713 109.217 22.0123 109.939 22.0626ZM131.877 30.5931C132.832 31.5516 133.67 32.3359 133.738 32.3359C133.807 32.3359 133.082 31.5516 132.127 30.5931C131.172 29.6346 130.334 28.8503 130.265 28.8503C130.197 28.8503 130.922 29.6346 131.877 30.5931ZM90.1176 30.6553L88.8771 31.9624L90.1896 30.727C90.9113 30.0474 91.5021 29.4593 91.5021 29.4199C91.5021 29.234 91.2706 29.4409 90.1176 30.6553ZM110.196 38.7427C110.784 38.7954 111.684 38.7947 112.196 38.7412C112.708 38.6876 112.227 38.6446 111.127 38.6455C110.027 38.6463 109.608 38.6901 110.196 38.7427ZM109.27 45.0745C108.014 45.4337 106.437 46.5977 105.696 47.7128C103.994 50.275 104.168 53.3918 106.141 55.6881C110.111 60.3072 117.732 57.4792 117.744 51.3821C117.753 47.0174 113.512 43.861 109.27 45.0745ZM120.327 51.5066C120.327 52.2598 120.374 52.5677 120.431 52.1913C120.488 51.8148 120.488 51.1984 120.431 50.8219C120.374 50.4455 120.327 50.7535 120.327 51.5066ZM84.7521 56.6369C84.7521 58.3994 86.6639 63.1047 88.5521 65.9895C95.9646 77.3144 110.489 81.4324 122.678 75.665C125.53 74.316 127.533 72.9161 129.938 70.5922C132.332 68.2785 134.106 65.8276 135.498 62.9132C136.491 60.8313 137.798 56.7716 137.586 56.4238C137.524 56.321 134.863 56.2408 131.675 56.2455L125.877 56.254L124.929 58.2064C123.209 61.749 120.039 64.5367 116.204 65.8797C113.798 66.722 110.131 66.9204 107.658 66.3418C103.326 65.3282 99.4203 62.2664 97.4768 58.3603L96.4203 56.2371H90.5864C85.3964 56.2371 84.7521 56.2811 84.7521 56.6369ZM110.568 60.6483C110.948 60.7053 111.51 60.7038 111.818 60.6448C112.125 60.5858 111.814 60.539 111.127 60.5408C110.439 60.5428 110.188 60.591 110.568 60.6483ZM90.1271 72.1712C90.9436 72.9928 91.6676 73.665 91.7363 73.665C91.8051 73.665 91.1936 72.9928 90.3771 72.1712C89.5606 71.3496 88.8366 70.6773 88.7679 70.6773C88.6991 70.6773 89.3106 71.3496 90.1271 72.1712ZM140.28 71.5637C139.019 72.6203 138.929 74.6106 140.089 75.7665C140.401 76.0773 141.404 76.5792 142.317 76.8819C144.025 77.4481 144.442 77.903 144.135 78.8662C143.957 79.4267 144.827 79.048 128.7 85.5825C121.59 88.463 115.433 90.9953 115.017 91.2097C114.161 91.6504 113.502 92.7413 113.502 93.7161C113.502 94.0771 116.656 100.761 120.51 108.569C125.378 118.429 127.471 122.914 127.364 123.252C126.934 124.6 126.933 124.599 111.504 118.126C103.481 114.76 96.5933 112.006 96.1973 112.006C95.2976 112.006 94.1281 112.593 93.8578 113.18C93.7451 113.425 91.3971 120.291 88.6399 128.438L83.6272 143.252L82.8262 143.329C81.8147 143.427 81.8792 143.533 79.5309 137.889C77.8857 133.934 77.5117 133.236 76.7777 132.743C75.7315 132.041 74.8787 132.022 73.7997 132.677C72.8712 133.241 72.1425 134.691 72.3577 135.546C72.436 135.856 74.3105 140.517 76.5237 145.905C81.0009 156.804 81.1582 157.07 83.1272 157.07C85.3316 157.07 85.0599 157.678 91.3678 138.646C98.2743 117.809 97.6563 119.509 98.3931 119.325C98.8335 119.215 103.657 121.13 116.576 126.545C129.17 131.824 134.428 133.916 135.106 133.916C135.848 133.916 136.235 133.734 136.902 133.069C138.445 131.533 138.667 132.115 129.377 113.37C124.483 103.495 121.002 96.1854 121.002 95.7828C121.002 95.3404 121.188 94.995 121.521 94.8173C121.807 94.6651 129.753 91.4151 139.18 87.5949C148.607 83.7747 156.583 80.4771 156.905 80.2669C157.788 79.6911 158.324 78.4843 158.138 77.4946C157.814 75.7762 157.409 75.5654 149.83 73.1613C145.954 71.9321 142.391 70.9263 141.912 70.9263C141.341 70.9263 140.777 71.1466 140.28 71.5637ZM48.0724 77.5828C48.7296 77.6343 49.7421 77.6336 50.3224 77.5815C50.9026 77.5292 50.3649 77.4872 49.1274 77.4879C47.8899 77.4887 47.4152 77.5315 48.0724 77.5828ZM70.0022 86.238C70.888 87.1281 71.669 87.8563 71.7377 87.8563C71.8065 87.8563 71.138 87.1281 70.2522 86.238C69.3665 85.3479 68.5855 84.6197 68.5168 84.6197C68.448 84.6197 69.1165 85.3479 70.0022 86.238ZM48.1844 94.2603C48.6281 94.3153 49.4156 94.3161 49.9344 94.2623C50.4529 94.2083 50.0899 94.1635 49.1274 94.1622C48.1649 94.1612 47.7404 94.2053 48.1844 94.2603ZM40.0025 97.9396C39.3952 98.5558 38.9547 99.06 39.0235 99.06C39.0922 99.06 39.6452 98.5558 40.2525 97.9396C40.8597 97.3234 41.3002 96.8192 41.2314 96.8192C41.1627 96.8192 40.6097 97.3234 40.0025 97.9396ZM47.3437 100.576C45.9062 100.991 44.2059 102.356 43.4524 103.701C42.0359 106.228 42.3387 109.16 44.2382 111.309C45.6327 112.887 47.3357 113.582 49.4836 113.452C51.3959 113.335 52.6024 112.82 53.8356 111.591C55.0761 110.356 55.5871 109.16 55.7061 107.212C55.7944 105.768 55.7141 105.336 55.1404 104.168C53.6969 101.23 50.3771 99.7003 47.3437 100.576ZM24.7056 104.724C26.8108 104.765 30.1858 104.765 32.2055 104.724C34.225 104.682 32.5025 104.648 28.3775 104.648C24.2526 104.648 22.6001 104.682 24.7056 104.724ZM66.4553 104.724C68.5605 104.765 71.9355 104.765 73.9552 104.724C75.9747 104.682 74.2522 104.648 70.1272 104.648C66.0023 104.648 64.3498 104.682 66.4553 104.724ZM58.3298 106.903C58.3311 107.724 58.3778 108.03 58.4336 107.583C58.4891 107.135 58.4881 106.463 58.4311 106.089C58.3738 105.715 58.3283 106.081 58.3298 106.903ZM22.7526 112.194C22.7526 112.434 22.9618 113.359 23.2176 114.25C26.2476 124.801 35.397 132.449 46.4792 133.694C57.2391 134.902 68.3865 128.825 73.216 119.117C74.2897 116.958 75.4092 113.838 75.544 112.629L75.6272 111.882H69.7722H63.9173L62.9098 113.874C60.9443 117.76 57.1091 120.779 52.7571 121.867C50.3181 122.477 46.1804 122.249 43.9122 121.379C40.074 119.908 37.0052 117.12 35.308 113.562L34.447 111.757H28.5998C23.1936 111.757 22.7526 111.79 22.7526 112.194ZM48.4444 116.17C48.8936 116.226 49.5686 116.225 49.9444 116.168C50.3201 116.111 49.9524 116.066 49.1274 116.067C48.3024 116.068 47.9952 116.115 48.4444 116.17ZM28.1275 127.692C29.0825 128.65 29.9203 129.434 29.989 129.434C30.0578 129.434 29.3325 128.65 28.3775 127.692C27.4225 126.733 26.5848 125.949 26.5161 125.949C26.4473 125.949 27.1726 126.733 28.1275 127.692Z" fill="white"/>
</svg>
