<svg width="160" height="160" viewBox="0 0 160 160" fill="none" xmlns="http://www.w3.org/2000/svg">
<path d="M80.1539 151C118.389 151 149.385 118.764 149.385 79C149.385 39.2355 118.389 7 80.1539 7C41.9188 7 10.9231 39.2355 10.9231 79C10.9231 118.764 41.9188 151 80.1539 151Z" stroke="black" stroke-width="5.76923"/>
<path d="M80.1539 7C98.515 7 116.124 14.5857 129.107 28.0883C142.091 41.5909 149.385 59.9044 149.385 79H10.9231C10.9231 59.9044 18.217 41.5909 31.2003 28.0883C44.1836 14.5857 61.7927 7 80.1539 7Z" fill="#FF3E3E"/>
<path d="M10.9231 79C10.9231 98.0956 18.217 116.409 31.2003 129.912C44.1836 143.414 61.7927 151 80.1539 151C98.515 151 116.124 143.414 129.107 129.912C142.091 116.409 149.385 98.0956 149.385 79H10.9231Z" fill="white"/>
<path opacity="0.3" d="M10.9231 79C10.9231 98.0956 18.217 116.409 31.2003 129.912C44.1836 143.414 61.7927 151 80.1539 151C98.515 151 116.124 143.414 129.107 129.912C142.091 116.409 149.385 98.0956 149.385 79H10.9231Z" fill="#DDDDDD"/>
<mask id="mask0_77_2587" style="mask-type:luminance" maskUnits="userSpaceOnUse" x="10" y="7" width="140" height="72">
<path d="M80.1539 7C98.515 7 116.124 14.5857 129.107 28.0883C142.091 41.5909 149.385 59.9044 149.385 79H10.9231C10.9231 59.9044 18.217 41.5909 31.2003 28.0883C44.1836 14.5857 61.7927 7 80.1539 7Z" fill="white"/>
</mask>
<g mask="url(#mask0_77_2587)">
<path opacity="0.8" d="M41.6924 63C54.4374 63 64.7693 52.2548 64.7693 39C64.7693 25.7452 54.4374 15 41.6924 15C28.9474 15 18.6155 25.7452 18.6155 39C18.6155 52.2548 28.9474 63 41.6924 63Z" fill="white"/>
</g>
<path d="M149.385 71.0002H10.9231V87.0002H149.385V71.0002Z" fill="#333333"/>
<path d="M80.1538 103C92.8989 103 103.231 92.2548 103.231 79C103.231 65.7452 92.8989 55 80.1538 55C67.4088 55 57.0769 65.7452 57.0769 79C57.0769 92.2548 67.4088 103 80.1538 103Z" fill="#333333"/>
<path d="M80.1539 94.9998C88.6506 94.9998 95.5385 87.8363 95.5385 78.9998C95.5385 70.1632 88.6506 62.9998 80.1539 62.9998C71.6572 62.9998 64.7693 70.1632 64.7693 78.9998C64.7693 87.8363 71.6572 94.9998 80.1539 94.9998Z" fill="white"/>
<path d="M80.1539 91C86.5265 91 91.6924 85.6274 91.6924 79C91.6924 72.3726 86.5265 67 80.1539 67C73.7814 67 68.6155 72.3726 68.6155 79C68.6155 85.6274 73.7814 91 80.1539 91Z" stroke="black" stroke-width="1.92308"/>
<path d="M80.1537 87.0002C84.4021 87.0002 87.846 83.4185 87.846 79.0002C87.846 74.582 84.4021 71.0002 80.1537 71.0002C75.9054 71.0002 72.4614 74.582 72.4614 79.0002C72.4614 83.4185 75.9054 87.0002 80.1537 87.0002Z" fill="white"/>
</svg>
