<svg width="160" height="160" viewBox="0 0 160 160" fill="none" xmlns="http://www.w3.org/2000/svg">
<path d="M141.111 2.22217H18.8888C9.68409 2.22217 2.22217 9.68409 2.22217 18.8888V141.111C2.22217 150.316 9.68409 157.778 18.8888 157.778H141.111C150.316 157.778 157.778 150.316 157.778 141.111V18.8888C157.778 9.68409 150.316 2.22217 141.111 2.22217Z" stroke="white" stroke-width="3.33333"/>
<path d="M80 2.22217V157.778" stroke="white" stroke-width="2.22222"/>
<path d="M2.22217 80H157.778" stroke="white" stroke-width="2.22222"/>
<path d="M119.058 104.625V128.625" stroke="#4CAF50" stroke-width="4.8"/>
<path d="M107.058 116.625H131.058" stroke="#4CAF50" stroke-width="4.8"/>
<path d="M41.0577 143.625C55.3959 143.625 67.0193 131.537 67.0193 116.625C67.0193 101.713 55.3959 89.625 41.0577 89.625C26.7196 89.625 15.0962 101.713 15.0962 116.625C15.0962 131.537 26.7196 143.625 41.0577 143.625Z" stroke="black" stroke-width="2.16346"/>
<path d="M41.0577 89.625C47.9432 89.625 54.5466 92.4696 59.4153 97.5331C64.284 102.597 67.0193 109.464 67.0193 116.625H15.0962C15.0962 109.464 17.8314 102.597 22.7001 97.5331C27.5689 92.4696 34.1723 89.625 41.0577 89.625Z" fill="#FF3E3E"/>
<path d="M15.0962 116.625C15.0962 123.786 17.8314 130.653 22.7001 135.717C27.5689 140.78 34.1723 143.625 41.0577 143.625C47.9432 143.625 54.5466 140.78 59.4153 135.717C64.284 130.653 67.0193 123.786 67.0193 116.625H15.0962Z" fill="white"/>
<path opacity="0.3" d="M15.0962 116.625C15.0962 123.786 17.8314 130.653 22.7001 135.717C27.5689 140.78 34.1723 143.625 41.0577 143.625C47.9432 143.625 54.5466 140.78 59.4153 135.717C64.284 130.653 67.0193 123.786 67.0193 116.625H15.0962Z" fill="#DDDDDD"/>
<mask id="mask0_88_2647" style="mask-type:luminance" maskUnits="userSpaceOnUse" x="15" y="89" width="53" height="28">
<path d="M41.0577 89.625C47.9432 89.625 54.5466 92.4696 59.4153 97.5331C64.284 102.597 67.0193 109.464 67.0193 116.625H15.0962C15.0962 109.464 17.8314 102.597 22.7001 97.5331C27.5689 92.4696 34.1723 89.625 41.0577 89.625Z" fill="white"/>
</mask>
<g mask="url(#mask0_88_2647)">
<path opacity="0.8" d="M26.6346 110.625C31.4139 110.625 35.2884 106.596 35.2884 101.625C35.2884 96.6544 31.4139 92.625 26.6346 92.625C21.8552 92.625 17.9807 96.6544 17.9807 101.625C17.9807 106.596 21.8552 110.625 26.6346 110.625Z" fill="white"/>
</g>
<path d="M67.0193 113.625H15.0962V119.625H67.0193V113.625Z" fill="#333333"/>
<path d="M41.0577 125.625C45.837 125.625 49.7115 121.596 49.7115 116.625C49.7115 111.654 45.837 107.625 41.0577 107.625C36.2783 107.625 32.4038 111.654 32.4038 116.625C32.4038 121.596 36.2783 125.625 41.0577 125.625Z" fill="#333333"/>
<path d="M41.0577 122.625C44.2439 122.625 46.8269 119.939 46.8269 116.625C46.8269 113.311 44.2439 110.625 41.0577 110.625C37.8714 110.625 35.2885 113.311 35.2885 116.625C35.2885 119.939 37.8714 122.625 41.0577 122.625Z" fill="white"/>
<path d="M41.0578 121.125C43.4475 121.125 45.3847 119.11 45.3847 116.625C45.3847 114.14 43.4475 112.125 41.0578 112.125C38.6681 112.125 36.7308 114.14 36.7308 116.625C36.7308 119.11 38.6681 121.125 41.0578 121.125Z" stroke="black" stroke-width="0.721154"/>
<path d="M41.0577 119.625C42.6508 119.625 43.9423 118.282 43.9423 116.625C43.9423 114.968 42.6508 113.625 41.0577 113.625C39.4646 113.625 38.1731 114.968 38.1731 116.625C38.1731 118.282 39.4646 119.625 41.0577 119.625Z" fill="white"/>
<path d="M41.0577 68.625C55.3959 68.625 67.0193 56.5367 67.0193 41.625C67.0193 26.7133 55.3959 14.625 41.0577 14.625C26.7196 14.625 15.0962 26.7133 15.0962 41.625C15.0962 56.5367 26.7196 68.625 41.0577 68.625Z" stroke="black" stroke-width="2.16346"/>
<path d="M41.0577 14.625C47.9432 14.625 54.5466 17.4696 59.4153 22.5331C64.284 27.5966 67.0193 34.4642 67.0193 41.625H15.0962C15.0962 34.4642 17.8314 27.5966 22.7001 22.5331C27.5689 17.4696 34.1723 14.625 41.0577 14.625Z" fill="#FF3E3E"/>
<path d="M15.0962 41.625C15.0962 48.7858 17.8314 55.6534 22.7001 60.7169C27.5689 65.7804 34.1723 68.625 41.0577 68.625C47.9432 68.625 54.5466 65.7804 59.4153 60.7169C64.284 55.6534 67.0193 48.7858 67.0193 41.625H15.0962Z" fill="white"/>
<path opacity="0.3" d="M15.0962 41.625C15.0962 48.7858 17.8314 55.6534 22.7001 60.7169C27.5689 65.7804 34.1723 68.625 41.0577 68.625C47.9432 68.625 54.5466 65.7804 59.4153 60.7169C64.284 55.6534 67.0193 48.7858 67.0193 41.625H15.0962Z" fill="#DDDDDD"/>
<mask id="mask1_88_2647" style="mask-type:luminance" maskUnits="userSpaceOnUse" x="15" y="14" width="53" height="28">
<path d="M41.0577 14.625C47.9432 14.625 54.5466 17.4696 59.4153 22.5331C64.284 27.5966 67.0193 34.4642 67.0193 41.625H15.0962C15.0962 34.4642 17.8314 27.5966 22.7001 22.5331C27.5689 17.4696 34.1723 14.625 41.0577 14.625Z" fill="white"/>
</mask>
<g mask="url(#mask1_88_2647)">
<path opacity="0.8" d="M26.6346 35.625C31.4139 35.625 35.2884 31.5956 35.2884 26.625C35.2884 21.6544 31.4139 17.625 26.6346 17.625C21.8552 17.625 17.9807 21.6544 17.9807 26.625C17.9807 31.5956 21.8552 35.625 26.6346 35.625Z" fill="white"/>
</g>
<path d="M67.0193 38.625H15.0962V44.625H67.0193V38.625Z" fill="#333333"/>
<path d="M41.0577 50.625C45.837 50.625 49.7115 46.5956 49.7115 41.625C49.7115 36.6544 45.837 32.625 41.0577 32.625C36.2783 32.625 32.4038 36.6544 32.4038 41.625C32.4038 46.5956 36.2783 50.625 41.0577 50.625Z" fill="#333333"/>
<path d="M41.0577 47.625C44.2439 47.625 46.8269 44.9387 46.8269 41.625C46.8269 38.3113 44.2439 35.625 41.0577 35.625C37.8714 35.625 35.2885 38.3113 35.2885 41.625C35.2885 44.9387 37.8714 47.625 41.0577 47.625Z" fill="white"/>
<path d="M41.0578 46.125C43.4475 46.125 45.3847 44.1103 45.3847 41.625C45.3847 39.1397 43.4475 37.125 41.0578 37.125C38.6681 37.125 36.7308 39.1397 36.7308 41.625C36.7308 44.1103 38.6681 46.125 41.0578 46.125Z" stroke="black" stroke-width="0.721154"/>
<path d="M41.0577 44.625C42.6508 44.625 43.9423 43.2819 43.9423 41.625C43.9423 39.9681 42.6508 38.625 41.0577 38.625C39.4646 38.625 38.1731 39.9681 38.1731 41.625C38.1731 43.2819 39.4646 44.625 41.0577 44.625Z" fill="white"/>
<path d="M119.058 68.625C133.396 68.625 145.019 56.5367 145.019 41.625C145.019 26.7133 133.396 14.625 119.058 14.625C104.72 14.625 93.0962 26.7133 93.0962 41.625C93.0962 56.5367 104.72 68.625 119.058 68.625Z" stroke="black" stroke-width="2.16346"/>
<path d="M119.058 14.625C125.943 14.625 132.547 17.4696 137.415 22.5331C142.284 27.5966 145.019 34.4642 145.019 41.625H93.0962C93.0962 34.4642 95.8314 27.5966 100.7 22.5331C105.569 17.4696 112.172 14.625 119.058 14.625Z" fill="#FF3E3E"/>
<path d="M93.0962 41.625C93.0962 48.7858 95.8314 55.6534 100.7 60.7169C105.569 65.7804 112.172 68.625 119.058 68.625C125.943 68.625 132.547 65.7804 137.415 60.7169C142.284 55.6534 145.019 48.7858 145.019 41.625H93.0962Z" fill="white"/>
<path opacity="0.3" d="M93.0962 41.625C93.0962 48.7858 95.8314 55.6534 100.7 60.7169C105.569 65.7804 112.172 68.625 119.058 68.625C125.943 68.625 132.547 65.7804 137.415 60.7169C142.284 55.6534 145.019 48.7858 145.019 41.625H93.0962Z" fill="#DDDDDD"/>
<mask id="mask2_88_2647" style="mask-type:luminance" maskUnits="userSpaceOnUse" x="93" y="14" width="53" height="28">
<path d="M119.058 14.625C125.943 14.625 132.547 17.4696 137.415 22.5331C142.284 27.5966 145.019 34.4642 145.019 41.625H93.0962C93.0962 34.4642 95.8314 27.5966 100.7 22.5331C105.569 17.4696 112.172 14.625 119.058 14.625Z" fill="white"/>
</mask>
<g mask="url(#mask2_88_2647)">
<path opacity="0.8" d="M104.635 35.625C109.414 35.625 113.288 31.5956 113.288 26.625C113.288 21.6544 109.414 17.625 104.635 17.625C99.8552 17.625 95.9807 21.6544 95.9807 26.625C95.9807 31.5956 99.8552 35.625 104.635 35.625Z" fill="white"/>
</g>
<path d="M145.019 38.625H93.0962V44.625H145.019V38.625Z" fill="#333333"/>
<path d="M119.058 50.625C123.837 50.625 127.712 46.5956 127.712 41.625C127.712 36.6544 123.837 32.625 119.058 32.625C114.278 32.625 110.404 36.6544 110.404 41.625C110.404 46.5956 114.278 50.625 119.058 50.625Z" fill="#333333"/>
<path d="M119.058 47.625C122.244 47.625 124.827 44.9387 124.827 41.625C124.827 38.3113 122.244 35.625 119.058 35.625C115.871 35.625 113.288 38.3113 113.288 41.625C113.288 44.9387 115.871 47.625 119.058 47.625Z" fill="white"/>
<path d="M119.058 46.125C121.447 46.125 123.385 44.1103 123.385 41.625C123.385 39.1397 121.447 37.125 119.058 37.125C116.668 37.125 114.731 39.1397 114.731 41.625C114.731 44.1103 116.668 46.125 119.058 46.125Z" stroke="black" stroke-width="0.721154"/>
<path d="M119.058 44.625C120.651 44.625 121.942 43.2819 121.942 41.625C121.942 39.9681 120.651 38.625 119.058 38.625C117.465 38.625 116.173 39.9681 116.173 41.625C116.173 43.2819 117.465 44.625 119.058 44.625Z" fill="white"/>
</svg>
