<svg width="202" height="200" viewBox="0 0 202 200" fill="none" xmlns="http://www.w3.org/2000/svg">
<path fill-rule="evenodd" clip-rule="evenodd" d="M95.9276 28.7443C95.2672 29.0894 94.4189 29.7752 94.0429 30.2685C93.5422 30.9249 91.954 35.1081 88.119 45.8711C85.2371 53.9594 82.8494 60.6085 82.8133 60.6471C82.7771 60.6857 76.2049 57.9762 68.208 54.6261C54.7626 48.9934 53.5682 48.5347 52.3311 48.5288C48.9396 48.5126 46.2551 51.4091 46.5966 54.7167C46.6916 55.6375 48.1037 58.7359 53.5718 70.023C57.3426 77.8067 60.4605 84.3104 60.5007 84.4757C60.5508 84.6824 56.0477 86.6266 46.0862 90.6995C38.1181 93.9574 31.2042 96.9026 30.7219 97.2448C30.2396 97.5869 29.5313 98.4228 29.1479 99.1023C27.7219 101.629 28.4771 104.805 30.8951 106.449C32.0471 107.233 39.0681 109.66 40.1827 109.66C43.0696 109.66 45.6585 107.327 46.033 104.387L46.197 103.099L57.9904 98.2952C64.4768 95.6528 70.2754 93.2651 70.8758 92.9892C73.2161 91.9143 74.7088 89.1762 74.2178 86.8596C74.0185 85.919 70.2534 77.9046 65.2103 67.6865C64.5792 66.4077 64.1875 65.4132 64.34 65.4766C64.4925 65.5399 69.1156 67.4853 74.6136 69.7997C85.1405 74.2311 86.0314 74.5108 87.7858 73.9335C89.0404 73.5208 90.2184 72.6807 90.8688 71.735C91.1806 71.2814 93.0648 66.3273 95.0558 60.7259C97.0467 55.1246 98.7798 50.2724 98.907 49.9434L99.1381 49.3451L99.6617 50.3675C100.672 52.3402 102.329 53.5023 104.38 53.6766C107.736 53.9619 110.556 51.3826 110.556 48.0279C110.556 46.7346 110.339 46.1643 107.052 38.7917C105.124 34.4699 103.252 30.5608 102.891 30.1047C101.324 28.127 98.2566 27.5277 95.9276 28.7443ZM97.3006 28.9883C95.4329 29.5977 94.4461 30.576 93.7071 32.5499C93.3427 33.5235 87.4287 50.0669 83.5146 61.0616L83.2621 61.771L68.3237 55.5067C57.2756 50.8738 53.1513 49.2416 52.4868 49.2389C49.5699 49.2272 47.3997 51.3237 47.3727 54.1787C47.361 55.4043 47.6432 56.0369 54.5449 70.2584C59.0296 79.4995 61.639 85.1177 61.4885 85.2098C61.3561 85.2907 54.6265 88.0537 46.5339 91.3496C37.9366 94.851 31.4969 97.5986 31.0427 97.9591C28.6562 99.853 28.6297 103.669 30.9897 105.614C32.061 106.497 38.7646 108.762 40.3076 108.762C42.1458 108.762 43.8259 107.772 44.695 106.178C44.8972 105.808 45.1156 104.859 45.1805 104.07L45.2984 102.635L58.098 97.4114C71.8162 91.8128 72.2675 91.5812 73.0948 89.7106C74.0169 87.6262 73.9313 87.3812 68.0256 75.2011C65.0964 69.1597 62.7383 64.1782 62.7855 64.131C62.8327 64.0838 67.8621 66.135 73.9619 68.6891C83.5312 72.6962 85.2113 73.3333 86.2102 73.3333C87.7162 73.3333 89.2893 72.5742 90.0987 71.4569C90.4867 70.9211 92.2453 66.3082 94.819 59.0755C97.075 52.7354 98.9541 47.5128 98.9946 47.4696C99.0352 47.4265 99.5049 48.2858 100.038 49.3791C100.846 51.0331 101.185 51.4848 102.059 52.0689C103.84 53.2592 105.908 53.2678 107.652 52.092C109.136 51.0921 110.053 49.0473 109.781 47.3454C109.558 45.9533 102.766 30.9638 102.058 30.3015C100.812 29.1372 98.6623 28.5437 97.3006 28.9883ZM122.798 46.4183C112.247 48.363 103.698 56.3107 101.004 66.6802C100.698 67.86 100.447 69.3109 100.447 69.9042C100.447 70.8328 100.543 71.0635 101.138 71.5642L101.829 72.1458L108.72 72.1424C113.78 72.14 115.757 72.0647 116.165 71.8585C116.763 71.5557 117.011 71.1399 117.736 69.2179C119.077 65.6673 122.778 63.0473 126.848 62.767C130.011 62.5493 132.89 63.6561 135.153 65.9593C136.405 67.2328 137.116 68.4411 137.974 70.7524C138.473 72.0953 138.774 72.1458 146.273 72.1458C153.667 72.1458 154.051 72.0863 154.558 70.8616C154.764 70.364 154.745 69.837 154.469 68.3793C152.629 58.6835 145.556 50.5703 136.213 47.4402C135.135 47.079 133.356 46.6268 132.259 46.4356C129.86 46.0174 125.022 46.0084 122.798 46.4183ZM124.08 47.0024C119.13 47.6453 114.133 49.8989 110.175 53.2729C105.495 57.2636 101.99 63.5856 101.214 69.4362C100.965 71.3124 100.746 71.2625 108.937 71.1943L116.042 71.135L116.299 70.5734C118.398 65.9899 119.544 64.6355 122.611 63.1159C124.428 62.2157 124.607 62.1737 127.024 62.0812C129.27 61.9951 129.716 62.0448 131.136 62.5385C134.63 63.7536 137.275 66.3302 138.321 69.5389C138.526 70.1697 138.796 70.8135 138.92 70.9696C139.094 71.19 140.752 71.2401 146.335 71.1943C152.797 71.141 153.549 71.0965 153.764 70.7558C154.07 70.2703 153.636 67.5792 152.869 65.2048C148.966 53.1269 136.69 45.3648 124.08 47.0024ZM124.784 64.7328C120.118 66.261 117.417 71.36 118.844 75.9442C121.101 83.1989 130.284 84.8167 134.866 78.7672C138.262 74.2844 136.517 67.5742 131.323 65.1439C129.356 64.2233 126.825 64.0643 124.784 64.7328ZM125.831 65.2697C118.569 66.8846 116.846 76.4218 123.093 80.4302C128.3 83.7717 135.216 80.3197 135.873 74.0503C136.111 71.786 134.895 68.7821 133.104 67.2096C132.003 66.243 130.407 65.4864 128.869 65.2021C127.327 64.917 127.427 64.9148 125.831 65.2697ZM101.682 74.8291C100.637 75.257 100.372 75.8568 100.513 77.4787C100.817 80.9963 102.864 86.0089 105.404 89.4577C111.173 97.2931 120.497 101.559 129.911 100.671C140.371 99.685 149.203 93.0497 153.082 83.2654C154.061 80.7957 154.898 76.9005 154.611 76.15C154.501 75.8627 154.187 75.4255 153.913 75.1784C153.436 74.7489 153.098 74.7291 146.254 74.7291H139.095L138.563 75.2907C138.27 75.5996 137.851 76.3578 137.631 76.9755C136.457 80.2754 133.393 83.0484 130.073 83.8135C128.592 84.1549 126.065 84.0967 124.692 83.6895C121.098 82.6234 118.641 80.2806 117.322 76.6648C116.559 74.5724 116.735 74.6141 108.826 74.631C105.144 74.6388 101.929 74.728 101.682 74.8291ZM101.457 75.9658C101.084 76.378 101.073 76.5534 101.331 78.0437C101.918 81.4411 103.473 85.2375 105.585 88.432C106.931 90.4686 110.455 93.9938 112.495 95.3452C117.613 98.7348 122.755 100.188 128.736 99.9357C132.277 99.7861 134.933 99.1867 138.079 97.8268C144.124 95.2134 149.406 89.9229 152.031 83.8508C152.886 81.8724 153.91 78.1191 153.91 76.9627C153.91 75.5068 153.956 75.5154 146.273 75.5154C140.271 75.5154 139.294 75.5628 138.988 75.8683C138.794 76.0626 138.635 76.3434 138.635 76.4926C138.635 77.3486 136.941 80.1712 135.656 81.4559C129.71 87.4018 119.732 85.2464 116.804 77.3841C116.537 76.6653 116.222 75.9507 116.105 75.7962C115.942 75.5821 114.226 75.5154 108.878 75.5154C102.144 75.5154 101.848 75.5334 101.457 75.9658ZM152.761 88.4978C149.552 90.1743 148.716 93.8772 150.823 97.0805L151.192 97.6421L140.187 102.114C130.918 105.88 129.049 106.715 128.34 107.403C127.064 108.641 126.617 109.724 126.617 111.578V113.158L131.707 123.483C134.506 129.162 136.773 133.833 136.744 133.864C136.715 133.894 131.897 131.899 126.038 129.431C114.66 124.637 114.426 124.565 112.309 125.2C111.278 125.509 109.57 126.939 109.064 127.917C108.869 128.293 107.194 133.209 105.341 138.842C103.488 144.475 101.92 149.17 101.856 149.275C101.792 149.381 101.4 148.684 100.984 147.727C100.006 145.48 99.4072 144.718 98.0268 143.967C96.5274 143.151 95.2083 142.989 93.6857 143.435C91.27 144.141 89.5942 146.348 89.5708 148.852C89.5591 150.106 89.8487 150.914 93.4532 159.675C95.8474 165.495 97.5989 169.447 97.9985 169.932C99.6056 171.882 102.659 172.463 104.966 171.257C107.135 170.124 107.063 170.292 112.559 153.671C115.313 145.341 117.591 138.5 117.62 138.467C117.65 138.435 124.4 141.24 132.621 144.701C146.592 150.583 147.655 150.993 148.916 150.993C151.386 150.993 153.748 149.217 154.379 146.884C154.98 144.661 154.944 144.57 147.307 129.091C143.405 121.184 140.212 114.651 140.21 114.572C140.209 114.494 140.385 114.383 140.601 114.326C140.817 114.268 147.564 111.553 155.595 108.29C169.554 102.621 170.243 102.314 171.25 101.317C173.522 99.0681 173.497 95.5854 171.192 93.281C170.176 92.2646 169.952 92.174 162.861 89.9182C155.476 87.569 154.738 87.465 152.761 88.4978ZM153.811 88.8667C150.705 90.0184 149.497 93.2813 151.127 96.1155C151.426 96.6349 151.891 97.2138 152.159 97.402C152.428 97.5903 152.597 97.7953 152.534 97.858C152.471 97.9205 147.423 100.004 141.316 102.487C135.208 104.971 129.876 107.209 129.466 107.461C127.914 108.414 126.931 110.826 127.393 112.543C127.531 113.055 130.067 118.394 133.029 124.407C135.991 130.421 138.388 135.363 138.356 135.389C138.324 135.416 133.294 133.326 127.179 130.745C121.063 128.165 115.629 125.941 115.104 125.805C113.162 125.299 110.831 126.382 109.825 128.258C109.513 128.84 107.609 134.346 105.595 140.493C103.581 146.641 101.863 151.594 101.778 151.501C101.694 151.407 101.186 150.241 100.651 148.909C99.538 146.141 98.8308 145.165 97.4558 144.499C94.1581 142.903 90.3382 145.285 90.3382 148.937C90.3382 149.849 90.9802 151.604 94.0397 159.055C98.1542 169.075 98.169 169.107 98.9092 169.781C101.137 171.807 104.61 171.499 106.379 169.118C106.638 168.77 109.174 161.48 112.016 152.917L117.182 137.349L132.345 143.76C146.445 149.722 147.603 150.172 148.856 150.18C151.74 150.198 153.782 148.157 153.774 145.265C153.77 143.953 153.581 143.533 146.521 129.204C142.534 121.111 139.255 114.41 139.235 114.312C139.193 114.119 139.299 114.075 157.384 106.721C166.117 103.17 169.957 101.501 170.505 101.021C172.786 99.018 172.612 95.1404 170.163 93.4154C169.152 92.7035 157.396 88.8242 155.708 88.6454C155.111 88.5823 154.334 88.6731 153.811 88.8667ZM67.183 96.5306C58.6641 98.0732 51.1828 103.668 47.3716 111.345C45.8849 114.34 44.7471 118.143 44.7402 120.142C44.7375 120.912 44.8586 121.179 45.428 121.658L46.119 122.24H53.1477C61.298 122.24 60.9374 122.335 61.8079 119.948C62.7711 117.306 64.3589 115.446 66.7304 114.182C72.898 110.895 80.026 113.894 82.2317 120.705C82.7266 122.233 82.7621 122.24 90.5698 122.24C94.9318 122.24 97.7184 122.153 97.9882 122.009C98.2261 121.881 98.5783 121.472 98.7713 121.099C99.0894 120.484 99.0891 120.245 98.7681 118.531C96.6217 107.078 87.3332 98.1341 75.8059 96.4219C73.6256 96.0982 69.2681 96.153 67.183 96.5306ZM68.436 97.0934C64.597 97.6114 60.6232 99.1216 57.2682 101.338C51.2203 105.332 47.2107 111.26 45.7394 118.383C45.3267 120.381 45.435 121.052 46.2178 121.349C46.5359 121.47 49.6391 121.566 53.2378 121.566C60.4331 121.566 60.436 121.565 60.9206 120.049C61.4599 118.361 62.5649 116.617 63.919 115.316C66.1874 113.138 68.6827 112.129 71.7903 112.134C76.7885 112.141 80.9324 114.999 82.5781 119.573C82.9224 120.53 83.2702 121.097 83.6269 121.282C84.0142 121.483 85.9497 121.56 90.6812 121.563C98.1012 121.566 98.2005 121.546 98.2005 120.005C98.2005 118.865 97.2691 115.34 96.4359 113.327C93.0675 105.19 85.5538 99.0668 76.8797 97.3892C74.7027 96.9682 70.4641 96.8197 68.436 97.0934ZM69.6715 114.686C66.2528 115.628 63.6436 118.377 62.9061 121.815C62.1952 125.13 63.8119 129.081 66.6472 130.96C68.5791 132.239 69.9699 132.627 72.2778 132.529C74.0207 132.456 74.5374 132.337 75.7797 131.726C77.5619 130.848 79.3449 129.032 80.1855 127.239C80.7228 126.092 80.7911 125.68 80.7911 123.588C80.7911 121.407 80.7381 121.119 80.0889 119.769C79.2011 117.923 78.1365 116.708 76.6045 115.791C74.4529 114.504 71.8433 114.088 69.6715 114.686ZM68.9644 115.693C67.343 116.347 65.9062 117.498 64.9789 118.887C63.8431 120.588 63.5279 121.819 63.6472 124.09C63.7297 125.659 63.862 126.166 64.5029 127.369C66.041 130.255 68.5782 131.762 71.9233 131.777C73.6382 131.785 73.9927 131.71 75.3164 131.059C81.7213 127.905 81.7963 119.292 75.4476 116.019C73.8718 115.207 70.5795 115.041 68.9644 115.693ZM45.9339 125.038C44.9046 125.486 44.6562 126.101 44.8276 127.774C45.3359 132.736 48.3773 138.704 52.4814 142.794C62.2848 152.563 77.3013 153.65 88.2702 145.385C93.9786 141.084 98.0187 134.3 98.9952 127.378C99.128 126.437 99.0779 126.267 98.4649 125.581L97.788 124.823H90.5994C83.4202 124.823 83.4099 124.824 82.864 125.337C82.5635 125.619 82.1919 126.276 82.0385 126.797C81.6002 128.284 80.5837 129.889 79.2874 131.141C76.9332 133.415 74.6877 134.246 71.2667 134.109C69.3416 134.031 68.9204 133.933 67.4225 133.213C64.535 131.824 62.7246 129.81 61.6053 126.74C60.8593 124.694 60.9228 124.709 53.1117 124.72C48.1252 124.726 46.4834 124.799 45.9339 125.038ZM45.7528 126.053C45.3712 126.475 45.3698 126.596 45.7245 128.535C46.9297 135.123 50.9918 141.379 56.6399 145.345C65.8931 151.843 78.5768 151.667 87.6344 144.914C89.7745 143.318 92.6131 140.351 94.0006 138.259C96.0516 135.167 97.8096 130.631 98.1248 127.619C98.3433 125.53 98.6399 125.609 90.5817 125.609C83.0154 125.609 83.2246 125.573 82.8101 126.957C82.7176 127.266 82.3406 128.119 81.9725 128.853C79.8889 133.007 74.9573 135.546 70.2938 134.866C66.0441 134.247 62.5701 131.456 61.0971 127.478C60.8309 126.759 60.4585 126.045 60.2698 125.89C60.0115 125.679 58.2162 125.609 53.0403 125.609C46.4694 125.609 46.1359 125.63 45.7528 126.053Z" fill="white"/>
<path fill-rule="evenodd" clip-rule="evenodd" d="M96.6396 29.663C95.3255 30.229 94.4418 31.278 93.7447 33.099C93.3894 34.0278 90.9473 40.8281 88.318 48.2106C85.6886 55.5932 83.4613 61.7205 83.3685 61.8269C83.2755 61.9334 76.7467 59.3231 68.8599 56.0265C60.9731 52.7299 54.0302 49.9026 53.4314 49.7437C50.3091 48.9158 47.1808 51.5556 47.4897 54.7576C47.5699 55.5887 49.2019 59.1377 54.7071 70.4529C58.6198 78.4945 61.8182 85.1354 61.8148 85.2104C61.8117 85.2856 54.9903 88.1093 46.6563 91.4853C30.1097 98.1882 30.3494 98.0659 29.5951 100.196C29.1584 101.43 29.1584 102.15 29.5951 103.384C30.2856 105.334 31.1094 105.875 35.7165 107.405C39.2453 108.576 40.0082 108.758 40.8804 108.639C43.3436 108.303 45.0544 106.398 45.122 103.915L45.1586 102.573L58.0587 97.3158C65.1536 94.4243 71.2228 91.8831 71.5459 91.6686C71.8689 91.4542 72.4157 90.7999 72.7607 90.2144C73.2655 89.3583 73.3856 88.888 73.3758 87.8079C73.3641 86.5214 73.1376 86.0019 67.9247 75.303C64.9332 69.1636 62.5244 64.1019 62.5721 64.0547C62.6195 64.0075 67.641 66.0498 73.7311 68.5932C79.8213 71.1366 85.2191 73.2641 85.7261 73.3211C87.9547 73.5712 89.9731 72.2771 90.8099 70.0612C91.4701 68.3133 98.886 47.601 98.886 47.505C98.886 47.4625 98.9617 47.4281 99.0545 47.4285C99.1473 47.429 99.5206 48.1346 99.8845 48.9963C100.706 50.9437 101.524 51.9498 102.776 52.5529C105.318 53.7786 108.567 52.4236 109.446 49.7708C110.019 48.0426 109.721 47.0878 106.1 39.0384C104.161 34.7296 102.416 31.1531 102.074 30.7887C100.785 29.4169 98.372 28.9169 96.6396 29.663ZM96.8769 32.1592C96.3058 32.6847 95.399 35.0442 90.6641 48.3225C87.6146 56.8739 84.9666 64.0469 84.7797 64.2621C84.5926 64.4773 84.268 64.6536 84.0582 64.6536C83.8486 64.6536 77.2683 61.9757 69.4354 58.703C51.6668 51.2784 52.6312 51.6469 51.6641 51.9129C50.4405 52.2493 49.7999 53.0867 49.8187 54.3249C49.8324 55.2247 50.8525 57.4558 57.1756 70.4146C61.213 78.6894 64.5149 85.6357 64.5131 85.8509C64.5111 86.0659 64.4323 86.3632 64.3377 86.5115C64.2431 86.6596 57.0927 89.6533 48.448 93.1641C36.896 97.8556 32.5969 99.6992 32.2265 100.12C31.2475 101.233 31.2931 102.521 32.3487 103.567C32.7791 103.993 33.9892 104.509 36.5202 105.347C40.5154 106.67 41.1057 106.695 42.1764 105.582C42.8615 104.869 42.9669 104.063 42.6153 102.225C42.5102 101.675 42.5558 101.358 42.7633 101.198C42.9284 101.071 49.0783 98.5283 56.4296 95.5482C66.5232 91.4565 69.9604 89.9679 70.4694 89.4681C71.7429 88.2171 71.7539 88.248 64.9775 74.3851C59.7729 63.7381 58.8828 61.7733 59.0497 61.2979C59.18 60.926 59.4431 60.7158 59.8342 60.6701C60.2105 60.6265 64.975 62.5014 73.0514 65.8715C79.9974 68.7699 85.9274 71.1413 86.2291 71.1413C86.9877 71.1413 88.0349 70.565 88.3678 69.9645C88.5206 69.6889 90.7353 63.6245 93.2894 56.488C97.3064 45.2636 98.0106 43.4683 98.5066 43.1844C99.0221 42.8894 99.1244 42.8963 99.5195 43.2524C99.7612 43.4703 100.597 45.0661 101.376 46.7985C103.006 50.4216 103.451 50.8804 105.169 50.7057C105.934 50.6278 106.32 50.4384 106.797 49.907C107.869 48.7117 107.743 48.2283 104.394 40.7589C100.767 32.6688 100.604 32.3417 99.9622 31.8943C99.1311 31.3146 97.657 31.441 96.8769 32.1592ZM122.361 47.6587C120.099 48.1323 117.534 48.9869 115.846 49.8301C110.615 52.4422 106.023 57.1077 103.586 62.2871C102.575 64.4357 101.618 67.605 101.425 69.4406C101.307 70.5643 101.348 70.8048 101.701 71.0625C102.029 71.3008 103.553 71.365 108.89 71.365C116.552 71.365 115.995 71.4999 116.742 69.4634C118.658 64.237 124.419 61.0715 129.931 62.2162C133.223 62.8999 136.473 65.4399 137.882 68.4299C138.324 69.3674 138.807 70.3862 138.955 70.6938L139.225 71.2531L146.23 71.3122L153.234 71.3712L153.586 70.8366C153.905 70.3507 153.905 70.1437 153.58 68.5788C152.483 63.2871 150.364 59.1858 146.799 55.4524C142.807 51.2715 137.677 48.4965 132.159 47.5328C129.509 47.0699 124.889 47.1292 122.361 47.6587ZM123.113 49.7909C115.64 51.1377 108.927 56.3504 105.626 63.3688C104.842 65.0357 103.828 68.1231 103.828 68.8437C103.828 69.0652 104.984 69.1278 109.082 69.1278H114.336L115.114 67.5059C116.907 63.7639 120.207 61.1437 124.508 60.0464C126.468 59.5464 129.897 59.7066 131.908 60.392C135.351 61.5659 138.394 64.2001 139.909 67.3173L140.781 69.1126L146.004 69.1202C152.036 69.129 151.584 69.3648 150.768 66.6343C148.179 57.9793 140.667 51.3316 131.71 49.7695C129.398 49.3661 125.415 49.3762 123.113 49.7909ZM125.377 65.6173C123.041 66.275 121.096 67.9507 120.037 70.2196C119.544 71.2773 119.45 71.7965 119.445 73.4903C119.441 75.2133 119.527 75.6882 120.042 76.7829C120.838 78.4726 122.382 80.082 123.983 80.8894C125.16 81.4831 125.489 81.5439 127.527 81.5439C129.536 81.5439 129.91 81.4773 131.063 80.9135C132.706 80.1102 134.174 78.6473 134.981 77.0113C135.55 75.8578 135.613 75.5003 135.606 73.4903C135.596 70.7889 135.186 69.7146 133.478 67.916C131.452 65.7824 128.135 64.8413 125.377 65.6173ZM125.858 67.8225C124.73 68.1453 123.313 69.1911 122.647 70.1932C121.117 72.4954 121.274 75.2961 123.047 77.3594C126.615 81.5099 133.462 78.9688 133.473 73.4903C133.481 69.5683 129.671 66.7321 125.858 67.8225ZM101.75 75.8571C100.726 76.4513 101.955 81.6406 104.085 85.7193C105.956 89.299 109.317 93.0898 112.577 95.2943C118.778 99.4878 126.883 100.929 134.032 99.1079C143.999 96.5694 151.675 88.4818 153.572 78.5207C153.933 76.626 153.836 76.0258 153.124 75.7538C152.925 75.6777 149.808 75.6155 146.197 75.6155C141.291 75.6155 139.538 75.6862 139.263 75.8952C139.06 76.0491 138.68 76.7522 138.419 77.458C136.357 83.0175 130.349 86.156 124.615 84.6686C121.098 83.7565 117.521 80.454 116.635 77.3021C116.153 75.5873 116.28 75.6146 108.776 75.6222C104.69 75.6265 101.992 75.7167 101.75 75.8571ZM103.828 78.212C103.828 79.7956 105.546 84.0236 107.243 86.6158C113.903 96.7918 126.954 100.492 137.907 95.3097C140.469 94.0976 142.269 92.8397 144.43 90.7516C146.581 88.6726 148.175 86.4703 149.426 83.8516C150.318 81.9809 151.492 78.333 151.302 78.0205C151.246 77.9281 148.856 77.856 145.99 77.8603L140.781 77.8679L139.929 79.6222C138.383 82.8055 135.535 85.3104 132.089 86.5171C129.928 87.2739 126.633 87.4522 124.41 86.9323C120.518 86.0216 117.008 83.2703 115.262 79.7605L114.313 77.8527H109.07C104.407 77.8527 103.828 77.8923 103.828 78.212ZM153.361 89.2388C150.243 90.6762 149.564 95.0231 152.121 97.1663C152.525 97.5048 152.801 97.8357 152.735 97.9017C152.668 97.9677 147.424 100.125 141.082 102.696C130.649 106.924 129.47 107.454 128.722 108.246C127.759 109.267 127.315 110.645 127.487 112.081C127.572 112.786 129.257 116.42 133.115 124.217C136.143 130.339 138.521 135.347 138.398 135.347C138.275 135.347 133.101 133.209 126.898 130.596C115.808 125.923 115.595 125.844 114.033 125.842C112.667 125.84 112.311 125.927 111.497 126.463C110.976 126.807 110.35 127.411 110.107 127.806C109.863 128.201 107.929 133.729 105.808 140.09C103.688 146.452 101.891 151.618 101.815 151.572C101.739 151.525 101.226 150.363 100.675 148.989C99.477 146.004 98.4801 144.729 96.9359 144.205C95.0173 143.554 93.4961 143.873 92.0083 145.239C90.8582 146.294 90.2042 148.039 90.4567 149.379C90.5392 149.817 92.3082 154.298 94.3879 159.337C96.9804 165.619 98.3702 168.713 98.8085 169.178C100.746 171.232 104.143 171.172 106.014 169.05C106.634 168.347 107.455 166.058 111.826 152.852C114.625 144.393 116.989 137.391 117.08 137.291C117.17 137.191 124.006 139.95 132.27 143.421C148.451 150.218 148.715 150.306 150.656 149.568C151.828 149.122 153.083 147.82 153.471 146.649C154.114 144.711 154.034 144.515 146.317 128.906C142.346 120.873 139.096 114.228 139.096 114.139C139.096 114.051 145.929 111.212 154.281 107.831C162.633 104.45 169.753 101.481 170.104 101.234C170.973 100.62 171.829 99.25 172.01 98.1847C172.325 96.3281 171.214 93.9842 169.634 93.1706C169.279 92.9876 166.142 91.9325 162.665 90.8263C155.888 88.6703 154.943 88.509 153.361 89.2388ZM153.722 91.6245C152.59 92.5739 152.508 94.3623 153.551 95.401C153.832 95.6802 154.733 96.1312 155.554 96.4032C157.088 96.912 157.463 97.3207 157.187 98.1862C157.027 98.6898 157.809 98.3495 143.318 104.221C136.929 106.809 131.396 109.085 131.023 109.278C130.254 109.673 129.661 110.654 129.661 111.53C129.661 111.854 132.495 117.86 135.959 124.876C140.333 133.736 142.214 137.765 142.117 138.069C141.731 139.28 141.729 139.28 127.866 133.463C120.657 130.439 114.468 127.965 114.112 127.965C113.304 127.965 112.253 128.492 112.01 129.019C111.909 129.239 109.799 135.409 107.321 142.73L102.817 156.041L102.097 156.11C101.189 156.197 101.246 156.293 99.1365 151.222C97.6581 147.668 97.3221 147.04 96.6626 146.597C95.7224 145.967 94.9562 145.95 93.9867 146.539C93.1524 147.045 92.4976 148.348 92.691 149.116C92.7613 149.394 94.4456 153.583 96.4343 158.424C100.457 168.218 100.599 168.457 102.368 168.457C104.349 168.457 104.105 169.003 109.773 151.902C115.978 133.179 115.423 134.706 116.085 134.54C116.481 134.441 120.815 136.163 132.423 141.029C143.74 145.772 148.464 147.651 149.073 147.651C149.741 147.651 150.088 147.488 150.687 146.891C152.074 145.51 152.273 146.033 143.926 129.19C139.528 120.317 136.4 113.748 136.4 113.387C136.4 112.989 136.567 112.679 136.867 112.519C137.124 112.382 144.264 109.462 152.734 106.029C161.205 102.597 168.372 99.6337 168.662 99.4448C169.454 98.9274 169.937 97.843 169.769 96.9538C169.478 95.4097 169.115 95.2202 162.304 93.0601C158.821 91.9556 155.62 91.0518 155.189 91.0518C154.676 91.0518 154.17 91.2498 153.722 91.6245ZM67.1347 97.4493C57.0363 99.2663 48.7243 106.992 46.1983 116.909C45.5924 119.288 45.5037 120.573 45.9166 120.985C46.2212 121.288 59.7048 121.377 60.1754 121.079C60.3207 120.987 60.6525 120.345 60.9129 119.652C63.1797 113.618 69.6677 110.471 75.6179 112.52C78.4337 113.489 81.1374 115.931 82.3112 118.564C82.6686 119.366 83.0859 120.274 83.2382 120.582L83.5154 121.141L90.4891 121.2C98.9361 121.272 98.4446 121.45 97.8927 118.516C95.8725 107.779 87.2318 99.3307 76.3358 97.4384C73.8915 97.0137 69.5259 97.0191 67.1347 97.4493ZM67.7302 99.6469C65.7498 100.022 63.5465 100.72 61.6852 101.561C56.7888 103.772 52.1556 108.418 49.8142 113.464C49.1033 114.997 48.118 118.056 48.118 118.732C48.118 118.953 49.2724 119.016 53.3628 119.016H58.6077L59.4631 117.282C60.6211 114.935 63.2718 112.269 65.5826 111.127C70.5366 108.678 76.2718 109.295 80.6594 112.749C82.0632 113.854 83.8632 116.211 84.5479 117.841L85.0412 119.016H90.3711H95.7013L95.3743 117.62C94.5948 114.292 92.5634 110.446 90.049 107.536C87.1366 104.166 82.3644 101.246 77.8824 100.09C75.0974 99.3717 70.2866 99.1618 67.7302 99.6469ZM69.3862 115.639C63.4214 117.603 61.7023 125.05 66.2289 129.313C68.0512 131.029 69.1052 131.429 71.8172 131.431C73.7842 131.432 74.2229 131.358 75.3431 130.835C76.9756 130.073 78.5393 128.516 79.3044 126.89C79.8291 125.775 79.9042 125.335 79.9042 123.378C79.9042 121.388 79.8357 121.003 79.2833 119.883C77.521 116.31 73.1015 114.415 69.3862 115.639ZM70.2144 117.694C68.9228 118.067 67.395 119.293 66.718 120.501C65.4452 122.773 65.7172 125.407 67.424 127.338C68.677 128.755 70.2073 129.38 72.1373 129.263C73.8556 129.159 74.9397 128.695 76.0478 127.592C77.1625 126.482 77.6216 125.407 77.7286 123.656C77.8079 122.359 77.7357 121.971 77.2202 120.922C75.9231 118.281 72.9402 116.907 70.2144 117.694ZM46.265 125.658C45.6888 125.808 45.5466 126.723 45.8472 128.348C47.5459 137.528 54.4177 145.394 63.3969 148.435C66.3031 149.42 68.4544 149.75 71.9295 149.743C74.1701 149.739 75.7477 149.615 76.9839 149.347C87.7889 147.001 95.6467 139.135 97.8756 128.433C98.2701 126.539 98.1764 126.012 97.3919 125.715C96.6778 125.444 84.4888 125.437 83.7767 125.707C83.3865 125.855 83.1142 126.276 82.782 127.245C80.1328 134.971 70.0484 137.493 64.1153 131.913C62.5494 130.44 61.6252 129.097 61.0151 127.408C60.6963 126.525 60.3464 125.968 59.9959 125.787C59.6055 125.584 57.7419 125.516 53.06 125.533C49.5388 125.545 46.4811 125.602 46.265 125.658ZM48.118 128.133C48.118 128.349 48.306 129.18 48.5358 129.981C51.2584 139.461 59.4797 146.333 69.4376 147.452C79.106 148.538 89.1226 143.077 93.4621 134.354C94.427 132.414 95.4329 129.611 95.554 128.524L95.6288 127.853H90.3678H85.1068L84.2015 129.642C82.4354 133.134 78.9892 135.847 75.0787 136.825C72.8872 137.373 69.1692 137.168 67.1311 136.387C63.6822 135.065 60.9248 132.559 59.3997 129.363L58.6261 127.741H53.372C48.5143 127.741 48.118 127.77 48.118 128.133Z" fill="#47859F"/>
<path fill-rule="evenodd" clip-rule="evenodd" d="M123.113 49.7913C115.64 51.138 108.927 56.3508 105.626 63.3691C104.842 65.036 103.828 68.1235 103.828 68.8441C103.828 69.0656 104.984 69.1282 109.082 69.1282H114.336L115.113 67.5063C116.907 63.7642 120.207 61.1441 124.508 60.0468C126.468 59.5468 129.897 59.7069 131.908 60.3924C135.351 61.5662 138.394 64.2005 139.908 67.3177L140.781 69.113L146.004 69.1206C152.036 69.1293 151.584 69.3651 150.767 66.6347C148.179 57.9796 140.667 51.332 131.71 49.7698C129.398 49.3664 125.415 49.3765 123.113 49.7913ZM67.7301 99.6472C65.7497 100.023 63.5465 100.72 61.6851 101.561C56.7887 103.772 52.1555 108.418 49.8142 113.465C49.1032 114.997 48.1179 118.057 48.1179 118.732C48.1179 118.954 49.2723 119.016 53.3628 119.016H58.6076L59.463 117.283C60.621 114.936 63.2717 112.27 65.5826 111.127C70.5365 108.678 76.2717 109.295 80.6593 112.749C82.0631 113.854 83.8631 116.212 84.5478 117.842L85.0411 119.016H90.3711H95.7012L95.3742 117.621C94.5947 114.293 92.5633 110.446 90.0489 107.537C87.1365 104.167 82.3643 101.246 77.8823 100.09C75.0973 99.372 70.2865 99.1622 67.7301 99.6472Z" fill="#DA0534"/>
<path fill-rule="evenodd" clip-rule="evenodd" d="M96.8755 32.1594C96.3044 32.6849 95.3976 35.0444 90.6627 48.3227C87.6132 56.8742 84.9652 64.0471 84.7783 64.2623C84.5912 64.4775 84.2666 64.6538 84.0568 64.6538C83.8472 64.6538 77.2669 61.976 69.434 58.7033C51.6654 51.2786 52.6298 51.6471 51.6628 51.9131C50.4392 52.2496 49.7985 53.0869 49.8174 54.3252C49.8311 55.225 50.8511 57.4561 57.1742 70.4149C61.2116 78.6896 64.5136 85.6359 64.5118 85.8511C64.5097 86.0661 64.4309 86.3634 64.3363 86.5118C64.2418 86.6599 57.0913 89.6536 48.4466 93.1643C36.8947 97.8558 32.5955 99.6994 32.2251 100.12C31.2462 101.233 31.2918 102.521 32.3473 103.567C32.7777 103.993 33.9878 104.51 36.5188 105.348C40.514 106.67 41.1044 106.695 42.175 105.582C42.8601 104.87 42.9655 104.063 42.6139 102.225C42.5088 101.675 42.5544 101.359 42.762 101.198C42.9271 101.071 49.077 98.5285 56.4282 95.5484C66.5218 91.4567 69.959 89.9681 70.468 89.4684C71.7415 88.2173 71.7525 88.2482 64.9761 74.3854C59.7715 63.7384 58.8815 61.7735 59.0484 61.2981C59.1787 60.9263 59.4417 60.716 59.8328 60.6704C60.2091 60.6267 64.9736 62.5017 73.05 65.8717C79.996 68.7701 85.926 71.1415 86.2277 71.1415C86.9863 71.1415 88.0335 70.5652 88.3664 69.9648C88.5192 69.6892 90.7339 63.6247 93.288 56.4883C97.305 45.2639 98.0092 43.4686 98.5052 43.1847C99.0208 42.8896 99.123 42.8965 99.5181 43.2527C99.7598 43.4706 100.595 45.0663 101.375 46.7988C103.004 50.4218 103.45 50.8807 105.167 50.7059C105.933 50.6281 106.319 50.4386 106.796 49.9073C107.868 48.712 107.741 48.2285 104.393 40.7592C100.766 32.669 100.602 32.342 99.9609 31.8945C99.1297 31.3149 97.6556 31.4413 96.8755 32.1594ZM126.459 47.1453C127.108 47.1905 128.169 47.1905 128.818 47.1453C129.466 47.1001 128.935 47.0632 127.638 47.0632C126.341 47.0632 125.81 47.1001 126.459 47.1453ZM146.171 54.8104C147.029 55.6717 147.782 56.3764 147.843 56.3764C147.905 56.3764 147.254 55.6717 146.395 54.8104C145.537 53.9491 144.785 53.2444 144.723 53.2444C144.661 53.2444 145.313 53.9491 146.171 54.8104ZM108.648 54.8663L107.533 56.0408L108.713 54.9308C109.361 54.32 109.892 53.7916 109.892 53.7563C109.892 53.5892 109.684 53.7751 108.648 54.8663ZM126.689 62.1332C127.218 62.1807 128.026 62.18 128.486 62.1319C128.946 62.0838 128.514 62.0451 127.526 62.046C126.537 62.0467 126.161 62.086 126.689 62.1332ZM125.857 67.8227C124.728 68.1455 123.312 69.1914 122.646 70.1934C121.116 72.4956 121.272 75.2963 123.046 77.3596C126.613 81.5102 133.461 78.969 133.472 73.4905C133.48 69.5686 129.669 66.7323 125.857 67.8227ZM135.793 73.6024C135.793 74.2791 135.835 74.5558 135.886 74.2176C135.937 73.8793 135.937 73.3254 135.886 72.9871C135.835 72.6489 135.793 72.9256 135.793 73.6024ZM103.827 78.2122C103.827 79.7959 105.544 84.0238 107.241 86.616C113.902 96.7921 126.953 100.492 137.905 95.31C140.467 94.0979 142.267 92.8399 144.428 90.7518C146.58 88.6728 148.174 86.4706 149.424 83.8518C150.317 81.9811 151.491 78.3332 151.301 78.0207C151.245 77.9283 148.854 77.8563 145.989 77.8605L140.779 77.8681L139.928 79.6225C138.382 82.8057 135.534 85.3106 132.088 86.5174C129.926 87.2742 126.631 87.4525 124.409 86.9326C120.516 86.0218 117.007 83.2706 115.26 79.7608L114.311 77.8529H109.069C104.406 77.8529 103.827 77.8925 103.827 78.2122ZM127.024 81.8167C127.365 81.8679 127.87 81.8666 128.147 81.8135C128.423 81.7605 128.144 81.7185 127.526 81.72C126.908 81.7218 126.682 81.7652 127.024 81.8167ZM108.656 92.1706C109.39 92.9088 110.041 93.5129 110.102 93.5129C110.164 93.5129 109.615 92.9088 108.881 92.1706C108.147 91.4323 107.497 90.8283 107.435 90.8283C107.373 90.8283 107.923 91.4323 108.656 92.1706ZM153.721 91.6247C152.588 92.5742 152.507 94.3625 153.55 95.4012C153.83 95.6804 154.731 96.1314 155.552 96.4035C157.087 96.9122 157.461 97.3209 157.186 98.1865C157.025 98.6901 157.807 98.3498 143.316 104.221C136.928 106.81 131.395 109.085 131.021 109.278C130.253 109.674 129.66 110.654 129.66 111.53C129.66 111.854 132.494 117.86 135.957 124.876C140.331 133.736 142.212 137.766 142.115 138.069C141.729 139.28 141.728 139.28 127.864 133.464C120.656 130.439 114.467 127.965 114.111 127.965C113.302 127.965 112.251 128.492 112.009 129.019C111.907 129.239 109.798 135.409 107.32 142.73L102.816 156.041L102.096 156.11C101.187 156.198 101.245 156.293 99.1351 151.222C97.6568 147.668 97.3207 147.04 96.6612 146.598C95.7211 145.967 94.9548 145.95 93.9853 146.539C93.151 147.045 92.4962 148.348 92.6896 149.116C92.7599 149.395 94.4442 153.583 96.4329 158.424C100.456 168.218 100.597 168.457 102.367 168.457C104.347 168.457 104.103 169.003 109.771 151.902C115.977 133.179 115.422 134.706 116.084 134.541C116.48 134.442 120.813 136.163 132.422 141.029C143.738 145.772 148.463 147.652 149.072 147.652C149.739 147.652 150.086 147.488 150.686 146.891C152.072 145.51 152.272 146.033 143.924 129.19C139.527 120.317 136.399 113.749 136.399 113.387C136.399 112.989 136.566 112.679 136.866 112.519C137.122 112.383 144.262 109.462 152.733 106.03C161.203 102.597 168.371 99.6339 168.66 99.4451C169.453 98.9276 169.935 97.8433 169.768 96.954C169.477 95.41 169.113 95.2205 162.303 93.0603C158.82 91.9558 155.618 91.052 155.188 91.052C154.675 91.052 154.168 91.25 153.721 91.6247ZM70.8679 97.0332C71.4585 97.0795 72.3682 97.0789 72.8896 97.0321C73.411 96.9851 72.9278 96.9473 71.8159 96.948C70.7039 96.9487 70.2773 96.9871 70.8679 97.0332ZM90.5731 104.81C91.3689 105.61 92.0707 106.265 92.1325 106.265C92.1943 106.265 91.5936 105.61 90.7977 104.81C90.0018 104.011 89.3 103.356 89.2383 103.356C89.1765 103.356 89.7772 104.011 90.5731 104.81ZM70.9685 112.019C71.3673 112.068 72.0749 112.069 72.541 112.021C73.0069 111.972 72.6807 111.932 71.8159 111.931C70.951 111.93 70.5696 111.969 70.9685 112.019ZM63.6166 115.325C63.071 115.879 62.6751 116.332 62.7369 116.332C62.7987 116.332 63.2956 115.879 63.8412 115.325C64.3869 114.771 64.7827 114.318 64.7209 114.318C64.6591 114.318 64.1622 114.771 63.6166 115.325ZM70.2131 117.694C68.9214 118.067 67.3936 119.293 66.7166 120.501C65.4438 122.773 65.7158 125.407 67.4226 127.338C68.6756 128.756 70.2059 129.381 72.136 129.263C73.8542 129.159 74.9383 128.696 76.0464 127.592C77.1611 126.482 77.6203 125.407 77.7272 123.656C77.8065 122.359 77.7344 121.971 77.2188 120.922C75.9218 118.282 72.9388 116.907 70.2131 117.694ZM49.8715 121.421C51.7632 121.458 54.7958 121.458 56.6106 121.421C58.4252 121.383 56.8775 121.352 53.171 121.352C49.4645 121.353 47.9796 121.383 49.8715 121.421ZM87.3859 121.421C89.2776 121.458 92.3102 121.458 94.125 121.421C95.9396 121.383 94.3919 121.352 90.6854 121.352C86.9789 121.353 85.494 121.383 87.3859 121.421ZM80.0847 123.379C80.0859 124.117 80.1279 124.392 80.178 123.99C80.2278 123.588 80.2269 122.984 80.1757 122.648C80.1243 122.311 80.0834 122.64 80.0847 123.379ZM48.1166 128.133C48.1166 128.349 48.3047 129.18 48.5345 129.981C51.2571 139.461 59.4783 146.333 69.4363 147.452C79.1047 148.538 89.1212 143.077 93.4608 134.354C94.4256 132.414 95.4315 129.611 95.5526 128.524L95.6274 127.853H90.3664H85.1054L84.2001 129.643C82.434 133.134 78.9878 135.848 75.0774 136.825C72.8858 137.373 69.1678 137.168 67.1297 136.387C63.6808 135.065 60.9234 132.56 59.3984 129.363L58.6247 127.741H53.3707C48.5129 127.741 48.1166 127.771 48.1166 128.133ZM71.2021 131.706C71.6058 131.756 72.2123 131.755 72.55 131.704C72.8876 131.653 72.5572 131.612 71.8159 131.614C71.0745 131.615 70.7985 131.656 71.2021 131.706ZM52.9463 142.059C53.8044 142.92 54.5572 143.625 54.619 143.625C54.6808 143.625 54.0291 142.92 53.171 142.059C52.3129 141.197 51.5601 140.493 51.4983 140.493C51.4365 140.493 52.0882 141.197 52.9463 142.059Z" fill="white"/>
</svg>
