<svg width="168" height="168" viewBox="0 0 168 168" fill="none" xmlns="http://www.w3.org/2000/svg">
<path d="M84 164C128.183 164 164 128.183 164 84C164 39.8172 128.183 4 84 4C39.8172 4 4 39.8172 4 84C4 128.183 39.8172 164 84 164Z" fill="#58C1F3" stroke="black" stroke-width="7"/>
<path d="M84 164C105.217 164 125.566 155.571 140.569 140.569C155.571 125.566 164 105.217 164 84C164 62.7827 155.571 42.4344 140.569 27.4315C125.566 12.4285 105.217 4 84 4C62.7827 4 42.4344 12.4285 27.4315 27.4315C12.4285 42.4344 4 62.7827 4 84C4 105.217 12.4285 125.566 27.4315 140.569C42.4344 155.571 62.7827 164 84 164ZM84 14C90.57 14 98.07 19.9 104.22 33.08C106.39 37.74 108.28 43.1 109.81 49H58.19C59.72 43.1 61.61 37.74 63.79 33.08C69.92 19.9 77.42 14 84 14ZM54.72 28.85C51.767 35.3181 49.4785 42.0694 47.89 49H23.36C31.801 34.4075 45.2114 23.3399 61.14 17.82C58.73 21.12 56.58 24.86 54.72 28.85ZM45.92 59C44.627 67.2703 43.9851 75.6293 44 84C44 92.7 44.67 101.12 45.93 109H18.6C15.5538 101.017 13.9947 92.5442 14 84C14 75.2 15.63 66.76 18.6 59H45.92ZM47.89 119C49.65 126.43 51.96 133.22 54.72 139.15C56.58 143.14 58.73 146.88 61.14 150.18C45.2114 144.66 31.801 133.592 23.36 119H47.89ZM58.19 119H109.81C108.43 124.465 106.555 129.794 104.21 134.92C98.08 148.1 90.58 154 84 154C77.42 154 69.93 148.1 63.78 134.92C61.4416 129.793 59.5639 124.465 58.19 119ZM111.95 109H56.06C54.6765 100.739 53.9874 92.3762 54 84C54 75.17 54.73 66.75 56.06 59H111.94C113.27 66.75 114 75.17 114 84C114 92.83 113.27 101.25 111.94 109M120.11 119H144.64C136.199 133.592 122.789 144.66 106.86 150.18C109.27 146.88 111.42 143.14 113.28 139.15C116.04 133.22 118.35 126.43 120.11 119ZM149.41 109H122.07C123.33 101.12 124 92.7 124 84C124 75.3 123.33 66.88 122.07 59H149.4C152.37 66.76 154 75.2 154 84C154 92.8 152.38 101.24 149.41 109ZM106.85 17.82C122.782 23.3378 136.197 34.4057 144.64 49H120.1C118.511 42.0694 116.223 35.3181 113.27 28.85C111.491 24.9746 109.341 21.2806 106.85 17.82Z" fill="#7BDE77"/>
<path d="M111.95 109H56.06C54.6765 100.739 53.9874 92.3762 54 84C54 75.17 54.73 66.75 56.06 59H111.94C113.27 66.75 114 75.17 114 84C114 92.83 113.27 101.25 111.94 109M84 164C105.217 164 125.566 155.571 140.569 140.569C155.571 125.566 164 105.217 164 84C164 62.7827 155.571 42.4344 140.569 27.4315C125.566 12.4285 105.217 4 84 4C62.7827 4 42.4344 12.4285 27.4315 27.4315C12.4285 42.4344 4 62.7827 4 84C4 105.217 12.4285 125.566 27.4315 140.569C42.4344 155.571 62.7827 164 84 164ZM84 14C90.57 14 98.07 19.9 104.22 33.08C106.39 37.74 108.28 43.1 109.81 49H58.19C59.72 43.1 61.61 37.74 63.79 33.08C69.92 19.9 77.42 14 84 14ZM54.72 28.85C51.767 35.3181 49.4785 42.0694 47.89 49H23.36C31.801 34.4075 45.2114 23.3399 61.14 17.82C58.73 21.12 56.58 24.86 54.72 28.85ZM45.92 59C44.627 67.2703 43.9851 75.6293 44 84C44 92.7 44.67 101.12 45.93 109H18.6C15.5538 101.017 13.9947 92.5442 14 84C14 75.2 15.63 66.76 18.6 59H45.92ZM47.89 119C49.65 126.43 51.96 133.22 54.72 139.15C56.58 143.14 58.73 146.88 61.14 150.18C45.2114 144.66 31.801 133.592 23.36 119H47.89ZM58.19 119H109.81C108.43 124.465 106.555 129.794 104.21 134.92C98.08 148.1 90.58 154 84 154C77.42 154 69.93 148.1 63.78 134.92C61.4416 129.793 59.5639 124.465 58.19 119ZM120.11 119H144.64C136.199 133.592 122.789 144.66 106.86 150.18C109.27 146.88 111.42 143.14 113.28 139.15C116.04 133.22 118.35 126.43 120.11 119ZM149.41 109H122.07C123.33 101.12 124 92.7 124 84C124 75.3 123.33 66.88 122.07 59H149.4C152.37 66.76 154 75.2 154 84C154 92.8 152.38 101.24 149.41 109ZM106.85 17.82C122.782 23.3378 136.197 34.4057 144.64 49H120.1C118.511 42.0694 116.223 35.3181 113.27 28.85C111.491 24.9746 109.341 21.2806 106.85 17.82Z" stroke="black" stroke-width="2"/>
<path d="M55.0005 59.0007H113M55.0005 109.001H113" stroke="#F9D56E" stroke-width="2"/>
<path d="M57.8813 58.4909C71.218 54.9174 80.2913 45.5336 78.1472 37.5316C76.0031 29.5296 63.4534 25.9396 50.1168 29.5132C36.7801 33.0867 27.7068 42.4705 29.8509 50.4725C31.995 58.4745 44.5447 62.0645 57.8813 58.4909Z" fill="white" fill-opacity="0.439216"/>
<path d="M84.0024 92.0024C88.4207 92.0024 92.0024 88.4207 92.0024 84.0024C92.0024 79.5842 88.4207 76.0024 84.0024 76.0024C79.5842 76.0024 76.0024 79.5842 76.0024 84.0024C76.0024 88.4207 79.5842 92.0024 84.0024 92.0024Z" fill="white" stroke="black" stroke-width="2"/>
<path d="M76.0024 84.0007H92.0024Z" fill="black"/>
<path d="M76.0024 84.0007H92.0024" stroke="black" stroke-width="2"/>
<path d="M84.0024 87.0032C85.6593 87.0032 87.0024 85.66 87.0024 84.0032C87.0024 82.3463 85.6593 81.0032 84.0024 81.0032C82.3456 81.0032 81.0024 82.3463 81.0024 84.0032C81.0024 85.66 82.3456 87.0032 84.0024 87.0032Z" fill="white" stroke="black"/>
</svg>
