<svg width="201" height="200" viewBox="0 0 201 200" fill="none" xmlns="http://www.w3.org/2000/svg">
<path d="M128.389 94.9993L170.889 144.999C173.389 147.499 165.889 154.999 160.889 152.499L118.389 102.499" fill="#F9D56E"/>
<path d="M128.389 94.9993L170.889 144.999C173.389 147.499 165.889 154.999 160.889 152.499L118.389 102.499" stroke="black" stroke-width="8" stroke-linecap="round" stroke-linejoin="round"/>
<path d="M123.389 92.5007L148.389 125.001" stroke="white" stroke-opacity="0.439216" stroke-width="4" stroke-linecap="round"/>
<path d="M80.8879 139.999C114.025 139.999 140.888 113.136 140.888 79.9993C140.888 46.8622 114.025 19.9993 80.8879 19.9993C47.7509 19.9993 20.8879 46.8622 20.8879 79.9993C20.8879 113.136 47.7509 139.999 80.8879 139.999Z" fill="#F9D56E" stroke="black" stroke-width="8"/>
<path d="M80.8884 132.5C109.883 132.5 133.388 108.995 133.388 79.9998C133.388 51.0048 109.883 27.4998 80.8884 27.4998C51.8935 27.4998 28.3884 51.0048 28.3884 79.9998C28.3884 108.995 51.8935 132.5 80.8884 132.5Z" fill="#58C1F3" stroke="#3A8BBB" stroke-width="6"/>
<path d="M80.8879 127.499C107.121 127.499 128.388 106.233 128.388 79.9993C128.388 53.7657 107.121 32.4993 80.8879 32.4993C54.6544 32.4993 33.3879 53.7657 33.3879 79.9993C33.3879 106.233 54.6544 127.499 80.8879 127.499Z" fill="#B3E6FF"/>
<path d="M66.019 74.0958C78.9935 69.3735 87.2144 59.2346 84.381 51.4499C81.5477 43.6653 68.7329 41.1828 55.7584 45.9051C42.784 50.6274 34.563 60.7663 37.3964 68.551C40.2298 76.3356 53.0446 78.8182 66.019 74.0958Z" fill="white" fill-opacity="0.501961"/>
<path d="M90.8894 104.999C96.4123 104.999 100.889 102.761 100.889 99.9993C100.889 97.2378 96.4123 94.9993 90.8894 94.9993C85.3666 94.9993 80.8894 97.2378 80.8894 99.9993C80.8894 102.761 85.3666 104.999 90.8894 104.999Z" fill="white" fill-opacity="0.501961"/>
<path d="M80.8879 89.9993C86.4108 89.9993 90.8879 85.5221 90.8879 79.9993C90.8879 74.4764 86.4108 69.9993 80.8879 69.9993C75.3651 69.9993 70.8879 74.4764 70.8879 79.9993C70.8879 85.5221 75.3651 89.9993 80.8879 89.9993Z" fill="white" stroke="black" stroke-width="5"/>
<path d="M70.8879 80.0007H90.8879Z" fill="black"/>
<path d="M70.8879 80.0007H90.8879" stroke="black" stroke-width="5"/>
<path d="M80.8896 84.001C83.0988 84.001 84.8896 82.2101 84.8896 80.001C84.8896 77.7918 83.0988 76.001 80.8896 76.001C78.6805 76.001 76.8896 77.7918 76.8896 80.001C76.8896 82.2101 78.6805 84.001 80.8896 84.001Z" fill="white" stroke="black" stroke-width="3"/>
<path d="M138.389 105.001L150.889 122.501Z" fill="black"/>
<path d="M138.389 105.001L150.889 122.501" stroke="black" stroke-width="3" stroke-linecap="round" stroke-linejoin="round"/>
<path d="M145.888 115L158.388 132.5Z" fill="black"/>
<path d="M145.888 115L158.388 132.5" stroke="black" stroke-width="3" stroke-linecap="round" stroke-linejoin="round"/>
</svg>
